<?xml version="1.0" encoding="utf-8"?>
<!-- Generator: Adobe Illustrator 27.5.0, SVG Export Plug-In . SVG Version: 6.00 Build 0)  -->
<svg version="1.1" id="Capa_1" xmlns="http://www.w3.org/2000/svg" xmlns:xlink="http://www.w3.org/1999/xlink" x="0px" y="0px"
	 viewBox="0 0 566.9 566.9" style="enable-background:new 0 0 566.9 566.9;" xml:space="preserve">
<style type="text/css">
	.st0{fill:#F5C298;}
	.st1{fill:#F1D7A4;}
	.st2{fill:#D1BA91;}
</style>
<path class="st0" d="M359.5,364.4c0,0,31.2,132.8,38.1,133.9c6.8,1.1,5.3-19.4,5.3-19.4l-24.4-121.7L359.5,364.4"/>
<path class="st0" d="M120.9,500.9c-0.7,1.8,5.4,7.3,6.8,5.9c16-17.2,26.5-40.2,38.2-60.5c-0.6,1.8-1.3,3.6-1.9,5.5
	c4.2-2.1,6.8-6.5,9.1-10.6c6.6-11.9,13.3-23.8,19.9-35.7c7.7-13.9,15.6-27.9,20-43.2c0,0-7.5-4-8.2-4.5c-2.7-1.7-5.1-3.9-7.8-5.7
	c-5.3-3.6-9,7.4-10.8,10.8C179.7,374.9,134.4,465.8,120.9,500.9z"/>
<path class="st1" d="M77.7,145.7c2,26.3,13.5,50.9,25.5,74.6c14.2,28.1,29.3,55.8,45.2,83.1c13.8,23.7,29.4,48.1,54.1,61.1
	c18.7,9.8,40.5,12,61.7,13.9c23.4,2.1,50.5-1.8,73.5-5.9c23.1-4.1,87.8,2,92.7-42.2c1.4-12.5-3.9-22.3-7.2-34.4
	c-6.3-23.2-14.1-47.7-33.3-62.9c-24.1-19.1-58.4-17.9-89-23.8c-53.7-10.4-99.5-44.8-134-85.8c-7.5-8.9-14.7-18.4-24.5-24.9
	c-6.4-4.3-14.2-7.2-22.1-7.2c-6.1,0-16.3-2-21.8,0.6c-11.6,5.6-15.9,20.3-18.9,32C77.8,130.9,77.2,138.4,77.7,145.7z"/>
<path class="st2" d="M187.1,342.1c4.9,4.9,10.1,9.6,16.2,13c8.7,4.9,18.7,6.8,28.7,8.4c14.7,2.3,29.5,3.8,44.3,4.7
	c12.3,0.7,24.9,0.8,36.5-3.1s22.1-12.7,24.6-24.3c3.2-14.6-7-29.3-20.3-37c-13.2-7.7-29-10-44.1-12.9c-31.3-5.9-61.9-14.9-91.3-26.6
	c-12.4-4.9-24.9-10.6-35-19.3c-2.7-2.3-5-4.8-7.3-7.5c-1.7-1.9-3.2-3.4-5.8-3.9c-3.6-0.7-8.7,1-9.4,4.9c-0.5,2.5,1.2,5.4,2,7.7
	c1.1,3.1,2.3,6.2,3.5,9.2c2.5,6.2,5.2,12.3,8.2,18.2c5.9,11.9,12.7,23.3,20.4,34.2c7.7,10.9,16.2,21.2,25.6,30.8
	C184.9,339.8,186,341,187.1,342.1z"/>
<path class="st0" d="M392.5,357.9c0,0,26.6,92.3,34.1,89.3c7.4-3-15.6-90.2-15.6-90.2l-14,0.2"/>
<g>
	<g>
		<g>
			<path d="M134.9,88.7c-0.8-0.1-1.6-0.1-2.3-0.2c-0.7-0.1-1.4,0-2.1-0.1c-1.4,0-2.8,0-4.6,0.1c-0.5,0-1.2,0.2-2.1,0.3
				c-0.5,0.1-0.9,0.2-1.4,0.4l0,0l-0.7,0.2c-0.3,0.1-0.6,0.2-0.9,0.3c-0.6,0.2-1.2,0.4-1.7,0.8l-0.8,0.4c-0.3,0.1-0.5,0.3-0.8,0.5
				c-2.1,1.3-4,3.1-5.5,5.2c-1.5,2-2.8,4.4-3.6,6.8c-0.2,0.6-0.4,1.2-0.6,1.9c-0.2,0.7-0.3,1.3-0.5,2c-0.2,0.7-0.3,1.3-0.4,2
				c-0.1,0.7-0.2,1.3-0.4,2c-0.8,5.4-0.9,11-0.4,16.6c0.5,5.6,1.5,11.3,2.7,17c0.6,2.9,1.2,5.7,1.9,8.6c0.7,2.9,1.4,5.8,2.1,8.7
				c0.3,1.4,0.7,2.9,1,4.4c0.4,1.4,0.8,2.9,1.2,4.4c0.8,2.9,1.5,5.8,2.3,8.8c3.3,11.7,7.1,23.5,11.4,35.3
				c4.3,11.8,9.1,23.6,14.4,35.3c5.3,11.7,11.1,23.3,17.4,34.9c6.3,11.5,13.1,22.8,20.4,33.9c1.8,2.7,3.7,5.5,5.5,8.3
				c0.9,1.4,1.9,2.7,2.8,4.1l2.9,4.1c1.9,2.7,3.8,5.4,5.9,8c2,2.6,4.2,5.1,6.6,7.2c4.8,4.3,10.8,7.1,17,9.2c3.1,1,6.3,1.9,9.5,2.6
				l4.8,1.1l2.4,0.6c0.8,0.2,1.6,0.4,2.4,0.5c13,2.7,26.1,4.4,39.2,5c26.3,1.4,52.4-1.2,77-7.3c12.3-3,24.2-6.9,35.7-11.4
				c2.8-1.1,5.5-2.4,7.4-4.4c0.9-1,1.7-2.1,2-3.4c0.4-1.3,0.5-2.6,0.3-4c-0.1-1.4-0.5-2.8-0.9-4.2c-0.4-1.4-1-2.7-1.7-4.1
				c-1.2-2.7-2.6-5.3-4.1-7.8c-3-5-6.8-9.5-10.8-13.6c-4-4.1-8.4-7.7-13-11c-4.6-3.3-9.4-6-14.3-8.5c-4.9-2.5-9.9-4.6-14.9-6.4
				c-10.1-3.6-20.2-6-30.1-7.9c-9.9-1.9-19.5-3.3-28.7-4.6c-9.2-1.3-18-2.5-26.4-3.9c-8.3-1.4-16.2-3.1-23.5-5
				c-7.3-1.9-14-4.1-20-6.5c-6-2.4-11.4-5.1-16.1-7.7c-9.4-5.3-15.8-10.9-20-14.8c-2.1-2-3.6-3.5-4.6-4.6c-1-1.1-1.5-1.6-1.5-1.6
				s-0.5-0.6-1.5-1.6c-1-1.1-2.5-2.7-4.3-4.9c-3.7-4.3-8.9-10.8-15.3-19.5c-3.2-4.3-6.5-9.2-10-14.7c-1.7-2.7-3.5-5.6-5.2-8.7
				c-1.7-3.1-3.5-6.3-5.1-9.7c-3.3-6.8-6.4-14.2-8.8-22.4c-2.4-8.2-4-17.1-4.1-26.6c-0.1-4.7,0.3-9.5,1-14.4c0.4-2.5,1-4.9,2-7.4
				c1-2.4,2.5-4.8,4.7-6.5c1.1-0.9,2.3-1.6,3.6-2.1c1.3-0.5,2.7-0.7,4.1-0.8c2.8-0.1,5.5,0.6,8.1,1.6c2.5,1,4.9,2.3,7.2,3.8
				c0.6,0.4,1.1,0.7,1.7,1.1c0.6,0.4,1.1,0.8,1.7,1.2c1.1,0.8,2.3,1.5,3.3,2.4c8.7,6.6,16.3,15,23.6,23.8c3.7,4.4,7.2,8.9,10.9,13.4
				c1.8,2.3,3.7,4.5,5.6,6.8c1,1.1,1.9,2.2,2.9,3.3c1,1.1,2,2.2,3,3.2c16,17.5,36,32.6,58.5,44.2c22.5,11.6,47.8,19.3,73.8,22
				c1.6,0.2,3.3,0.3,4.9,0.5c1.6,0.1,3.3,0.2,4.9,0.3c3.3,0.2,6.6,0.4,9.9,0.4c6.6,0.1,13.3,0.1,20.1,1c3.4,0.5,6.7,1.2,9.9,2.3
				c3.2,1.1,6.4,2.6,9.2,4.5c5.7,3.8,10.4,9,14.2,14.6c3.8,5.6,7,11.6,9.9,17.6c2.9,6,5.7,12.1,8.1,18.4c2.4,6.2,4.5,12.6,5.8,19.2
				c1.4,6.5,2.1,13.2,1.9,19.9l0,1.3c0,0.4-0.1,0.8-0.1,1.2l-0.2,2.5c0,0.8-0.2,1.7-0.3,2.5l-0.4,2.5c-0.6,3.3-1.6,6.6-3.1,9.6
				c-1.4,3.1-3.3,5.9-5.8,8.3c-1.3,1.2-2.6,2.3-4.2,3.1c-0.7,0.5-1.6,0.7-2.4,1.1c-0.4,0.2-0.8,0.2-1.3,0.4
				c-0.4,0.1-0.8,0.3-1.3,0.3c-0.9,0.1-1.8,0.3-2.6,0.3c-0.8,0-1.6,0-2.4,0.1c-0.7,0.1-1.4,0.2-2,0.4c-0.6,0.2-1.2,0.6-1.8,1
				c-0.6,0.4-1.1,0.9-1.7,1.5l-0.4,0.4c-0.1,0.1-0.3,0.3-0.5,0.4c-0.3,0.3-0.7,0.6-1.1,0.8c-1.5,1-3.1,1.7-4.6,2.2
				c-1.5,0.5-3.1,1-4.5,1.5c-0.4,0.1-0.7,0.3-1,0.4l-0.7,0.3l0,0c0,0,0,0,0,0s0,0,0,0l1,0.1l1.2,0.1l1.2,0.1
				c0.8,0.1,1.5,0.1,2.3,0.1c3.1,0.1,6.2,0,9.2-0.4c3-0.4,6-1.1,8.8-2.1c2.8-1,5.4-2.5,7.7-4.3l0.4-0.3l0.4-0.4l0.8-0.8
				c0.5-0.5,1-1.1,1.4-1.6c1-1.1,1.7-2.3,2.4-3.6c0.7-1.3,1.3-2.6,1.8-4c0.5-1.4,1-2.8,1.4-4.2c0.8-2.8,1.4-5.7,1.8-8.6
				c0.4-2.9,0.7-5.8,0.7-8.7c0-1.5,0-2.9,0-4.3c0-0.7-0.1-1.4-0.1-2.2l0-0.6c-0.2-2.5-0.5-4.5-0.7-5.5c-0.3-1.8-0.6-3.3-0.8-4.7
				c-0.2-1.4-0.4-2.7-0.8-4.3c1.1,1.2,1.9,2.4,2.6,3.8c0.7,1.3,1.1,2.8,1.5,4.8c0.2,1.1,0.5,3.2,0.8,5.8l0.1,0.6
				c0,0.7,0.1,1.5,0.1,2.2c0.1,1.5,0.1,3,0,4.5c-0.1,3-0.3,6-0.8,9c-0.4,3-1,6-1.9,9c-0.4,1.5-0.9,3-1.5,4.4
				c-0.5,1.5-1.2,2.9-1.9,4.3c-0.8,1.4-1.6,2.8-2.6,4c-0.5,0.6-1,1.3-1.6,1.8l-0.9,0.8l-0.4,0.4l-0.5,0.4c-2.5,2.1-5.4,3.6-8.4,4.8
				c-3,1.1-6.1,1.8-9.3,2.3c-3.2,0.4-6.4,0.6-9.6,0.4c-0.8,0-1.6-0.1-2.4-0.1l-1.2-0.1l-1.2-0.1l-1.3-0.2c-0.8-0.1-1.4-0.3-2.1-0.4
				l-2.1-0.4l-1-0.2c-0.2,0,0.2-0.2,0.3-0.3l0.4-0.4l1.6-1.4l0.4-0.3c0.1-0.1,0.3-0.2,0.5-0.3l1-0.6c0.3-0.2,0.7-0.4,0.8-0.5
				l0.6-0.3c0.4-0.2,0.8-0.3,1.2-0.5c1.6-0.6,3.1-1.1,4.6-1.6c1.5-0.5,2.8-1.1,4-1.9c0.3-0.2,0.6-0.4,0.8-0.6
				c0.1-0.1,0.3-0.2,0.4-0.4l0.4-0.4c0.6-0.6,1.2-1.1,1.9-1.7c0.7-0.5,1.5-1,2.4-1.4c0.9-0.3,1.8-0.5,2.7-0.6
				c0.9-0.1,1.7-0.1,2.5-0.1c0.8,0,1.5-0.1,2.2-0.2c0.4,0,0.7-0.2,1.1-0.2c0.4-0.1,0.7-0.2,1.1-0.3c0.7-0.3,1.4-0.5,2-0.9
				c1.3-0.7,2.5-1.6,3.6-2.7c2.2-2.1,3.9-4.8,5.3-7.6c1.3-2.8,2.3-5.9,2.9-9l0.4-2.4c0.1-0.8,0.3-1.6,0.3-2.4l0.2-2.4
				c0-0.4,0.1-0.8,0.1-1.2l0-1.2c0.2-6.4-0.5-12.9-1.9-19.3c-1.3-6.4-3.4-12.6-5.7-18.8c-2.4-6.1-5.1-12.2-8-18.2
				c-2.9-6-6-11.8-9.7-17.2c-3.7-5.4-8.2-10.3-13.5-13.9c-5.4-3.6-11.7-5.5-18.1-6.4c-6.5-0.9-13.1-0.9-19.7-1
				c-3.3,0-6.7-0.2-10-0.4c-1.7-0.1-3.3-0.2-5-0.3c-1.7-0.2-3.3-0.3-5-0.5c-26.4-2.8-52-10.6-74.7-22.3c-22.8-11.7-43-27-59.2-44.7
				c-1-1.1-2-2.2-3.1-3.3c-1-1.1-2-2.2-2.9-3.4c-1.9-2.3-3.8-4.5-5.6-6.8c-3.7-4.5-7.3-9.1-10.9-13.4c-7.3-8.7-14.7-16.9-23.2-23.4
				c-1-0.8-2.1-1.6-3.2-2.3c-0.5-0.4-1.1-0.8-1.6-1.1c-0.6-0.3-1.1-0.7-1.7-1c-2.2-1.4-4.4-2.7-6.8-3.6c-2.3-0.9-4.7-1.5-7.1-1.4
				c-1.2,0-2.3,0.2-3.4,0.6c-1.1,0.4-2,1-2.9,1.7c-1.8,1.4-3,3.4-3.9,5.6c-0.9,2.2-1.5,4.5-1.9,6.8c-0.7,4.7-1,9.4-1,14
				c0.1,9.2,1.7,17.9,4,25.9c2.3,8,5.4,15.4,8.6,22c1.6,3.3,3.3,6.5,5,9.5c1.7,3,3.4,5.9,5.1,8.6c3.4,5.4,6.8,10.3,9.9,14.5
				c6.3,8.6,11.5,15,15.1,19.3c1.8,2.1,3.3,3.7,4.2,4.8c1,1.1,1.5,1.6,1.5,1.6s0.5,0.6,1.5,1.6c1,1,2.5,2.6,4.6,4.5
				c4.1,3.8,10.4,9.2,19.5,14.5c4.6,2.6,9.8,5.2,15.8,7.6c5.9,2.4,12.5,4.5,19.7,6.4c7.2,1.9,15,3.5,23.3,4.9
				c8.3,1.4,17.1,2.6,26.3,3.9c9.2,1.3,18.9,2.7,28.8,4.6c9.9,1.9,20.2,4.4,30.4,8c5.1,1.8,10.2,4,15.2,6.5c5,2.5,9.9,5.4,14.6,8.7
				c4.7,3.3,9.2,7.1,13.4,11.3c4.1,4.2,8,8.9,11.1,14.1c1.6,2.6,3,5.3,4.3,8.1c0.7,1.4,1.3,2.8,1.8,4.3c0.5,1.5,0.9,3.1,1.1,4.7
				c0.2,1.6,0.1,3.4-0.4,5c-0.5,1.7-1.5,3.2-2.6,4.4c-1.2,1.2-2.6,2.2-4,3c-1.4,0.8-2.9,1.4-4.3,2c-11.6,4.6-23.6,8.5-36,11.6
				c-24.9,6.1-51.2,8.7-77.7,7.3c-13.2-0.7-26.5-2.4-39.6-5.1c-0.8-0.1-1.6-0.3-2.5-0.5l-2.4-0.6l-4.9-1.1c-3.3-0.8-6.5-1.7-9.7-2.7
				c-3.2-1.1-6.4-2.3-9.4-3.9c-3-1.6-5.9-3.5-8.5-5.8c-2.6-2.3-4.8-4.9-6.9-7.5c-2.1-2.7-4-5.4-5.9-8.1l-2.9-4.1
				c-1-1.4-1.9-2.7-2.9-4.1c-1.9-2.8-3.7-5.5-5.6-8.3c-7.3-11.1-14.1-22.5-20.5-34c-6.3-11.6-12.1-23.3-17.5-35
				c-5.3-11.8-10.1-23.7-14.4-35.5c-4.3-11.9-8.1-23.7-11.4-35.5c-0.8-2.9-1.6-5.9-2.4-8.8c-0.4-1.5-0.8-2.9-1.2-4.4
				c-0.3-1.5-0.7-2.9-1-4.4c-0.7-2.9-1.4-5.8-2.1-8.7c-0.7-2.9-1.3-5.8-1.9-8.6c-1.2-5.8-2.2-11.5-2.7-17.3
				c-0.5-5.8-0.4-11.5,0.4-17.2c0.1-0.7,0.2-1.4,0.4-2.1c0.1-0.7,0.2-1.4,0.4-2.1c0.2-0.7,0.3-1.4,0.5-2.1c0.2-0.7,0.4-1.4,0.6-2.1
				c0.9-2.7,2.3-5.3,4-7.5c1.7-2.3,3.8-4.2,6.2-5.8c0.3-0.2,0.6-0.4,0.9-0.5l0.9-0.5c0.6-0.4,1.3-0.6,1.9-0.9c0.3-0.1,0.6-0.3,1-0.4
				l0.8-0.2l0.1,0c0.6-0.2,1.1-0.4,1.6-0.4c1-0.2,1.8-0.3,2.4-0.3c2.1-0.1,3.7,0.1,5.1,0.6c0.7,0.3,1.4,0.5,2.1,0.9
				C133.5,87.9,134.2,88.3,134.9,88.7z"/>
		</g>
		<g>
			<path d="M199.3,347c-0.7,3.3-1.2,5.4-2.8,8.9c-5.3,11.2-21.2,44.7-35.7,75.5c-9.6,20.3-18.8,39.7-25.6,54
				c-1.7,3.6-3.2,6.8-4.6,9.7c-0.7,1.4-1.3,2.8-1.9,4c-0.1,0.3-0.3,0.6-0.4,0.9c-0.1,0.1-0.2,0.3-0.2,0.4c0,0.1-0.1,0.2-0.1,0.3
				c-0.1,0.4-0.1,0.8-0.1,1.2c0.1,0.8,0.6,1.3,1,1.6c0.2,0.1,0.5,0.2,0.7,0.3c0.2,0.1,0.4,0,0.5,0c0.6-0.1,1-0.6,1-0.6
				c0,0,0.4-0.3,1-1.2c0.7-0.9,1.7-2.4,2.9-4.3c2.5-3.7,6.1-9.2,10.4-15.8c1.1-1.7,2.2-3.4,3.3-5.2c1.1-1.8,2.3-3.7,3.5-5.6
				c2.4-3.9,4.9-8.1,7.5-12.4c5.2-8.7,10.6-18.2,15.9-28.1c5.4-9.9,10.6-20.1,15.5-30.1c2.5-5,4.8-10,7-14.8
				c1.1-2.4,2.2-4.8,3.3-7.2c0.5-1.2,1.1-2.3,1.6-3.5c0.5-1.1,0.9-2.1,1.4-3.2c1-2.3,1.9-4.2,2.3-5.2c1.5-3.5,2.8-5.4,4.8-8.1
				c-0.5,3.3-1,5.5-2.4,9c-0.4,1-1.2,2.9-2.3,5.2c-0.5,1.1-0.9,2.1-1.4,3.2c-0.5,1.2-1,2.3-1.6,3.5c-1.1,2.4-2.2,4.8-3.3,7.2
				c-2.3,4.9-4.6,9.9-7.1,14.9c-4.9,10.1-10.1,20.3-15.5,30.2c-5.4,9.9-10.8,19.4-16,28.2c-2.6,4.3-5.1,8.5-7.6,12.4
				c-1.2,2-2.4,3.8-3.5,5.7c-1.2,1.8-2.3,3.6-3.3,5.2c-4.3,6.7-7.9,12.1-10.4,15.9c-1.3,1.9-2.2,3.3-3,4.4c-0.8,1.1-1.4,1.6-1.4,1.6
				s-0.1,0.1-0.5,0.4c-0.3,0.2-0.9,0.6-1.8,0.8c-0.4,0.1-1,0.1-1.5,0c-0.5-0.1-1-0.3-1.5-0.6c-1-0.6-1.9-1.8-2.2-3.3
				c-0.1-0.7-0.1-1.6,0.1-2.3c0.1-0.2,0.1-0.4,0.2-0.6c0.1-0.2,0.1-0.3,0.2-0.5c0.1-0.3,0.3-0.6,0.4-0.9c0.6-1.2,1.2-2.6,1.9-4
				c1.4-2.9,2.9-6.1,4.6-9.7c6.8-14.3,15.9-33.7,25.5-54c14.6-30.8,30.4-64.3,35.7-75.5C195.9,351.3,197.2,349.6,199.3,347z"/>
		</g>
		<g>
			<path d="M364.8,363.1c1.8,2.8,3,4.7,4.3,8.3c0.2,0.5,0.4,1.2,0.7,2.2c0.2,0.5,0.3,1,0.5,1.5c0.3,0.8,0.5,1.6,0.8,2.4
				c0.3,0.9,0.6,1.8,0.9,2.8c0.6,1.9,1.3,3.8,1.9,5.8c5.1,15.8,10.7,34.6,15.2,52.8c4.6,18.2,8.3,35.7,10.7,48.7
				c0.3,1.6,0.6,3.1,0.9,4.6c0.3,1.4,0.7,2.7,1.2,3.6c0.3,0.5,0.6,0.9,0.9,1.3c0.4,0.3,0.7,0.6,1.1,0.8c0.8,0.4,1.5,0.4,2.1,0.3
				c0.6-0.2,1-0.5,1.3-0.9c0.2-0.4,0.3-0.8,0.4-1.2c0-0.4,0-0.7,0-0.9c0-0.2,0-0.3,0-0.3s-0.2-2.1-0.7-5.8c-0.2-1.9-0.5-4.1-0.9-6.8
				c-0.2-1.3-0.4-2.7-0.6-4.2c-0.2-1.5-0.4-3-0.7-4.7c-1.9-13-4.9-30.6-8.5-48.9c-1.8-9.2-3.7-18.5-5.6-27.6
				c-1.9-9-3.7-17.8-5.4-25.8c-0.5-2.5-0.9-4.5-1.1-5.6c-0.8-3.8-0.8-6-0.6-9.3c1.4,3,2.3,5.1,3.1,8.8c0.2,1,0.6,3.1,1.2,5.6
				c1.7,8,3.5,16.8,5.4,25.8c1.9,9.1,3.8,18.5,5.6,27.7c3.6,18.4,6.7,36,8.5,49.1c0.2,1.6,0.5,3.2,0.7,4.7c0.2,1.5,0.4,2.9,0.6,4.2
				c0.4,2.6,0.6,4.9,0.9,6.8c0.4,3.8,0.7,5.9,0.7,5.9s0,0.1,0,0.4c0,0.3,0,0.7,0,1.3c-0.1,0.6-0.2,1.4-0.8,2.3
				c-0.6,0.9-1.5,1.6-2.7,2c-1.2,0.3-2.6,0.2-3.9-0.4c-0.7-0.3-1.2-0.8-1.8-1.3c-0.5-0.5-1-1.1-1.4-1.8c-0.8-1.3-1.2-2.8-1.5-4.4
				c-0.3-1.5-0.6-3-0.9-4.7c-2.4-12.9-6-30.4-10.6-48.5c-4.5-18.1-10.1-36.9-15.2-52.6c-0.7-2-1.3-3.9-1.9-5.8
				c-0.3-0.9-0.6-1.9-0.9-2.8c-0.3-0.8-0.5-1.6-0.8-2.4c-0.2-0.5-0.4-1-0.5-1.5c-0.3-0.9-0.6-1.7-0.7-2.2
				C365.5,368.6,365.1,366.4,364.8,363.1z"/>
		</g>
		<g>
			<path d="M394.5,356.6c1.7,2.9,2.8,4.8,3.9,8.5c0.6,1.9,1.8,5.8,3.3,10.6c3.1,9.9,6.8,21.6,10.5,32.7c3.7,11.1,7.2,21.7,10.1,29.4
				c0.7,1.9,1.4,3.7,2,5.2c0.3,0.7,0.6,1.4,0.9,2c0.1,0.3,0.3,0.6,0.4,0.8c0.1,0.1,0.1,0.2,0.2,0.3c0,0,0,0,0,0c0,0,0,0,0.1,0
				c0.1,0,0.2,0.1,0.3,0.1c0.2,0.1,0.4,0.1,0.6,0.1c0.3,0,0.6,0,0.9,0c0.5-0.1,0.7-0.2,0.7-0.2s0,0,0.1,0c0,0,0.1,0,0.2-0.1
				c0,0,0,0.1,0-0.1c0-0.6-0.1-1.4-0.3-2.4c-0.1-0.7-1-6-2.6-13.9c-1.6-7.8-3.9-18.2-6.2-28.9c-1.2-5.4-2.3-10.9-3.4-16.2
				c-0.5-2.7-1.1-5.3-1.6-7.9c-0.2-1.3-0.5-2.5-0.7-3.8c-0.1-0.8-0.3-1.6-0.4-2.4c-0.4-2.4-0.7-4.3-0.9-5.3
				c-0.3-1.9-0.4-3.5-0.3-4.9c0-0.7,0.1-1.5,0.2-2.2c0.1-0.7,0.3-1.5,0.6-2.3c0.1,0.8,0.3,1.5,0.5,2.2c0.2,0.7,0.4,1.4,0.6,2.1
				c0.4,1.4,0.7,2.8,1,4.7c0.2,1,0.5,2.9,0.9,5.2c0.1,0.8,0.3,1.6,0.4,2.4c0.2,1.2,0.5,2.5,0.7,3.8c0.5,2.5,1,5.2,1.6,7.8
				c1.1,5.3,2.2,10.8,3.4,16.2c2.3,10.7,4.6,21.1,6.2,28.9c1.6,7.9,2.6,13.3,2.6,14c0.2,1.1,0.3,2,0.3,2.7c0,0.1,0,0.5,0,0.7
				c0,0.3-0.1,0.5-0.2,0.7c-0.1,0.2-0.2,0.4-0.3,0.5c-0.1,0.1-0.1,0.1-0.2,0.2c-0.1,0-0.1,0.1-0.2,0.1c-0.3,0.1-0.5,0.3-0.6,0.3
				c-0.1,0-0.2,0.1-0.2,0.1c-0.1,0-0.1,0-0.1,0s-0.1,0-0.3,0.1c-0.2,0.1-0.5,0.1-0.9,0.2c-0.4,0.1-0.9,0.1-1.5,0
				c-0.3,0-0.6-0.1-0.9-0.2c-0.2,0-0.3-0.1-0.5-0.1c-0.2-0.1-0.5-0.1-0.7-0.3c-0.1-0.1-0.2-0.2-0.3-0.3c-0.1-0.1-0.2-0.2-0.3-0.3
				c-0.1-0.2-0.2-0.3-0.3-0.5c-0.2-0.3-0.4-0.7-0.5-1c-0.3-0.7-0.6-1.4-1-2.2c-0.7-1.6-1.3-3.3-2.1-5.3c-2.9-7.8-6.5-18.4-10.2-29.5
				c-3.7-11.1-7.4-22.8-10.5-32.7c-1.5-4.7-2.7-8.6-3.3-10.6C394.8,362.2,394.6,360,394.5,356.6z"/>
		</g>
		<g>
			<path d="M219.9,360.5c-0.7,1.5-1.1,2.8-1.6,4.1c-0.5,1.3-1.2,2.7-2.1,4.4c-0.2,0.5-0.6,1.1-1.1,2c-0.7,1.3-1.5,2.8-2.3,4.5
				c-2.2,4.4-4.8,9.6-7.3,14.6c-4.9,10-9.3,19.2-9.3,19.2s-2.6,5.4-6,12.4c-3.4,7-7.4,15.4-10.6,21.4c-0.7,1.3-1.3,2.4-1.8,3.2
				c-0.3,0.4-0.5,0.8-0.7,1.1c-0.2,0.3-0.4,0.6-0.7,0.9c-0.1,0.1-0.2,0.2-0.3,0.2l-0.2,0.1c-0.1,0.1-0.2,0.1-0.4,0.2
				c-0.2,0.1-0.5,0.2-0.8,0.3c-0.3,0.1-0.6,0.1-0.9,0.2c-0.2,0-0.3,0-0.5,0c-0.2,0-0.3,0-0.5-0.1c-0.2,0-0.3-0.1-0.5-0.2
				c-0.1-0.1-0.3-0.2-0.4-0.3c-0.3-0.2-0.4-0.4-0.6-0.6c-0.3-0.4-0.5-0.9-0.6-1.3c-0.2-0.8-0.3-1.6-0.2-2.4c0.1-0.8,0.2-1.5,0.4-2.3
				c0.2,0.8,0.4,1.5,0.7,2.2c0.2,0.7,0.5,1.3,0.8,1.8c0.2,0.3,0.3,0.4,0.5,0.6c0.2,0.1,0.3,0.2,0.4,0.2c0,0,0.2,0,0.2,0
				c0.1-0.1,0.2-0.1,0.3-0.1c0.1-0.1,0.3-0.1,0.4-0.2l0.2-0.1l0.1-0.1l0,0l0,0l0,0c0.2,0.2-0.4-0.6,0.4,0.6l-0.1-0.1
				c-0.1-0.1-0.1-0.2-0.2-0.2l-0.1-0.1c0,0-0.1-0.1-0.1-0.1l0,0c0,0,0.2-0.2,0.4-0.5c0.2-0.3,0.4-0.6,0.6-1c0.5-0.8,1-1.8,1.7-3.1
				c3.1-5.9,7.2-14.3,10.6-21.3c3.3-7,6-12.4,6-12.4s4.4-9.1,9.3-19.2c2.4-5,5-10.3,7.3-14.7c0.6-1.1,1.1-2.1,1.6-3.1
				c0.3-0.5,0.5-1,0.7-1.4c0.5-0.9,0.8-1.6,1.1-2c0.9-1.7,1.8-3,2.7-4.1C217.6,362.6,218.6,361.5,219.9,360.5z"/>
		</g>
	</g>
	<g>
		<path d="M383.3,305.2c3.3,1.4,5.7,2.2,9.9,2.5c0.7,0.1,1.9,0.2,4.3,0.2c1.5,0.1,4,0.1,6.2,0.1c2.1,0,3.9-0.1,3.9-0.1
			s1.5-0.1,3.4-0.2c1.9-0.1,4.2-0.3,5.8-0.6c1.6-0.2,2.8-0.3,3.8-0.4c1-0.1,1.7-0.1,2.2,0c2,0,3.5,0.2,4.8,0.5
			c0.4,0.1,0.7,0.2,1,0.3c0.3,0.2,0.7,0.3,1,0.5c0.7,0.3,1.2,0.9,1.8,1.6c-0.3-1.8-1.4-3.3-3-4.2c-1.5-0.9-3.3-1.4-5.6-1.4
			c-0.6,0-1.3,0-2.4,0c-1.1,0.1-2.4,0.2-4,0.4c-1.6,0.2-3.8,0.4-5.7,0.6c-1.8,0.1-3.3,0.2-3.3,0.2s-1.7,0.1-3.8,0.1
			c-2.1,0-4.6,0-6-0.1c-2.4-0.1-3.5-0.2-4.2-0.2C389.2,304.6,386.9,304.8,383.3,305.2z"/>
	</g>
</g>
</svg>
