<?xml version="1.0" encoding="utf-8"?>
<!-- Generator: Adobe Illustrator 27.5.0, SVG Export Plug-In . SVG Version: 6.00 Build 0)  -->
<svg version="1.1" id="Capa_1" xmlns="http://www.w3.org/2000/svg" xmlns:xlink="http://www.w3.org/1999/xlink" x="0px" y="0px"
	 viewBox="0 0 566.9 566.9" style="enable-background:new 0 0 566.9 566.9;" xml:space="preserve">
<style type="text/css">
	.st0{fill:#FFFFFF;}
</style>
<g>
	<g>
		<path class="st0" d="M294.5,473c-5,0-10-2-13.6-6l-60.2-66.9c-6.7-7.5-6.1-19,1.4-25.8c7.5-6.7,19-6.1,25.8,1.4l60.2,66.9
			c6.7,7.5,6.1,19-1.4,25.8C303.2,471.5,298.8,473,294.5,473z"/>
	</g>
	<g>
		<path class="st0" d="M294.4,473c-4.3,0-8.7-1.5-12.2-4.7c-7.5-6.7-8.1-18.3-1.4-25.8l60.2-66.9c6.7-7.5,18.3-8.1,25.8-1.4
			c7.5,6.7,8.1,18.3,1.4,25.8L308,467C304.4,471,299.4,473,294.4,473z"/>
	</g>
</g>
<g>
	<path class="st0" d="M298.9,367.9H278c-45,0-81.5-36.6-81.5-81.5v-96c0-45,36.6-81.5,81.5-81.5h20.9c45,0,81.5,36.6,81.5,81.5v96
		C380.5,331.4,343.9,367.9,298.9,367.9z M278,136.3c-29.9,0-54.2,24.3-54.2,54.2v96c0,29.9,24.3,54.2,54.2,54.2h20.9
		c29.9,0,54.2-24.3,54.2-54.2v-96c0-29.9-24.3-54.2-54.2-54.2H278z"/>
</g>
<circle class="st0" cx="288.5" cy="283.7" r="25.1"/>
</svg>
