<?xml version="1.0" encoding="utf-8"?>
<!-- Generator: Adobe Illustrator 27.5.0, SVG Export Plug-In . SVG Version: 6.00 Build 0)  -->
<svg version="1.1" id="Capa_1" xmlns="http://www.w3.org/2000/svg" xmlns:xlink="http://www.w3.org/1999/xlink" x="0px" y="0px"
	 viewBox="0 0 566.9 566.9" style="enable-background:new 0 0 566.9 566.9;" xml:space="preserve">
<style type="text/css">
	.st0{fill:#724C34;}
	.st1{fill:#382821;}
	.st2{fill:#F5C298;}
	.st3{fill:#BB927D;}
	.st4{fill:#1D1D1D;}
	.st5{fill:#1D1E1D;}
</style>
<path class="st0" d="M22.6,246.3c-1.6,2.7-1.4,6.1-1.2,9.2c2.3,36.8,10.4,75.5,35.5,102.4c3.3,3.5,8.3,10.9,12.7,12.9
	c4.7,2.1,9.8,2.3,14.9,2.7c133.6,9.8,266.4,15.7,400.2,9c3.4-0.2,7.1-0.4,9.8-2.4c2.7-1.9,4-5.1,5.3-8.2
	c10.1-25,19.3-50.4,27.5-76.1c4.3-13.4,7.6-30-2.4-39.8c-3.9-3.8-9.5-6.3-11.2-11.4c-1.4-4.2,0.4-8.7,2-12.8
	c5-13.2,7.6-27.2,7.9-41.2c0.1-5-0.3-10.5-3.6-14.2c-2.4-2.7-6-4.1-9.4-5.3c-28.4-9.7-58.7-12.1-88.7-13
	c-29.3-0.9-58.6-0.6-87.9-1.3c-90.5-2.3-181.9-14.9-271.1,0.8c-3.9,0.7-8.1,1.6-10.5,4.7c-1.8,2.3-2.3,5.3-2.6,8.2
	c-1,9.4-0.6,18.9,1.1,28.2c1.2,6.8,5.3,14.9,4.9,21.8C54.4,237.9,29.9,233.6,22.6,246.3z"/>
<path class="st1" d="M237.2,312.4c57.6-0.4,115.1-0.8,172.7-1.2c28.5-0.2,57.1-0.4,85.5,1.6c9.4,0.7,21.4,4,22.1,13.4
	c0.2,3.2-1,6.3-2.4,9.2c-6.2,13.5-14.2,26.2-23.7,37.6c-2.2,2.6-4.5,5.2-7.6,6.8c-3.7,1.9-8,2-12.1,2.1
	c-125.4,2.5-250.8,1.7-376.2,0.9c-3.6,0-7.4-0.1-10.4-2c-2.6-1.7-4.2-4.5-5.7-7.3c-4.3-8.2-8.1-16.7-11.3-25.4
	c-3.6-9.7-6.6-25.5,6.1-30.3c3.3-1.3,6.9-0.3,10.4-0.3c6.5,0.1,13-0.9,19.5-1.4c28.3-2.1,56.7-2.9,85.1-3.4
	C205.2,312.6,221.2,312.5,237.2,312.4z"/>
<path class="st2" d="M148.5,408.9c0.3,3.8,0.7,7.7,0.3,11.5c0,0.2-0.1,0.5-0.2,0.7c-0.2,0.2-0.4,0.3-0.7,0.3
	c-2.1,0.4-4.3,0.5-6.4,0.4c-0.3,0-0.6-0.1-0.9-0.2c-0.3-0.2-0.6-0.6-0.7-0.9c-1.2-2.4-2-5-2.7-7.6c-2.8-10.4-5.3-21.1-5.5-31.9
	c0-1.7,0.1-3.6,1.5-4.5c0.8-0.5,1.8-0.5,2.8-0.5c3,0,6-0.2,9,0c2.7,0.2,2.6,1.7,2.6,4.1c0,6.1,0.1,12.2,0.3,18.3
	C148.1,401.9,148.3,405.4,148.5,408.9z"/>
<path class="st2" d="M89.8,395.8c-2.9,6.8-6,12.5-8.1,19.6c-2.1,7.3-5.9,15.3-6.7,22.9c-0.1,0.7-0.1,1.5,0.3,2.2
	c0.5,0.8,1.5,1.1,2.4,1.2c3.5,0.5,7.1-0.5,9.9-2.7c2.8-2.2,4.6-5.5,6.2-8.8c6.9-14.6,10.6-30.5,17.5-45c2-4.2,4.2-8.2,5.9-12.5
	c0.4-0.9,0.7-1.8,0.4-2.8c-0.3-1-1.3-1.7-2.2-2.2c-2.4-1.3-7.6-3.7-10-2.1c-2.7,1.8-5.1,6.9-7,9.5C94.1,381.4,92.8,388.7,89.8,395.8
	z"/>
<path class="st2" d="M423.1,408.9c-0.3,3.8-0.7,7.7-0.3,11.5c0,0.2,0.1,0.5,0.2,0.7c0.2,0.2,0.4,0.3,0.7,0.3
	c2.1,0.4,4.3,0.5,6.4,0.4c0.3,0,0.6-0.1,0.9-0.2c0.3-0.2,0.6-0.6,0.7-0.9c1.2-2.4,2-5,2.7-7.6c2.8-10.4,5.3-21.1,5.5-31.9
	c0-1.7-0.1-3.6-1.5-4.5c-0.8-0.5-1.8-0.5-2.8-0.5c-3,0-6-0.2-9,0c-2.7,0.2-2.6,1.7-2.6,4.1c0,6.1-0.1,12.2-0.3,18.3
	C423.5,401.9,423.4,405.4,423.1,408.9z"/>
<path class="st2" d="M481.8,395.8c2.9,6.8,6,12.5,8.1,19.6c2.1,7.3,5.9,15.3,6.7,22.9c0.1,0.7,0.1,1.5-0.3,2.2
	c-0.5,0.8-1.5,1.1-2.4,1.2c-3.5,0.5-7.1-0.5-9.9-2.7c-2.8-2.2-4.6-5.5-6.2-8.8c-6.9-14.6-10.6-30.5-17.5-45c-2-4.2-4.2-8.2-5.9-12.5
	c-0.4-0.9-0.7-1.8-0.4-2.8c0.3-1,1.3-1.7,2.2-2.2c2.4-1.3,7.6-3.7,10-2.1c2.7,1.8,5.1,6.9,7,9.5
	C477.5,381.4,478.8,388.7,481.8,395.8z"/>
<path class="st3" d="M430.7,229.9c1,12.8,2,25.7,5.8,38c1.3,4.2,3.1,8.5,6.4,11.5c3.3,3,8.4,4.4,12.2,2.2c4.8-2.7,5.6-9.1,5.8-14.6
	c0.4-16.9-0.9-33.9-3.7-50.6c-1.7-10-4.4-20.6-11.8-27.5c-3-2.8-8.4-5.9-12.6-3.7c-3.2,1.6-2.9,5.5-3.1,8.6
	C429.1,205.9,429.8,217.9,430.7,229.9z"/>
<path class="st3" d="M160,248.2c3.9,10.9,7.8,22,13.6,31.9c2,3.4,4.3,6.8,7.4,8.7c3.1,1.9,7.1,2.1,9.3-0.6c2.8-3.3,1.8-9.1,0.5-13.9
	c-3.9-14.8-9.1-29.3-15.3-43.2c-3.7-8.4-8.2-17-15.3-21.5c-2.9-1.8-7.5-3.4-10-0.7c-1.8,2.1-0.7,5.4-0.1,8.1
	C152.8,227.6,156.4,237.9,160,248.2z"/>
<g>
	<g>
		<path class="st4" d="M541.9,263.4c-0.1-2.4-0.5-4.9-1.2-7.3c-0.8-2.4-1.8-4.6-3.4-6.6c-0.4-0.5-0.8-1-1.2-1.4
			c-0.2-0.2-0.4-0.5-0.7-0.7l-0.7-0.6c-0.9-0.8-1.9-1.6-2.9-2.3c-2-1.4-4.2-2.6-6.4-3.6c-2.2-1-4.5-1.9-6.7-2.7
			c-1.1-0.4-2.2-0.8-3.3-1.3c-0.5-0.2-1-0.5-1.4-0.8c-0.2-0.1-0.3-0.3-0.4-0.4l-0.4-0.7c-0.6-1-1.1-2-1.4-3.1
			c-0.2-0.5-0.3-1.1-0.5-1.6c-0.1-0.3-0.1-0.6-0.2-0.8c-0.1-0.3-0.1-0.6-0.2-0.8c-0.4-2.3-0.5-4.6-0.5-6.9c0-2.3,0.2-4.6,0.5-6.9
			c0.2-2.3,0.5-4.6,0.7-6.9c0.5-4.6,0.9-9.2,1-13.7c0.1-4.6-0.2-9.1-1.2-13.5c-1-4.4-2.8-8.6-5.5-12c-0.2-0.2-0.3-0.4-0.5-0.6
			l-0.5-0.6c-0.2-0.2-0.4-0.4-0.5-0.6l-0.6-0.6c-0.8-0.8-1.6-1.5-2.4-2.1c-1.7-1.3-3.5-2.4-5.4-3.4c-1.9-1-3.7-1.8-5.6-2.5
			c-0.5-0.2-0.9-0.4-1.4-0.5c-0.5-0.2-1-0.3-1.4-0.5c-1-0.3-1.9-0.6-2.9-0.8c-3.8-1-7.6-1.7-11.3-2.3c-1.8-0.3-3.6-0.6-5.4-0.8
			c-1.8-0.2-3.5-0.5-5.3-0.7c-6.9-0.8-13.4-1.4-19.3-1.8c-11.8-0.9-21.3-1.4-27.9-1.7c-3.3-0.1-5.9-0.2-7.6-0.3
			c-1.7-0.1-2.6-0.1-2.6-0.1s-1.4-0.1-4-0.1c-2.6-0.1-6.5-0.2-11.4-0.4c-9.8-0.3-24-0.6-41.2-0.7c-34.4-0.3-81,0.1-129.8,1.5
			c-24.4,0.7-49.3,1.7-73.6,3c-12.1,0.7-24.1,1.5-35.6,2.5c-5.8,0.5-11.5,1.1-17.1,2c-1.4,0.2-2.8,0.5-4.2,0.8
			c-1.4,0.3-2.7,0.7-4.1,1.1c-1.3,0.4-2.7,1-3.9,1.6c-1.3,0.7-2.4,1.5-3.5,2.5c-1,1-1.9,2.2-2.6,3.4c-0.7,1.2-1.2,2.5-1.6,3.8
			c-0.4,1.3-0.8,2.6-1.1,3.8c-0.3,1.3-0.7,2.5-1,3.8c-1.3,5-2.4,9.9-3.1,14.7c-0.3,2.4-0.6,4.8-0.7,7.2c-0.1,1.2,0,2.4,0,3.5
			c0,0.6,0.1,1.2,0.1,1.7c0,0.6,0.1,1.2,0.1,1.7c0.1,0.6,0.1,1.1,0.2,1.7l0.1,0.4l0.1,0.4c0.1,0.3,0.1,0.6,0.2,0.8
			c0.1,0.6,0.2,1.1,0.3,1.6c0.1,0.5,0.3,1.1,0.4,1.6c0.1,0.3,0.1,0.5,0.2,0.8c0.1,0.3,0.2,0.5,0.3,0.8c0.2,0.5,0.4,1,0.5,1.5
			c0.4,1,0.8,2,1.1,2.9c0.3,0.9,0.6,1.9,0.7,2.8c0.1,0.5,0.1,0.9,0,1.3c0,0.2-0.1,0.4-0.1,0.6c-0.1,0.2-0.1,0.4-0.2,0.6
			c-0.5,1.6-1.8,2.9-3.3,3.9c-0.7,0.5-1.5,1-2.2,1.4c-0.8,0.4-1.6,0.8-2.3,1.2c-1.6,0.7-3.1,1.4-4.6,2c-3,1.2-5.8,2.3-8.4,3.3
			c-2.6,1.1-4.9,2.1-6.8,3.2c-1.8,1-3.6,2.1-5.2,3.3c-0.8,0.6-1.6,1.3-2.3,2c-0.4,0.3-0.7,0.7-1.1,1.1c-0.3,0.4-0.7,0.7-1,1.1
			c-2.5,3.1-4.3,6.7-5.3,10.3c-1,3.6-1.5,7.3-1.6,10.9c-0.1,3.6,0.1,7.1,0.5,10.4c0.1,0.8,0.2,1.7,0.3,2.5c0.1,0.8,0.2,1.7,0.4,2.5
			c0.2,1.7,0.6,3.3,0.9,4.9c0.7,3.2,1.6,6.3,2.6,9.4c1,3,2.1,6,3.3,8.8l0.5,1.1l0.5,1.1c0.3,0.7,0.6,1.4,1,2.1
			c0.7,1.4,1.3,2.8,2,4.1c1.4,2.7,2.8,5.4,4.3,8c1.5,2.6,3.1,5.2,4.7,7.7c3.2,5.1,6.6,10,10.2,15c3.6,5,7.3,9.9,11.1,15
			c2.9,3.8,5.8,7.7,8.8,11.7c0.2,0.9,0.5,1.7,0.9,2.5c0.8,1.5,2.1,2.9,3.6,3.7c0.8,0.4,1.6,0.8,2.5,1c0.4,0.1,0.9,0.2,1.3,0.2
			c0.4,0,0.8,0.1,1.2,0.1c1.6,0.1,3.3,0.2,5,0.3c3,0.2,6.1,0.4,9.2,0.6c-2.9,5.7-5,10-8.1,17.3c-1.6,3.8-6.1,14.3-10.3,24.2
			c-1.1,2.5-2.1,5-3.1,7.3c-1,2.3-1.9,4.5-2.7,6.4c-0.8,2-1.3,3.8-1.5,5.2c-0.2,1.4-0.2,2.5-0.1,3l0,0.2l0.1,0.2
			c0.5,0.7,1.1,1.1,1.6,1.5c0.6,0.3,1.1,0.5,1.5,0.6c0.9,0.2,1.6,0.2,2,0.2c0.5,0,0.7-0.1,0.9-0.1c0.2,0,0.2,0,0.2,0s0.2,0,0.6-0.1
			c0.2-0.1,0.4-0.1,0.7-0.2c0.3-0.1,0.6-0.2,0.9-0.4c0.6-0.3,1.4-0.8,2.1-1.5c0.7-0.7,1.4-1.5,2-2.5c0.6-1,1.2-2.1,1.8-3.3
			c0.6-1.2,1.2-2.4,1.8-3.7c1.2-2.6,2.6-5.4,3.9-8.2c5.5-11.4,11.4-23.9,13.4-28c3.4-7,5.2-11.4,7.5-17.2c2.1,0.1,4.2,0.2,6.3,0.3
			c3.5,0.1,7,0.3,10.6,0.5c0.6,0,1.1,0,1.7,0.1c0,1.5,0,2.8,0.1,4.2c0.1,1.9,0.3,3.8,0.7,6.3c0.4,2.7,1.7,10.7,3.2,18
			c0.4,1.8,0.7,3.6,1.1,5.3c0.2,0.8,0.4,1.6,0.5,2.4c0.1,0.4,0.2,0.7,0.3,1.1c0.1,0.4,0.2,0.7,0.4,1.1c0,0.1,0.1,0.2,0.1,0.3
			c0.1,0.1,0.1,0.2,0.1,0.2c0.1,0.2,0.2,0.3,0.3,0.4c0.2,0.3,0.4,0.5,0.7,0.7c0.4,0.4,0.9,0.7,1.3,0.9c0.4,0.2,0.7,0.3,0.9,0.4
			c0.2,0.1,0.3,0.1,0.3,0.1s0,0,0.1,0c0.1,0,0.3,0.1,0.5,0.1c0.1,0,0.3,0.1,0.5,0c0.1,0,0.2,0,0.4,0c0.1,0,0.3,0,0.4,0
			c0.6-0.1,1.4-0.4,2.2-1.1l0.2-0.2l0-0.3c0-0.5,0.1-2.3,0.1-4.7c0-2.4,0-5.5-0.1-8.7c-0.1-3.2-0.2-6.4-0.3-9.2
			c-0.1-2.7-0.1-5-0.2-6.2c-0.1-4.4-0.2-7.1-0.5-10.6c5.9,0.2,11.8,0.4,17.9,0.5c7.6,0.2,15.3,0.3,23.3,0.5
			c7.9,0.1,16.1,0.2,24.4,0.4c22.8,0.3,58.7,0.6,105.2,0.6c23.3,0,49.1-0.1,77.4-0.3c7.1-0.1,14.3-0.1,21.6-0.2
			c3.6,0,7.3-0.1,11-0.1c-0.3,3.6-0.4,6.3-0.5,10.9c0,1.2-0.1,3.4-0.2,6.2c-0.1,2.8-0.2,6-0.3,9.2c-0.1,3.2-0.1,6.3-0.1,8.7
			c0,2.4,0.1,4.2,0.1,4.7l0,0.3l0.2,0.2c0.7,0.8,1.6,1,2.2,1.1c0.2,0,0.3,0,0.4,0c0.1,0,0.2,0,0.4,0c0.2,0,0.4,0,0.5,0
			c0.3,0,0.5-0.1,0.5-0.1c0.1,0,0.1,0,0.1,0s0.1,0,0.3-0.1c0.2-0.1,0.5-0.2,0.9-0.4c0.4-0.2,0.8-0.5,1.3-0.9
			c0.2-0.2,0.5-0.4,0.7-0.7c0.1-0.1,0.2-0.3,0.3-0.4c0-0.1,0.1-0.2,0.1-0.2c0-0.1,0.1-0.2,0.1-0.3c0.2-0.4,0.2-0.7,0.4-1.1
			c0.1-0.4,0.2-0.7,0.3-1.1c0.2-0.7,0.4-1.5,0.5-2.4c0.4-1.6,0.7-3.4,1.1-5.3c1.4-7.3,2.7-15.3,3.2-18c0.4-2.5,0.6-4.4,0.7-6.3
			c0.1-1.4,0.1-2.7,0.1-4.2c6.2-0.1,12.4-0.2,18.7-0.3c2.2,5.5,4,9.8,7.3,16.7c2,4.1,8,16.6,13.4,28c1.4,2.9,2.7,5.6,3.9,8.2
			c0.6,1.3,1.2,2.5,1.8,3.7c0.6,1.2,1.2,2.3,1.8,3.3c0.6,1,1.3,1.8,2,2.5c0.7,0.7,1.4,1.2,2.1,1.5c0.3,0.2,0.6,0.3,0.9,0.4
			c0.3,0.1,0.5,0.2,0.7,0.2c0.4,0.1,0.6,0.1,0.6,0.1s0,0,0.2,0c0.2,0,0.4,0.1,0.9,0.1c0.5,0,1.1,0,2-0.2c0.5-0.1,1-0.3,1.5-0.6
			c0.5-0.3,1.1-0.8,1.6-1.5l0.1-0.2l0-0.2c0-0.5,0.1-1.5-0.1-3c-0.2-1.4-0.7-3.2-1.5-5.2c-0.8-2-1.7-4.1-2.7-6.4
			c-1-2.3-2-4.8-3.1-7.3c-4.2-10-8.7-20.5-10.3-24.2c-2.9-6.8-4.9-11-7.5-16.1c1.7-0.1,3.4-0.2,5.1-0.7c1-0.3,2-0.8,3-1.4
			c0.8-0.6,1.5-1.3,2-2.2c0.9-0.4,1.6-1,2.2-1.6c0.7-0.6,1.4-1.3,2-1.9c1.3-1.3,2.5-2.8,3.6-4.3c2.3-3,4.5-6.1,6.7-9.4
			c4.3-6.6,8.6-13.7,12.8-21.1c4.2-7.5,8.3-15.3,12.3-23.5c2-4.1,3.9-8.3,5.7-12.5c0.9-2.1,1.8-4.3,2.6-6.5c0.4-1.1,0.8-2.2,1.1-3.4
			c0.4-1.1,0.6-2.3,1-3.4c1.2-4.5,2.5-9.1,3.4-13.8C541.5,273.1,542.2,268.3,541.9,263.4z M68.5,199.3c0.1-2.3,0.3-4.6,0.6-7
			c0.7-4.7,1.8-9.6,3.1-14.6c0.3-1.2,0.7-2.5,1-3.7c0.3-1.3,0.7-2.5,1.1-3.7c0.8-2.4,1.9-4.8,3.8-6.5c1.8-1.8,4.2-2.9,6.8-3.8
			c1.3-0.4,2.6-0.8,3.9-1.1c1.3-0.3,2.7-0.6,4.1-0.8c5.5-0.9,11.2-1.4,17-2c11.6-1,23.5-1.8,35.6-2.5c24.2-1.4,49.1-2.3,73.5-3
			c48.8-1.5,95.3-1.8,129.7-1.5c17.2,0.1,31.3,0.4,41.2,0.7c4.9,0.1,8.8,0.3,11.4,0.4c2.6,0.1,4,0.1,4,0.1s0.9,0,2.6,0.1
			c1.7,0.1,4.3,0.2,7.6,0.3c6.6,0.3,16.1,0.8,27.9,1.7c5.9,0.4,12.3,1,19.2,1.8c1.7,0.2,3.5,0.4,5.2,0.7c1.8,0.3,3.6,0.5,5.4,0.8
			c3.6,0.6,7.4,1.3,11.1,2.3c0.9,0.3,1.9,0.5,2.8,0.8c0.5,0.2,0.9,0.3,1.4,0.5c0.5,0.2,0.9,0.3,1.4,0.5c1.8,0.7,3.7,1.5,5.5,2.4
			c0.9,0.4,1.7,0.9,2.5,1.4c1.6,2,3,4.2,4.2,6.4c1.5,2.9,2.6,6,3.4,9c1.5,6.2,1.8,12.4,1.6,18.5c-0.2,6.1-0.9,12-1.6,18
			c-0.7,5.9-1.5,11.9-1.8,18c0,0.8-0.1,1.5-0.1,2.3c0,0.8,0,1.5,0,2.3c0,0.8,0,1.5,0,2.3c0,0.8,0.1,1.5,0.1,2.3
			c0.1,3.1,0.2,6.2,0.1,9.3c-0.1,3.1-0.3,6.3-1,9.5c-0.1,0.8-0.4,1.6-0.5,2.4c-0.2,0.8-0.4,1.6-0.7,2.2c-0.6,1.3-1.9,2.3-3.3,3
			c-1.4,0.7-3.1,1.3-4.7,2.1c-0.8,0.4-1.6,0.8-2.4,1.4c-0.8,0.6-1.5,1.2-2,2.1c-0.1,0.2-0.3,0.4-0.4,0.7c-0.1,0.2-0.2,0.5-0.3,0.7
			c-0.2,0.4-0.3,0.8-0.5,1.3c-0.3,0.9-0.6,1.7-0.8,2.6c-0.3,0.9-0.5,1.8-0.7,2.7c-0.2,0.9-0.4,1.8-0.5,2.7
			c-1.2,7.4-1.1,15.2-1.2,23.4c0,1.7-0.1,3.5-0.2,5.5c-0.1,2-0.3,4.2-0.5,6.5c-0.6,4.7-1.6,10.2-4.9,15.7c-1.6,2.8-3.5,5.8-5.3,9.1
			c-0.9,1.7-1.8,3.4-2.6,5.3c-0.8,1.9-1.4,4-1.7,6.2c-0.2,1.8-0.2,3.8,0.2,5.7c-0.8-1.3-1.6-2.7-2.7-3.9c-0.6-0.7-1.3-1.2-2-1.7
			c-0.8-0.5-1.6-0.8-2.4-1.1c-1.7-0.5-3.4-0.6-5-0.6c-1.7,0-3.3,0.1-4.9,0.2c-1.6,0.1-3.3,0.1-4.9,0.2c-3.3,0.1-6.5,0.2-9.8,0.2
			c-6.6,0.1-13.2,0.1-19.8,0.1c-26.6-0.1-53.6-0.6-80.5-1.1c-26.9-0.5-53.6-1-79.6-1.4c-26-0.4-51.2-0.7-75.1-0.6
			c-11.9,0-23.5,0.1-34.7,0.4c-5.6,0.1-11.1,0.3-16.4,0.6c-5.4,0.3-10.6,0.6-15.7,1.1c-2.6,0.3-5.1,0.6-7.6,1.1
			c-1.3,0.3-2.5,0.6-3.7,0.9c-1.2,0.3-2.4,0.6-3.5,0.8c-2.3,0.5-4.7,0.8-6.9,0.5l-0.8-0.1l-0.8-0.2l-0.8-0.2
			c-0.3-0.1-0.5-0.2-0.7-0.3c-1-0.5-1.8-1.1-2.6-1.8c-1.5-1.5-2.6-3.5-2.5-5.4c0-1,0.4-1.9,0.9-2.7c0.5-0.8,1.3-1.5,2.1-2.3
			c0.8-0.8,1.6-1.6,2.1-2.7c0.6-1,0.9-2.2,0.8-3.4c0-1.2-0.3-2.3-0.7-3.3c-0.4-1-0.9-1.9-1.4-2.8c-1-1.8-2.1-3.4-3.1-5
			c-1-1.6-1.9-3.2-2.3-4.8c-0.2-0.8-0.4-1.6-0.4-2.5c0-0.8,0.1-1.6,0.3-2.4c0.4-1.5,1.4-2.8,2.6-3.7c1.2-1,2.6-1.7,4-2.2
			c1.4-0.5,2.8-0.8,4.2-1c1.4-0.2,2.8-0.2,4.1-0.2c0.7,0,1.3,0.1,1.9,0.2c0.6,0.1,1.3,0.2,1.9,0.3c2.5,0.4,4.8,0.8,7,1
			c2.2,0.2,4.1,0.3,5.9,0.1c0.4,0,0.9-0.1,1.3-0.2c0.4-0.1,0.8-0.1,1.2-0.2c0.4-0.1,0.7-0.2,1.1-0.3c0.3-0.1,0.7-0.2,1-0.4
			c0.3-0.1,0.6-0.3,0.9-0.4c0.3-0.1,0.5-0.3,0.8-0.4c0.5-0.3,0.9-0.6,1.2-0.8l1.7-1.1l-2-0.4c-3-0.5-6-0.9-8.9-1.2
			c-2.9-0.2-5.7-0.3-8.2-0.3c-2.6,0-5,0.1-7.1,0.3c-1.1,0.1-2.1,0.2-3,0.3c-0.2,0-0.5,0.1-0.7,0.1c0,0.1,0,0.1,0,0.2
			c0-0.1,0-0.1,0-0.2c0,0,0,0,0,0c0,0,0-0.1,0-0.1c0-0.1,0-0.1,0-0.2c0,0,0,0,0,0c0,0.1,0,0.1,0,0.2c0-0.1,0-0.2,0.1-0.3
			c0-0.1,0.1-0.2,0.1-0.4c0-0.1,0.1-0.3,0.1-0.4c-0.1,0.2-0.1,0.4-0.2,0.7c0.1-0.3,0.1-0.5,0.2-0.8c0,0,0,0,0,0c0,0,0,0,0,0
			c0.2-0.7,0.5-1.3,0.8-1.9c0,0,0,0,0,0c0.2-0.4,0.5-0.8,0.7-1.2c1.1-1.6,2.5-3,4-4.1c1.5-1.2,3.2-2.1,4.9-3c1.5-0.7,3-1.3,4.5-1.8
			c0.1,0,0.1,0,0.2,0.1c1,0.4,2.1,0.5,3.2,0.5c1.1,0,2.2-0.1,3.2-0.3c2.1-0.4,4.2-1.1,6.2-1.7c1-0.3,2.1-0.6,3.1-0.9
			c1.1-0.3,2.1-0.6,3.2-0.8c4.3-1.1,8.7-2,13.3-2.8c0.8-0.1,1.6-0.3,2.4-0.4c1.9-0.1,3.8-0.2,5.6-0.2c6-0.2,11.6-0.1,16.8,0
			c5.2,0.1,10.1,0.3,14.7,0.5c3.9,0.1,7.5,0.3,11,0.4c-0.1,0-0.1,0.1-0.2,0.1c-0.6,0.3-1.2,0.3-1.8,0.1c0.6,0.3,1.3,0.3,1.9,0
			c0.1-0.1,0.2-0.1,0.3-0.2c0.5,0,1,0,1.6,0.1c7.9,0.3,14.5,0.5,20,0.7c22.2,0.8,27.6,1,27.6,1s3.1,0.1,9,0.3
			c2.9,0.1,6.5,0.2,10.8,0.4c1.1,0,2.2,0.1,3.3,0.1c1.1,0.1,2.3,0.2,3.4,0.4c1.2,0.2,2.4,0.5,3.6,0.9c1.2,0.4,2.4,0.9,3.5,1.6
			c1.1,0.7,2.1,1.5,2.8,2.6c0.3,0.5,0.6,1.1,0.7,1.8c0.1,0.5,0.1,1,0,1.5c-2.1,2.1-3.7,4.7-4.4,7.7c0,0.1,0,0.2-0.1,0.3
			c-0.1,0.2-0.2,0.3-0.3,0.5c-1.7,3.1-2.5,6.7-2.4,10.5c0.1,1.9,0.4,3.8,1,5.6c0.1,0.5,0.3,0.9,0.5,1.4l0.2,0.6
			c0.1,0.2,0.1,0.4,0.1,0.6c0.1,0.8,0,1.6-0.3,2.3c-0.2,0.4-0.4,0.7-0.7,1c-0.1,0.2-0.3,0.3-0.4,0.4l-0.5,0.4
			c-0.7,0.6-1.6,1.1-2.4,1.5c-1.7,0.9-3.6,1.5-5.5,2.1c-2,0.5-4,0.9-6.1,1.3c-2.1,0.4-4.2,0.7-6.4,1.1c-2.1,0.4-4.3,0.7-6.5,1
			c-1.1,0.2-2.2,0.3-3.3,0.5c-1.1,0.2-2.2,0.3-3.4,0.5c-2.3,0.3-4.6,0.6-6.9,0.8c-1.2,0.2-2.3,0.3-3.5,0.4c-1.2,0.1-2.4,0.2-3.6,0.4
			c-0.4,0-0.7,0.1-1.1,0.1c-9.9,0.3-19.7,0.3-29.5,0.2c-26.3-0.3-52-1.9-76.5-4.5c-1.5-0.2-3.1-0.3-4.6-0.5c-1.5-0.2-3-0.4-4.6-0.5
			c-0.8-0.1-1.5-0.2-2.3-0.3l-0.6-0.1l-0.3,0c-0.2,0,0.1-0.1-0.6,0c-0.9,0.3-0.8,1.6,0.1,1.8l0.3,0.1l0.6,0.1c1.5,0.3,3,0.5,4.5,0.8
			c1.5,0.3,3,0.5,4.5,0.8c1.5,0.2,3,0.5,4.4,0.7c1.5,0.2,3,0.5,4.4,0.7c1.5,0.2,2.9,0.4,4.4,0.6c11.7,1.6,23.2,2.6,34.4,3.2
			c21.9,1.1,42.5,0.5,61.4-1.3c3.5-0.1,7-0.2,10.5-0.3c13.5-0.5,27-1.3,40.7-2c27.3-1.4,54.9-2.5,82.5-2.3c27.6,0.3,55.1,1.9,82,6
			c1.7,0.3,3.4,0.5,5,0.8c1.7,0.2,3.3,0.6,5.1,0.7c1.7,0.2,3.6,0.1,5.4-0.5c0.9-0.3,1.7-0.8,2.4-1.4c0.7-0.6,1.3-1.3,1.8-2.1
			c1-1.5,1.6-3.1,2.3-4.7c0.6-1.6,1.3-3.1,1.8-4.7c1.2-3.2,2.2-6.4,2.9-9.7c0.7-3.3,1-6.8,0.7-10.2c-0.2-1.7-0.5-3.4-1.1-5
			c-0.6-1.6-1.4-3.2-2.3-4.6c-1.9-2.9-4.6-5.1-7.6-6.8c-3-1.6-6.2-2.7-9.4-3.4c-6.5-1.4-13.1-1.5-19.5-1.6
			c-6.4-0.1-12.8-0.2-19.1-0.3c-12.6-0.2-25-0.3-37.1-0.2c-24.2,0.1-47.4,0.9-69.1,2.8c-2.7,0.2-5.4,0.5-8.1,0.9
			c-2.7,0.4-5.3,1.1-7.8,2.2c-0.8,0.3-1.6,0.7-2.3,1.1c0.5-0.6,1-1.2,1.6-1.7c1.7-1.4,3.8-2.3,6-2.9c0.5-0.1,0.9-0.3,1.4-0.4
			c0.9,0.2,1.9,0.3,2.9,0.3c1.6-0.1,3.2-0.5,4.7-1c1.2-0.4,2.3-0.8,3.5-1.3c0.2,0,0.4,0,0.6-0.1c2.2-0.3,4.3-0.5,6.4-0.8
			c2.1-0.2,4.2-0.4,6.3-0.5c8.3-0.6,16-0.7,23.3-0.7c7.3,0.1,14,0.2,20.1,0.5c6.2,0.2,11.7,0.4,16.7,0.6c16.1,0.6,31.5,0.8,46.1-0.4
			c7.3-0.5,14.4-1.2,21.2-1.1c6.9,0.1,13.6,0.9,19.7,2.9l0.9,0.3l0.1-0.9c1-9.5,4-18.4,8.3-26.4c4.3-7.9,9.9-14.8,16.3-20.4l2.9-2.5
			l-3.6,1.4c-4.5,1.7-8.5,4.3-12,7.4c-3.5,3.1-6.5,6.7-9.1,10.5c-2.6,3.8-4.9,7.7-6.9,11.7c-1.8,3.5-3.4,7-5,10.5
			c-1-5.6-1.9-11.2-2.9-16.7c-1-6.2-2.1-12.3-3-18.5c-0.9-6.2-1.6-12.4-1.9-18.7c-0.3-6.3-0.1-12.6,0.8-18.8
			c0.1-0.4,0.1-0.8,0.2-1.2l0.2-1.2c0.2-0.8,0.3-1.6,0.5-2.3c0.2-0.8,0.4-1.5,0.6-2.3l0.3-1.2l0.2-0.6c0.1-0.2,0.1-0.4,0.2-0.6
			c0.3-0.8,0.5-1.5,0.8-2.3c0.1-0.4,0.2-0.8,0.4-1.1l0.5-1.1c0.3-0.7,0.6-1.5,0.9-2.2c0.1-0.4,0.3-0.8,0.4-1.2
			c0.1-0.4,0.2-0.8,0.3-1.2c0.3-1.7-0.1-3.4-0.8-4.9c-0.4-0.7-0.9-1.4-1.5-2c-0.1-0.2-0.3-0.3-0.5-0.4c-0.2-0.1-0.3-0.3-0.5-0.4
			l-0.5-0.4l-0.6-0.3c-0.2-0.1-0.4-0.2-0.6-0.3c-0.2-0.1-0.4-0.2-0.6-0.2c-0.4-0.1-0.8-0.2-1.2-0.3c-0.8-0.2-1.6-0.3-2.4-0.5
			c-1.6-0.3-3.2-0.6-4.9-0.9c-4.3-0.7-8.6-1.2-13-1.6c-1.5-0.2-3-0.3-4.5-0.5c-6.9-0.7-13.6-1-20.6-1c-3.5,0-7,0.2-10.6,0.3
			c-3.6,0.2-7.3,0.4-11.1,0.7c-7.7,0.6-15.9,1.4-25.2,2.4c-10,1.1-30,3.6-54.4,6.6c-1.5,0.2-3.1,0.4-4.6,0.6
			c-1.6,0.2-3.1,0.4-4.7,0.6c-1.6,0.3-3.3,0.6-4.9,1.4c-1.6,0.7-3,2-3.9,3.6c-0.9,1.6-1.4,3.3-1.5,5.1c-0.1,0.9-0.1,1.8,0,2.7
			c0.1,0.9,0.3,1.8,0.5,2.6c1,3.4,2.8,6.4,4.5,9.4c6.9,11.9,11.9,25.2,14.5,38.7c0.2,0.8,0.3,1.7,0.5,2.5c0.2,0.8,0.3,1.7,0.4,2.5
			c0.1,0.8,0.2,1.7,0.4,2.5c0.1,0.8,0.2,1.7,0.3,2.5l0.1,1.3l0.1,1.3c0.1,0.8,0.1,1.7,0.2,2.5c0.1,1.7,0.2,3.3,0.3,5
			c0.1,1.7,0.2,3.4,0.7,5.1c0.5,1.7,1.5,3.3,2.8,4.5c1.4,1.2,3,1.9,4.6,2.3c0.6,0.2,1.2,0.3,1.8,0.4c-3.1,1.3-6.1,2.6-8.9,3.7
			c-0.3,0.1-0.7,0.3-1,0.4c-0.3,0-0.6,0.1-0.8,0.1c-0.5,0.1-1.1,0.2-1.6,0.3c-1.1,0.2-2.2,0.4-3.3,0.5c-1.1,0.2-2.2,0.3-3.4,0.6
			c-0.5,0.1-1,0.2-1.5,0.3c-0.3-0.1-0.6-0.2-0.9-0.4c-0.5-0.3-1-0.6-1.4-1c-0.4-0.4-0.8-0.9-1.1-1.3c-0.6-0.9-1-1.9-1.4-2.9
			c-0.3-1-0.6-1.9-0.8-2.8c-1.1-4.5-2-8.8-2.8-12.9c-0.8-4.1-1.5-8-2-11.8c-1.1-7.6-1.9-14.6-2.3-21.5c-0.5-6.9-0.7-13.6-0.6-20.5
			c0-3.5,0.1-7,0.5-10.6c0.4-3.6,1.2-7.3,2.8-10.8c-1.7,3.5-2.7,7.2-3.2,10.7c-0.5,3.6-0.7,7.1-0.8,10.6c-0.2,6.9-0.2,13.7,0.1,20.6
			c0.4,6.9,1,14,2,21.6c0.5,3.8,1.2,7.8,2,11.9c0.8,4.1,1.7,8.4,2.8,13c0.2,0.9,0.5,1.9,0.8,2.9c0.4,1,0.8,2.2,1.5,3.3
			c0.4,0.5,0.8,1.1,1.3,1.6c0.3,0.3,0.7,0.6,1.1,0.9c-2.1,0.7-4.2,1.6-6.1,3c-1,0.8-1.9,1.8-2.5,2.9c-0.1,0.2-0.3,0.4-0.4,0.7
			c-0.2-0.7-0.4-1.3-0.8-1.9c-0.9-1.4-2.1-2.4-3.3-3.2c-5.1-2.9-10.4-3.1-14.6-3.2c-4.3-0.2-7.9-0.3-10.8-0.4c-5.9-0.2-9-0.3-9-0.3
			s-5.4-0.2-27.6-1c-5.6-0.2-12.2-0.4-20-0.7c-0.1,0-0.1,0-0.2,0c0.1-0.2,0.2-0.5,0.3-0.7c0,0,0,0,0,0c0.6-0.2,1.2-0.5,1.6-0.9
			c0.5-0.5,0.8-1.1,1-1.7c0.2-0.6,0.1-1.3,0-1.8c-0.3-1.1-0.8-2.1-1.2-2.9c-0.9-1.8-1.9-3.4-2.9-5c-2-3.1-3.9-5.9-5.5-8.6
			c-3.1-5.3-4.9-10-6-13.1c-2-5.8-3.3-11.2-4.5-16.1c-1.2-5-2.4-9.6-3.8-14c-1.4-4.4-3.1-8.6-5.3-12.7c-0.3-0.5-0.6-1-0.8-1.5
			l-0.2-0.4l-0.2-0.4l-0.5-0.7c-0.3-0.5-0.6-1-1-1.5c-0.2-0.3-0.3-0.5-0.5-0.8c-0.2-0.2-0.4-0.5-0.5-0.7c-0.3-0.4-0.7-0.8-1.1-1.3
			c0,0,0-0.1,0-0.1c-0.2-0.5-0.5-1.2-1-1.7c-0.3-0.2-0.6-0.4-1-0.5c-0.4-0.1-0.7-0.1-1.1-0.1c-0.2,0-0.3,0-0.4,0.1
			c-0.5-0.1-1-0.2-1.6-0.2c0.5,0,1,0.1,1.4,0.2c-0.4,0.1-0.8,0.2-1.2,0.4c-2,0.8-4,1.7-6,2.7c-4,2-7.9,4.2-12,6.3
			c-8.1,4.2-16.7,8-25.3,11.3c-8.6,3.2-17.2,5.9-25.3,7.9c-1,0.2-2,0.5-3,0.7c-0.8,0.2-1.6,0.4-2.5,0.6c-0.4-0.8-1-1.5-1.5-2.3
			c-0.8-0.9-1.6-1.9-2.5-2.8c-1.7-1.8-3.5-3.7-5.2-5.8c-1.7-2.1-3.2-4.3-4.5-6.7c-0.9-1.7-1.8-3.5-2.5-5.4c0-0.3-0.1-0.6-0.1-1
			c-0.1-0.5-0.1-1.1-0.1-1.7c0-0.6-0.1-1.1-0.1-1.7C68.4,201.6,68.4,200.5,68.5,199.3z M95,309C94.9,309,94.9,309,95,309
			C94.9,308.9,94.9,308.9,95,309C95,309,95,309.1,95,309z M95,308.6L95,308.6c0,0,0-0.1,0-0.2C95,308.5,95,308.5,95,308.6z
			 M95.4,306.4c0,0,0-0.1,0-0.1c0-0.1,0.1-0.1,0.1-0.2C95.5,306.2,95.5,306.3,95.4,306.4z M95.7,305.7c0,0,0-0.1,0-0.1
			c0-0.1,0.1-0.2,0.1-0.3c0-0.1,0.1-0.2,0.1-0.3C95.9,305.1,95.8,305.4,95.7,305.7C95.7,305.6,95.7,305.7,95.7,305.7z M96.1,304.8
			C96.1,304.8,96.1,304.8,96.1,304.8C96.1,304.8,96.1,304.8,96.1,304.8z M96.6,304c0-0.1,0.1-0.1,0.1-0.1
			C96.6,303.9,96.6,303.9,96.6,304z M109.8,292.6l-0.3-0.2c-0.1-0.1-0.2-0.1-0.3-0.2l-0.5-0.4c-0.7-0.6-1.3-1.2-1.8-1.9
			c-1.1-1.4-1.8-3-2.4-4.6c-0.6-1.6-1.1-3.2-1.5-4.8c-0.4-1.6-0.8-3.1-1.1-4.5c-0.2-0.7-0.4-1.4-0.5-2.1c-0.2-0.7-0.4-1.3-0.6-2
			c-0.7-2.5-1.4-4.7-2.1-6.5c-0.2-0.4-0.3-0.9-0.5-1.3c-0.2-0.4-0.3-0.8-0.4-1.1c-0.3-0.7-0.5-1.3-0.7-1.7c-0.4-0.9-0.6-1.4-0.6-1.4
			s-0.1-0.1-0.2-0.4c-0.1-0.2-0.3-0.6-0.5-1c-0.4-0.9-1.1-2.2-2-3.9c-0.5-0.8-1-1.7-1.6-2.7c-0.3-0.5-0.6-1-1-1.5
			c-0.4-0.5-0.7-1-1.1-1.6c-0.8-1-1.7-2.2-2.7-3.3c-0.3-0.3-0.5-0.6-0.8-0.8c-0.3-0.3-0.6-0.5-0.8-0.8c-0.3-0.3-0.6-0.6-0.9-0.8
			c-0.3-0.3-0.6-0.5-0.9-0.8c-1.1-1.1-2.3-2.3-3.1-3.7c-0.4-0.7-0.7-1.4-0.7-2.2c-0.1-0.7,0.1-1.5,0.5-2.2c0.4-0.7,1-1.2,1.8-1.7
			c0.8-0.4,1.6-0.8,2.5-1.1c0.2-0.1,0.5-0.1,0.7-0.2l0.1,0.1l0-0.1c0.7-0.2,1.4-0.4,2.2-0.5c1-0.2,2-0.5,3-0.7
			c8.1-2.1,16.8-4.7,25.4-8c8.7-3.3,17.3-7.1,25.5-11.3c4.1-2.1,8-4.3,11.9-6.3c2-1,3.9-1.9,5.8-2.7c0.5-0.2,0.9-0.3,1.3-0.4
			c0.4,0,0.6,0.1,0.9,0.2c0.2,0.2,0.4,0.6,0.6,1c0.1,0.4,0.2,0.9,0.3,1.4c0.4,2,0.8,3.9,1.1,5.8c0.3,1.9,0.5,3.8,0.7,5.6
			c0.4,3.6,0.7,7,1,10.2c0.3,3.1,0.7,5.9,1.2,8.4c0.2,1.2,0.5,2.3,0.7,3.4c0.2,1,0.5,1.9,0.7,2.8c1.6,6,3.6,11.3,5.9,15.9
			c2.3,4.6,4.8,8.7,7.5,12.4c2.7,3.7,5.7,7.1,9,10.4c0.8,0.8,1.7,1.6,2.5,2.4c0.8,0.8,1.5,1.8,1.9,2.9c0.1,0.2,0.1,0.4,0.2,0.6
			c-0.5,0.2-1,0.3-1.6,0.3c-0.5,0-1,0-1.5,0c-0.2,0-0.5,0-0.8-0.1l-0.8-0.1c-1.1-0.1-2.1-0.2-3.2-0.3c-1.1-0.1-2.2-0.1-3.3-0.2
			c-4.4-0.2-9-0.4-13.6-0.3c-4.6,0.1-9.3,0.3-13.9,0.8c-3.8,0.4-7.7,0.9-11.5,1.5c-4.3,0.2-8.7,0.6-13.3,1.3
			c-6.7,0.9-13.8,2.5-21.1,4.9c-0.1,0-0.1,0-0.2,0.1C110.2,292.8,110,292.7,109.8,292.6z M195.3,284.7c0-0.2-0.1-0.4-0.1-0.6
			c-0.4-1.2-1.1-2.2-1.9-3.1c-0.8-0.9-1.6-1.7-2.4-2.5c-3.2-3.3-6-6.8-8.5-10.6c-2.6-3.8-5-7.8-7.2-12.4c-2.2-4.6-4.1-9.7-5.7-15.7
			c-0.2-0.8-0.4-1.7-0.7-2.7c-0.2-1-0.4-2.1-0.7-3.3c-0.4-2.4-0.8-5.2-1.1-8.3c-0.3-3.1-0.7-6.5-1-10.2c-0.2-1.8-0.4-3.7-0.7-5.7
			c-0.3-1.9-0.6-3.9-1.1-5.9c-0.1-0.3-0.1-0.5-0.2-0.8c0.2,0.3,0.4,0.5,0.6,0.8c0.2,0.2,0.3,0.5,0.5,0.7c0.1,0.3,0.3,0.5,0.4,0.8
			c0.3,0.5,0.6,1,0.9,1.5c0.1,0.3,0.3,0.5,0.4,0.8l0.2,0.4l0.2,0.4c0.3,0.5,0.5,1,0.8,1.6c2,4.1,3.5,8.3,4.7,12.7
			c1.3,4.4,2.3,9,3.5,14c1.2,5,2.5,10.4,4.5,16.3c0.3,0.8,0.6,1.7,1,2.7c0.2,0.5,0.4,1,0.6,1.5c0.2,0.5,0.5,1.1,0.7,1.6
			c0.2,0.6,0.5,1.2,0.8,1.8c0.3,0.6,0.6,1.2,0.9,1.8c0.3,0.6,0.7,1.3,1,2c0.4,0.7,0.8,1.3,1.2,2c1.6,2.7,3.6,5.5,5.5,8.6
			c1,1.5,1.9,3.1,2.8,4.8c0.4,0.9,0.9,1.7,1.1,2.5c0.1,0.4,0.1,0.8,0,1.1c-0.1,0.3-0.3,0.7-0.5,0.9
			C195.7,284.5,195.5,284.6,195.3,284.7z M182.4,286.8c-4.6-0.2-9.5-0.4-14.7-0.5c-1.5,0-3-0.1-4.5-0.1c2.4-0.1,4.8-0.2,7.2-0.3
			c4.6-0.1,9.1,0,13.4,0.3c1.1,0.1,2.2,0.1,3.3,0.2c1.1,0.1,2.1,0.2,3.2,0.3l0.8,0.1c0.3,0,0.6,0,0.8,0.1c0.6,0,1.1,0,1.7,0
			c0.5,0,0.9-0.1,1.4-0.2c-0.1,0.2-0.1,0.4-0.2,0.6C190.9,287.1,186.8,286.9,182.4,286.8z M128.7,289.9c-0.9,0.2-1.9,0.5-2.8,0.7
			c-1.1,0.3-2.1,0.6-3.2,0.9c-2.1,0.6-4.1,1.3-6.1,1.7c-1.1,0.2-2.2,0.3-3.2,0.3C118.7,291.9,123.8,290.8,128.7,289.9z M276.1,327
			c0-0.3-0.1-0.5-0.2-0.8l-0.3-0.7c-0.2-0.4-0.3-0.8-0.5-1.3c-0.5-1.7-0.8-3.5-0.9-5.2c-0.1-2.8,0.4-5.6,1.5-8.1
			c0.1,0.1,0.2,0.2,0.4,0.3c0.4,0.3,0.8,0.4,1.3,0.4c0.5,0,0.9-0.1,1.4-0.4c0.4-0.3,0.7-0.7,0.9-1.1c0.1-0.2,0.1-0.4,0.2-0.5
			l0.1-0.5c0.1-0.3,0.2-0.6,0.2-0.9c0.5-2.5,0.8-4.9,1.5-7.1c0.1-0.3,0.2-0.6,0.3-0.8c0.4-0.3,0.8-0.6,1.2-0.9
			c1-0.7,2.1-1.3,3.3-1.8c2.3-1,4.8-1.6,7.4-2.1c2.6-0.4,5.3-0.7,8-0.9c21.6-1.9,44.7-2.7,68.9-2.8c12.1-0.1,24.5,0,37.1,0.2
			c6.3,0.1,12.7,0.2,19.1,0.3c3.2,0.1,6.4,0.1,9.6,0.3c3.2,0.2,6.4,0.6,9.5,1.3c3.1,0.7,6.2,1.7,9,3.2c2.8,1.5,5.3,3.6,7,6.3
			c0.9,1.3,1.6,2.7,2.1,4.2c0.5,1.5,0.9,3.1,1,4.7c0.3,3.2,0,6.5-0.6,9.7c-0.7,3.2-1.7,6.4-2.8,9.5c-0.6,1.6-1.2,3.1-1.8,4.7
			c-0.6,1.5-1.3,3.1-2.1,4.4c-0.9,1.3-2,2.4-3.4,2.9c-1.4,0.5-3,0.6-4.6,0.4c-1.6-0.1-3.3-0.5-5-0.7c-1.7-0.3-3.4-0.5-5-0.8
			c-26.9-4.1-54.6-5.7-82.2-6c-27.6-0.2-55.3,0.9-82.6,2.3c-10.5,0.5-20.9,1.1-31.2,1.6c0.7-0.1,1.4-0.2,2.1-0.3
			c2.2-0.3,4.4-0.6,6.6-1c2.2-0.4,4.3-0.7,6.4-1.1c2.1-0.4,4.2-0.8,6.2-1.3c2-0.5,4-1.2,5.9-2.2c0.9-0.5,1.8-1,2.6-1.7l0.6-0.5
			c0.2-0.2,0.4-0.4,0.6-0.6c0.4-0.4,0.7-0.9,0.9-1.4C276.1,329.3,276.3,328.1,276.1,327z M276.8,309.3l0-0.2c0-0.1,0-0.2,0.1-0.4
			c0.1-0.1,0.1-0.2,0.2-0.4c0.2-0.3,0.4-0.6,0.7-1c0.2-0.3,0.5-0.6,0.7-0.9c0.1-0.1,0.3-0.3,0.4-0.5c0.1-0.1,0.1-0.1,0.2-0.2
			c-0.1,0.7-0.3,1.5-0.4,2.2c-0.1,0.3-0.1,0.6-0.2,0.9l-0.1,0.4c0,0.1-0.1,0.3-0.1,0.4c-0.1,0.2-0.1,0.3-0.3,0.3
			c-0.1,0.1-0.3,0.1-0.4,0.1c-0.3,0-0.6-0.2-0.7-0.5c0-0.1,0-0.1,0-0.2C276.8,309.4,276.8,309.4,276.8,309.3z M191.5,342.9
			c-9.4,0.2-19,0-29-0.5c-9.2-0.5-18.6-1.3-28.2-2.4C152.9,341.6,172,342.6,191.5,342.9z M316.6,285.1c1.5,0,2.9,0,4.4-0.1
			c1.5-0.1,3-0.1,4.5-0.2c3-0.1,5.9-0.2,8.7-0.4c5.7-0.2,11-0.4,15.8-0.5c9.8-0.3,17.8-0.4,23.4-0.5c5.6-0.1,8.7-0.1,8.7-0.1
			s1,0,3.3,0c2.3,0,5.9,0,11.1,0c5.2,0,12,0,20.8,0.2c2.2,0,4.5,0.1,6.9,0.1c2.4,0,5,0.1,7.7,0c2.7-0.1,5.6-0.3,8.6-0.7
			c3-0.5,6-1.2,9.2-2.3l0.9-0.3l-0.4-0.8c-0.1-0.2-0.3-0.5-0.4-0.7c-0.1-0.1-0.1-0.3-0.2-0.4c-0.1-0.1-0.2-0.2-0.2-0.4
			c-0.2-0.2-0.3-0.5-0.5-0.7c-0.2-0.2-0.4-0.5-0.6-0.7c-0.9-0.9-2-1.7-3.2-2.4c-2.5-1.3-5.4-2-8.5-2.4c-1.6-0.2-3.2-0.3-4.9-0.4
			c-1.7-0.1-3.4-0.2-5.2-0.3c-3.5-0.2-7.3-0.4-11.2-0.6c-7.8-0.3-16.2-0.6-25-0.6c-8.7,0-17.8,0.4-26.7,1.4c-9,1-17.8,2.5-26.2,4.8
			c-0.5,0.1-1,0.3-1.6,0.4c-0.5,0.2-1,0.3-1.5,0.5c-1,0.3-2,0.6-3.1,0.9c-2,0.6-4,1.3-5.9,2c-1,0.4-1.9,0.7-2.9,1
			c-0.9,0.4-1.9,0.7-2.8,1.1c-1.1,0.5-2.2,0.9-3.3,1.4c-1.5-0.1-3-0.2-4.5-0.6c-1.5-0.4-2.8-1-4-2c-1.1-0.9-1.9-2.2-2.3-3.7
			c-0.4-1.5-0.6-3.1-0.6-4.7c-0.1-1.7-0.2-3.4-0.3-5.1c-0.1-0.8-0.1-1.7-0.2-2.6l-0.1-1.3l-0.1-1.3c-0.1-0.9-0.2-1.7-0.3-2.6
			c-0.1-0.9-0.3-1.7-0.4-2.6c-0.1-0.9-0.3-1.7-0.4-2.6c-0.2-0.9-0.3-1.7-0.5-2.6c-2.7-13.7-7.8-27.2-14.7-39.2c-1.7-3-3.5-5.9-4.3-9
			c-0.2-0.8-0.4-1.6-0.5-2.3c-0.1-0.8-0.1-1.6,0-2.4c0.1-1.6,0.6-3.1,1.3-4.4c0.8-1.3,1.9-2.3,3.2-2.9c1.3-0.7,2.9-1,4.4-1.2
			c1.5-0.2,3.1-0.4,4.7-0.6c1.6-0.2,3.1-0.4,4.6-0.6c24.4-3,44.4-5.5,54.4-6.6c9.2-1,17.5-1.9,25.1-2.5c3.8-0.3,7.5-0.6,11.1-0.8
			c3.6-0.2,7.1-0.4,10.5-0.5c6.9-0.2,13.6,0,20.5,0.5c5.8,0.4,11.7,1,18,1.8c1.5,0.3,2.9,0.5,4.4,0.8c0.8,0.2,1.6,0.4,2.4,0.5
			c0.4,0.1,0.8,0.2,1.2,0.3c0.2,0.1,0.4,0.2,0.6,0.2c0.2,0.1,0.4,0.2,0.5,0.3l0.5,0.3l0.5,0.3c0.2,0.1,0.3,0.2,0.5,0.4
			c0.1,0.1,0.3,0.3,0.4,0.4c0.5,0.6,1,1.2,1.4,1.9c0.7,1.4,1,3,0.7,4.6c0,0.4-0.2,0.8-0.3,1.1c-0.1,0.4-0.3,0.7-0.4,1.1
			c-0.3,0.7-0.6,1.5-0.9,2.2l-0.5,1.1c-0.2,0.4-0.3,0.8-0.4,1.1c-0.3,0.8-0.5,1.5-0.8,2.3c-0.1,0.2-0.1,0.4-0.2,0.6l-0.2,0.6
			l-0.3,1.2c-0.2,0.8-0.4,1.5-0.6,2.3c-0.2,0.8-0.3,1.6-0.5,2.4l-0.2,1.2c-0.1,0.4-0.1,0.8-0.2,1.2c-1,6.3-1.2,12.7-1,19
			c0.2,6.3,0.9,12.5,1.8,18.7c0.9,6.2,1.9,12.4,2.9,18.5c1,6.2,2,12.4,3.1,18.6l0.3,1.8l0.8-1.7c1.8-4.1,3.7-8.1,5.8-12.1
			c2.1-4,4.3-7.9,6.9-11.6c2.6-3.7,5.5-7.2,8.9-10.2c2.4-2.1,5-3.9,7.8-5.4c-5.2,5.1-9.8,11.1-13.5,17.8c-4.2,7.8-7.2,16.6-8.4,26
			c-6.1-1.9-12.6-2.6-19.3-2.7c-7-0.1-14.1,0.5-21.4,1.1c-14.5,1.1-29.9,0.9-46,0.3c-5-0.2-10.5-0.4-16.7-0.6
			c-6.2-0.2-12.9-0.4-20.2-0.5c-7.3,0-15.1,0.1-23.4,0.7c-2.1,0.2-4.2,0.4-6.3,0.5c-0.4,0-0.7,0.1-1.1,0.1c1.8-0.7,3.6-1.5,5.4-2.3
			C315.5,285.6,316,285.3,316.6,285.1z M320.6,283.4c0.8-0.3,1.6-0.6,2.4-1c0.9-0.3,1.9-0.7,2.8-1c1.9-0.7,3.8-1.4,5.8-2
			c1-0.3,2-0.6,3-0.9c0.5-0.2,1-0.3,1.5-0.5c0.5-0.1,1-0.3,1.6-0.4c8.3-2.2,17.1-3.8,25.9-4.7c17.8-1.9,35.9-1.5,51.4-0.8
			c3.9,0.2,7.6,0.4,11.2,0.6c1.8,0.1,3.5,0.2,5.2,0.3c1.7,0.1,3.3,0.2,4.8,0.4c3,0.4,5.8,1.1,8,2.2c1.1,0.6,2,1.3,2.8,2
			c0.2,0.2,0.4,0.4,0.5,0.6c0.1,0.2,0.3,0.4,0.4,0.6c0.1,0.1,0.1,0.2,0.2,0.3c0,0.1,0.1,0.1,0.1,0.1c-2.7,0.9-5.4,1.5-8,1.9
			c-2.9,0.5-5.7,0.6-8.3,0.7c-2.7,0.1-5.2,0-7.7,0c-2.4,0-4.8-0.1-6.9-0.1c-8.8-0.1-15.6-0.2-20.8-0.2c-5.2,0-8.8,0-11.1,0
			c-2.3,0-3.3,0-3.3,0s-3.2,0-8.7,0.1c-5.6,0.1-13.6,0.2-23.4,0.5c-4.9,0.1-10.2,0.3-15.9,0.5c-2.8,0.1-5.7,0.2-8.7,0.4
			c-1.5,0.1-3,0.1-4.5,0.2C320.8,283.4,320.7,283.4,320.6,283.4z M69.2,360.3c-3.7-5.2-7.4-10.2-10.8-15.2c-3.5-5-6.8-10-9.9-15.1
			c-1.6-2.5-3.1-5.1-4.6-7.7c-1.4-2.6-2.9-5.3-4.2-8c-0.7-1.3-1.3-2.7-2-4.1c-0.3-0.7-0.6-1.4-0.9-2.1l-0.5-1.1l-0.4-1.1
			c-1.2-2.8-2.2-5.8-3.2-8.7c-1-3-1.8-6.1-2.5-9.2c-0.3-1.6-0.6-3.2-0.9-4.8c-0.1-0.8-0.2-1.6-0.3-2.5c-0.1-0.8-0.2-1.7-0.3-2.5
			c-0.3-3.3-0.5-6.8-0.4-10.2c0.1-3.5,0.6-7,1.6-10.5c1-3.5,2.7-6.8,5-9.7c0.3-0.4,0.6-0.7,0.9-1.1c0.3-0.3,0.6-0.7,1-1
			c0.7-0.6,1.4-1.3,2.2-1.9c1.5-1.2,3.2-2.2,5-3.2c1.9-1,4.2-2,6.7-3.1c2.5-1,5.3-2.1,8.4-3.3c1.5-0.6,3.1-1.3,4.7-2
			c0.8-0.4,1.6-0.8,2.4-1.2c0.8-0.4,1.6-0.9,2.4-1.5c0.8-0.6,1.6-1.2,2.2-2c0.7-0.8,1.3-1.7,1.6-2.8c0.1-0.3,0.1-0.5,0.2-0.8
			c0-0.3,0.1-0.6,0.1-0.8c0.1-0.6,0-1.1,0-1.7c-0.1-1.1-0.5-2.1-0.8-3.1c-0.4-1-0.8-2-1.1-2.9c-0.2-0.5-0.3-1-0.5-1.5
			c-0.1-0.2-0.2-0.5-0.3-0.7c-0.1-0.3-0.1-0.5-0.2-0.8c-0.1-0.5-0.3-1-0.4-1.5c-0.1-0.5-0.2-1-0.3-1.6c-0.1-0.3-0.1-0.5-0.2-0.8
			l-0.1-0.4l-0.1-0.4c0-0.2,0-0.4-0.1-0.6c0.7,1.8,1.5,3.6,2.4,5.3c1.3,2.4,2.8,4.7,4.5,6.8c1.6,2.1,3.4,4,5.1,5.9
			c0.9,0.9,1.7,1.8,2.5,2.8c0.5,0.7,1.1,1.4,1.5,2.2c0,0,0,0,0,0c-0.4-0.4-0.8-0.7-1.2-1c-0.7-0.4-1.5-0.8-2.3-1
			c-0.8-0.2-1.7-0.3-2.5-0.3c-0.8,0-1.7,0.1-2.5,0.2c-0.8,0.1-1.6,0.3-2.4,0.6c-0.8,0.2-1.6,0.5-2.3,0.8c-0.8,0.3-1.5,0.7-2.2,1.1
			c-0.7,0.4-1.4,0.9-2.1,1.3c-2.7,1.9-5,4.2-7.3,6.4c-2.3,2.2-4.6,4.4-6.9,6.6c-1.1,1.1-2.3,2.2-3.4,3.3c-1.1,1.1-2.3,2.2-3.3,3.5
			c-1,1.2-1.9,2.6-2.4,4.1c-0.5,1.5-0.6,3.2-0.3,4.8c0.3,1.6,0.9,3.1,1.6,4.5c0.4,0.7,0.8,1.4,1.2,2l1.3,2c1.7,2.6,3.6,5.1,5.5,7.5
			c3.8,4.9,7.7,9.6,10.9,14.8c1.6,2.6,3,5.3,4.1,8.1c1.1,2.8,1.9,5.8,2.4,8.8c1.1,6,1.3,12.2,2,18.3c0.4,3.1,0.8,6.2,1.7,9.2
			c0.8,3,2,6,3.6,8.8c1.6,2.8,3.7,5.1,5,7.9c0.2,0.3,0.3,0.7,0.4,1c0.1,0.4,0.2,0.7,0.3,1.1c0.1,0.4,0.1,0.7,0.2,1.1
			c0,0.4,0,0.7,0,1.1c-0.1,1.5-0.7,2.9-1.5,4.2c-0.4,0.6-0.9,1.3-1.4,1.9c-0.2,0.3-0.5,0.6-0.8,0.9c-0.3,0.3-0.6,0.6-0.8,1
			c-1,1.4-1.6,3.1-1.7,4.9c0,0.8,0,1.6,0.2,2.3C74.8,368,72,364.1,69.2,360.3z M107.7,398c-2,4.1-8,16.6-13.4,28
			c-1.4,2.9-2.7,5.6-3.9,8.2c-1.3,2.6-2.3,5-3.5,6.8c-0.6,0.9-1.2,1.6-1.8,2.2c-0.6,0.6-1.2,1-1.7,1.2c-0.2,0.1-0.5,0.2-0.7,0.3
			c-0.2,0.1-0.4,0.1-0.5,0.2c-0.3,0.1-0.4,0.1-0.4,0.1s0,0-0.2,0c-0.1,0-0.3,0.1-0.7,0.1c-0.4,0-0.9,0-1.6-0.1
			c-0.6-0.2-1.4-0.5-2.1-1.3c0-0.5,0-1.3,0.1-2.4c0.2-1.3,0.6-3,1.4-4.9c0.7-1.9,1.7-4.1,2.7-6.4c1-2.3,2-4.8,3.1-7.3
			c4.2-10,8.7-20.5,10.3-24.2c3.1-7.4,4.7-11.8,6.8-17.9c0.2,0,0.4,0,0.6,0c1.7,0.1,3.4,0.2,5.1,0.3c1.7,0.1,3.4,0.2,5.1,0.2
			c1.3,0.1,2.6,0.1,3.9,0.2C113.4,386.8,111.1,391,107.7,398z M147.5,393.3c0,1.2,0.1,3.5,0.1,6.2c0.1,2.7,0.2,6,0.3,9.1
			c0.1,3.2,0.1,6.2,0.1,8.6c0,2-0.1,3.6-0.1,4.4c-0.4,0.3-0.7,0.4-1,0.4c-0.1,0-0.2,0-0.3,0c-0.1,0-0.2,0-0.2,0c-0.1,0-0.3,0-0.4,0
			c-0.2,0-0.3-0.1-0.4-0.1c-0.1,0-0.1,0-0.1,0s-0.1,0-0.2-0.1c-0.2,0-0.4-0.1-0.7-0.3c-0.3-0.2-0.6-0.4-0.9-0.7
			c-0.2-0.2-0.3-0.3-0.5-0.5c-0.1-0.1-0.2-0.2-0.2-0.3L143,420l-0.1-0.1c-0.1-0.2-0.2-0.6-0.3-0.9c-0.1-0.3-0.2-0.7-0.3-1
			c-0.2-0.7-0.4-1.5-0.5-2.3c-0.4-1.6-0.7-3.4-1.1-5.2c-1.4-7.3-2.7-15.2-3.2-17.9c-0.4-2.5-0.8-4.4-1.2-6.2
			c-0.3-1.4-0.6-2.6-0.9-4.1c2.9,0.1,5.8,0.2,8.7,0.3c1.3,0,2.7,0.1,4,0.1C147.8,386.1,147.5,388.9,147.5,393.3z M441.5,388
			c-0.4,1.8-0.8,3.7-1.2,6.2c-0.4,2.7-1.7,10.6-3.2,17.9c-0.4,1.8-0.7,3.6-1.1,5.2c-0.2,0.8-0.4,1.6-0.5,2.3c-0.1,0.4-0.2,0.7-0.3,1
			c-0.1,0.3-0.2,0.6-0.3,0.9l-0.1,0.1l-0.1,0.2c-0.1,0.1-0.1,0.2-0.2,0.3c-0.1,0.2-0.3,0.4-0.5,0.5c-0.3,0.3-0.7,0.5-0.9,0.7
			c-0.3,0.1-0.5,0.2-0.7,0.3c-0.2,0.1-0.2,0.1-0.2,0.1s0,0-0.1,0c-0.1,0-0.2,0.1-0.4,0.1c-0.1,0-0.2,0-0.4,0c-0.1,0-0.1,0-0.2,0
			c-0.1,0-0.2,0-0.3,0c-0.3,0-0.7-0.2-1-0.4c0-0.8-0.1-2.3-0.1-4.4c0-2.4,0-5.5,0.1-8.6c0.1-3.2,0.2-6.4,0.3-9.1
			c0.1-2.8,0.1-5,0.2-6.2c0-4.5-0.3-7.3-0.8-10.9c3.7,0,7.4-0.1,11.1-0.1c0.5,0,1.1,0,1.6,0C442.2,385.4,441.8,386.6,441.5,388z
			 M483.2,400.3c1.6,3.8,6.1,14.3,10.3,24.2c1.1,2.5,2.1,5,3.1,7.3c1,2.3,1.9,4.5,2.7,6.4c0.7,1.9,1.2,3.6,1.4,4.9
			c0.2,1.1,0.2,1.9,0.1,2.4c-0.6,0.8-1.4,1.1-2.1,1.3c-0.7,0.2-1.2,0.1-1.6,0.1c-0.4,0-0.6-0.1-0.7-0.1c-0.1,0-0.2,0-0.2,0
			s-0.2,0-0.4-0.1c-0.1,0-0.3-0.1-0.5-0.2c-0.2-0.1-0.4-0.2-0.7-0.3c-0.5-0.2-1.1-0.7-1.7-1.2c-0.6-0.6-1.2-1.3-1.8-2.2
			c-1.2-1.8-2.2-4.2-3.5-6.8c-1.2-2.6-2.6-5.4-3.9-8.2c-5.5-11.4-11.5-23.9-13.4-28c-3.3-6.8-5.5-10.9-8.4-16c0.7,0,1.4,0,2.2,0
			c1,0,2,0,3-0.1c0.5,0,1,0,1.5,0c0.5,0,1,0,1.5,0c2,0,4,0.1,6,0.1c0.2,0,0.5,0,0.7,0C478.7,389.1,480.3,393.4,483.2,400.3z
			 M484.2,380c-0.7,0.5-1.6,0.9-2.5,1.2c-1.7,0.5-3.6,0.7-5.4,0.7c-0.1-0.3-0.3-0.5-0.4-0.8c0.1,0.3,0.2,0.5,0.3,0.8
			c-0.1,0-0.1,0-0.2,0c-2,0-4-0.1-6-0.1c-0.5,0-1,0-1.5,0c-0.5,0-1,0-1.5,0.1c-1,0-2,0-2.9,0.1c-1,0-2,0-3,0.1
			c-0.1-0.2-0.2-0.3-0.3-0.5c0.1,0.2,0.1,0.3,0.2,0.5c-6.8,0.1-13.5,0.2-20.1,0.3c-7.6,0.1-15.1,0.2-22.4,0.2
			c-7.3,0.1-14.5,0.1-21.6,0.2c-28.2,0.2-54.1,0.3-77.4,0.3c-46.5,0-82.4-0.3-105.2-0.6c-8.3-0.1-16.4-0.2-24.4-0.4
			c-7.9-0.2-15.7-0.3-23.3-0.5c-7.6-0.1-15-0.4-22.3-0.6c-3.6-0.1-7.2-0.2-10.8-0.3c-3.6-0.1-7.1-0.3-10.6-0.4
			c-1.9-0.1-3.8-0.2-5.7-0.2c0,0,0-0.1,0-0.1c0,0,0,0.1,0,0.1c-1.5-0.1-3.1-0.1-4.6-0.2c-1.7-0.1-3.4-0.1-5.1-0.2
			c-1.7-0.1-3.4-0.2-5.1-0.3c-3.4-0.2-6.7-0.4-10-0.6c-1.7-0.1-3.3-0.2-5-0.3c-0.4,0-0.8,0-1.2-0.1c-0.4,0-0.8-0.1-1.1-0.2
			c-0.7-0.2-1.4-0.4-2.1-0.8c-1.3-0.7-2.4-1.9-3.1-3.2c-0.7-1.3-1.1-2.8-1-4.3c0.1-1.5,0.6-2.9,1.4-4.2c0.2-0.3,0.4-0.6,0.7-0.9
			c0.3-0.3,0.5-0.6,0.8-0.9c0.5-0.6,1-1.3,1.5-2c0.9-1.4,1.5-3,1.7-4.8c0-0.4,0-0.9,0-1.3c0-0.4-0.1-0.9-0.2-1.3
			c-0.1-0.4-0.2-0.8-0.3-1.2c-0.1-0.4-0.3-0.8-0.5-1.2c-1.4-3-3.5-5.4-5.1-8.1c-1.6-2.6-2.7-5.5-3.5-8.5c-0.8-3-1.3-6-1.7-9.1
			c-0.7-6.1-1-12.3-2.1-18.4c-0.6-3-1.3-6.1-2.5-9c-1.1-2.9-2.6-5.6-4.3-8.2c-3.3-5.2-7.3-9.9-11.1-14.8c-1.9-2.4-3.8-4.9-5.5-7.4
			l-1.3-1.9c-0.4-0.7-0.8-1.3-1.2-2c-0.7-1.3-1.3-2.8-1.6-4.3c-0.3-1.5-0.2-3,0.3-4.4c0.5-1.4,1.3-2.8,2.3-4c1-1.2,2.1-2.3,3.2-3.4
			c1.1-1.1,2.3-2.2,3.4-3.3c2.3-2.2,4.6-4.4,6.9-6.7c2.3-2.2,4.6-4.5,7.2-6.4c0.6-0.5,1.3-0.9,2-1.3c0.7-0.4,1.4-0.8,2.1-1.1
			c0.7-0.3,1.5-0.6,2.3-0.8c0.8-0.2,1.6-0.4,2.4-0.6c0.8-0.2,1.6-0.2,2.4-0.2c0.8,0,1.6,0.1,2.4,0.2c0.8,0.2,1.6,0.5,2.3,0.9
			c0.4,0.2,0.7,0.5,1.1,0.8c-1,0.3-1.9,0.7-2.8,1.2c-0.9,0.5-1.8,1.3-2.4,2.2c-0.6,1-0.8,2.1-0.7,3.1c0.1,1.1,0.5,2,0.9,2.9
			c1,1.7,2.2,2.9,3.4,4.1c0.3,0.3,0.6,0.6,0.9,0.8c0.3,0.3,0.6,0.5,0.8,0.8c0.3,0.3,0.5,0.5,0.8,0.8c0.3,0.3,0.5,0.5,0.7,0.8
			c1,1.1,1.8,2.1,2.6,3.1c0.4,0.5,0.7,1,1.1,1.5c0.4,0.5,0.7,1,1,1.4c0.6,0.9,1.1,1.8,1.6,2.6c0.9,1.6,1.6,2.9,2,3.8
			c0.2,0.4,0.4,0.8,0.5,1c0.1,0.2,0.2,0.3,0.2,0.3s0.2,0.5,0.6,1.4c0.2,0.4,0.4,1,0.7,1.7c0.1,0.3,0.3,0.7,0.4,1.1
			c0.1,0.4,0.3,0.8,0.4,1.2c0.6,1.7,1.3,3.9,2.1,6.4c0.2,0.6,0.4,1.3,0.5,1.9c0.2,0.7,0.4,1.4,0.5,2.1c0.3,1.4,0.7,2.9,1.1,4.5
			c0.4,1.6,0.9,3.3,1.5,5c0.6,1.7,1.5,3.4,2.7,5c0.6,0.8,1.3,1.5,2.1,2.2c0.2,0.1,0.4,0.3,0.7,0.4c-1.1,0.4-2.2,0.9-3.2,1.4
			c-1.8,0.9-3.6,1.9-5.2,3.1c-1.6,1.2-3.2,2.7-4.4,4.5c-0.3,0.4-0.6,0.9-0.8,1.3c0.2-0.3,0.3-0.5,0.4-0.7c0,0,0,0,0,0
			c-0.1,0.2-0.2,0.4-0.4,0.7c0,0,0,0.1,0,0.1c0,0.1-0.1,0.1-0.1,0.2c-0.1,0.1-0.1,0.2-0.2,0.3c0,0.1-0.1,0.2-0.1,0.4
			c0,0,0,0.1,0,0.1c0.1-0.3,0.2-0.6,0.3-0.8c0-0.1,0.1-0.1,0.1-0.2c-0.4,0.7-0.7,1.4-0.9,2.2c0,0,0,0,0,0c0,0,0,0,0,0.1
			c-0.1,0.3-0.2,0.6-0.2,0.9c0-0.1,0-0.2,0.1-0.2c0,0.1,0,0.2-0.1,0.3c0,0.1,0,0.2-0.1,0.3c0-0.1,0-0.1,0-0.2c0,0,0,0,0,0
			c0,0.1,0,0.1,0,0.2c-0.1,0.4-0.1,0.8-0.2,1.2c0,0,0,0,0,0c0.1,0.1,0,0.1,0,0c0,0,0,0,0,0c0,0,0,0,0,0c-0.1,0-0.1-0.1,0,0
			c0,0,0,0,0,0l0.9,0.9c-0.1-0.1-0.2-0.2-0.3-0.3c0.1,0.1,0.2,0.2,0.3,0.3l0,0l0.1,0c0.1,0,0.2,0,0.3,0c0.4,0,0.9-0.1,1.3-0.2
			c0.9-0.1,1.9-0.2,3-0.3c2.1-0.2,4.5-0.3,7-0.3c4.5,0,9.5,0.3,14.6,1.1c-0.2,0.1-0.4,0.2-0.7,0.3c-0.3,0.1-0.6,0.2-0.9,0.3
			c-0.3,0.1-0.6,0.2-1,0.3c-0.3,0.1-0.7,0.1-1.1,0.2c-0.4,0.1-0.8,0.1-1.2,0.1c-1.6,0.2-3.5,0.1-5.6-0.1c-2.1-0.2-4.4-0.6-6.9-1
			c-0.6-0.1-1.3-0.2-1.9-0.3c-0.7-0.1-1.4-0.2-2.1-0.2c-1.4-0.1-2.9,0-4.4,0.2c-1.5,0.2-3,0.5-4.6,1.1c-1.5,0.5-3.1,1.3-4.4,2.4
			c-1.4,1.1-2.6,2.7-3.1,4.5c-0.3,0.9-0.4,1.9-0.4,2.9c0,1,0.2,1.9,0.5,2.9c0.6,1.9,1.5,3.6,2.5,5.2c1,1.7,2.1,3.3,3.1,4.9
			c1,1.7,1.8,3.5,1.8,5.3c0,0.9-0.2,1.8-0.7,2.6c-0.4,0.8-1.1,1.5-1.8,2.3c-0.7,0.7-1.6,1.5-2.3,2.5c-0.2,0.3-0.3,0.5-0.5,0.8
			l-0.2,0.4l-0.1,0.2l-0.1,0.2c-0.1,0.3-0.2,0.6-0.2,0.9c0,0.3-0.1,0.6-0.1,0.9c0,1.3,0.3,2.5,0.8,3.6c0.5,1.1,1.3,2.1,2.2,3
			c0.9,0.9,1.9,1.6,3,2.1c0.3,0.1,0.6,0.3,0.9,0.4c0.3,0.1,0.6,0.2,0.9,0.3l0.9,0.2l0.9,0.1c2.5,0.3,5,0,7.4-0.5
			c1.2-0.3,2.4-0.6,3.6-0.9c1.2-0.3,2.4-0.6,3.6-0.9c2.4-0.5,4.9-0.8,7.4-1.1c5.1-0.5,10.3-0.9,15.7-1.1c5.3-0.3,10.8-0.4,16.4-0.6
			c11.2-0.3,22.7-0.4,34.7-0.4c23.8,0,49.1,0.2,75,0.6c26,0.4,52.7,0.9,79.6,1.4c26.9,0.5,53.9,1,80.6,1.1c6.7,0,13.3,0,19.9-0.1
			c3.3,0,6.6-0.1,9.9-0.2c1.6,0,3.3-0.1,4.9-0.2c1.6-0.1,3.3-0.2,4.8-0.2c1.6,0,3.1,0.1,4.6,0.5c1.4,0.4,2.7,1.2,3.7,2.3
			c1,1.1,1.8,2.5,2.7,3.9c0.9,1.4,1.9,2.7,2.9,3.9c0.7,0.9,1.4,1.7,2.2,2.5c0,0,0.1,0.1,0.1,0.1c0.3,0.3,0.5,0.6,0.8,0.8
			c0,0,0.1,0.1,0.1,0.1c1.1,1.2,2.3,2.3,3.5,3.3c1.2,1.1,2.5,2,3.9,2.9c1.1,0.6,2.2,1.2,3.4,1.6C485,379.4,484.7,379.7,484.2,380z
			 M93.3,308.4L93.3,308.4c0-0.1,0-0.2,0-0.2C93.4,308.3,93.4,308.4,93.3,308.4z M539,277.5c-0.9,4.6-2.1,9.2-3.4,13.7
			c-0.3,1.1-0.6,2.3-0.9,3.4c-0.3,1.1-0.7,2.2-1.1,3.3c-0.8,2.2-1.6,4.3-2.5,6.4c-1.8,4.2-3.7,8.4-5.7,12.5
			c-3.9,8.1-8.1,15.9-12.2,23.4c-4.2,7.4-8.4,14.5-12.7,21c-2.2,3.3-4.3,6.4-6.6,9.3c-1.1,1.5-2.3,2.9-3.5,4.1
			c-0.6,0.6-1.2,1.3-1.9,1.8c-0.5,0.5-1.1,0.9-1.6,1.2c-2.3-1.2-4.4-2.4-6.4-3.8c-1.8-1.2-3.4-2.5-4.8-3.9c-0.3-0.3-0.6-0.7-0.9-1
			c-1.4-1.7-2.5-3.6-3.1-5.6c-0.6-2.1-0.7-4.2-0.5-6.2c0.3-2,0.9-4,1.6-5.8c0.7-1.8,1.6-3.5,2.5-5.2c1.8-3.3,3.7-6.2,5.3-9.1
			c0.4-0.7,0.8-1.4,1.2-2.1c0.3-0.7,0.7-1.4,1-2.2c0.6-1.4,1.1-2.9,1.5-4.2c0.8-2.8,1.2-5.4,1.5-7.8c0.3-2.4,0.5-4.6,0.6-6.6
			c0.1-2,0.2-3.9,0.2-5.6c0.2-8.2,0.1-15.9,1.2-23.1c0.1-0.9,0.3-1.8,0.5-2.7c0.2-0.9,0.4-1.7,0.6-2.6c0.2-0.9,0.5-1.7,0.8-2.5
			c0.2-0.4,0.3-0.8,0.5-1.2c0.2-0.4,0.3-0.7,0.5-1.1c0.4-0.6,1-1.2,1.6-1.7c0.6-0.5,1.4-0.9,2.1-1.2c1.5-0.7,3.1-1.3,4.7-2.1
			c0.8-0.4,1.6-0.9,2.3-1.5c0.7-0.6,1.3-1.3,1.7-2.2l0.1-0.3l0.1-0.3c0.1-0.2,0.1-0.4,0.2-0.6c0.1-0.4,0.2-0.8,0.3-1.2
			c0.2-0.8,0.4-1.6,0.5-2.4c0.6-3.3,0.9-6.5,0.9-9.7c0.1-3.2-0.1-6.3-0.2-9.4c0-0.8-0.1-1.5-0.1-2.3c0-0.8,0-1.5-0.1-2.3
			c0-0.8,0-1.5,0-2.3c0-0.8,0-1.5,0.1-2.3c0.2-6,0.9-12,1.6-17.9c0.6-6,1.2-12,1.3-18.1c0.1-6.1-0.3-12.4-1.9-18.6
			c-0.8-3.1-2-6.1-3.6-9c-1.2-2.2-2.6-4.3-4.2-6.2c0.8,0.5,1.7,1.1,2.4,1.7c0.8,0.6,1.6,1.3,2.3,2l0.5,0.5c0.2,0.2,0.3,0.4,0.5,0.6
			l0.5,0.6c0.2,0.2,0.3,0.4,0.5,0.6c2.5,3.2,4.2,7.2,5.2,11.4c0.9,4.2,1.2,8.6,1.1,13.1c-0.1,4.5-0.5,9-1,13.6
			c-0.2,2.3-0.5,4.6-0.7,6.9c-0.2,2.3-0.5,4.7-0.5,7.1c0,2.4,0.1,4.8,0.5,7.2c0,0.3,0.1,0.6,0.2,0.9c0.1,0.3,0.1,0.6,0.2,0.9
			c0.2,0.6,0.3,1.2,0.5,1.8c0.4,1.2,0.9,2.3,1.5,3.4l0.5,0.8c0.2,0.3,0.5,0.6,0.8,0.8c0.6,0.4,1.1,0.7,1.7,1
			c1.1,0.5,2.3,0.9,3.4,1.3c2.2,0.8,4.5,1.6,6.6,2.6c2.1,1,4.2,2.1,6.1,3.5c1,0.7,1.9,1.4,2.8,2.1l0.6,0.6c0.2,0.2,0.4,0.4,0.6,0.6
			c0.4,0.4,0.8,0.9,1.1,1.3c1.4,1.8,2.4,3.9,3.1,6.1c0.7,2.2,1,4.5,1.1,6.9C540.5,268.1,539.9,272.8,539,277.5z"/>
		<path class="st5" d="M497.5,449.4c-0.2,0-0.4,0-0.5,0c-0.4,0-0.7-0.1-0.9-0.1l-0.1,0c-0.2,0-0.2,0-0.2,0l-0.6-0.1
			c-0.2-0.1-0.4-0.1-0.6-0.2l-0.1,0c0,0-0.1,0-0.1,0l-0.2-0.1c-0.2-0.1-0.5-0.2-0.8-0.4c-0.7-0.4-1.5-0.9-2.3-1.6
			c-0.7-0.7-1.5-1.6-2.2-2.7c-0.6-0.9-1.2-2-1.9-3.4l-19.2-40c-3.2-6.6-5-10.8-7-16.1c-5.8,0.1-11.4,0.2-17,0.2c0,1-0.1,2-0.1,3.3
			c-0.1,2-0.4,4-0.7,6.3c-0.4,2.3-1.7,10.4-3.2,18c-0.4,2.1-0.8,3.8-1.1,5.3c-0.2,0.8-0.4,1.6-0.6,2.4c-0.1,0.4-0.2,0.8-0.3,1.1
			c-0.1,0.4-0.2,0.7-0.4,1.2c0,0,0,0.1,0,0.1l-0.1,0.3c0,0,0,0.1-0.1,0.1l-0.1,0.2c-0.1,0.2-0.3,0.4-0.4,0.6
			c-0.2,0.3-0.5,0.6-0.7,0.8c-0.5,0.4-0.9,0.8-1.5,1.1c-0.4,0.2-0.8,0.4-1.1,0.5c-0.3,0.1-0.4,0.1-0.4,0.1l-0.1,0l-0.3-1l0.3,1
			c-0.1,0-0.3,0.1-0.6,0.1l-0.1,0c-0.2,0-0.4,0-0.6,0l-0.3,0c0,0-0.1,0-0.1,0l-0.4,0c-1.1-0.2-2-0.6-2.8-1.4l-0.2-0.2
			c-0.2-0.2-0.3-0.4-0.3-0.7l0-0.3c0-0.2,0-0.4,0-0.7c0-0.8-0.1-2.3-0.1-4c0-2.6,0-5.7,0.1-8.7l0.3-9.2c0.1-3,0.1-5.3,0.2-6.2
			c0.1-4.2,0.2-6.8,0.4-9.8l-31.5,0.3c-27.3,0.2-53.3,0.3-77.4,0.3c-35.9,0-70.3-0.2-105.2-0.6l-24.4-0.4l-23.3-0.5
			c-5.7-0.1-11.3-0.3-16.8-0.5c0.2,2.8,0.4,5.5,0.4,9.5c0,0.8,0.1,3.1,0.2,6.2l0.3,9.2c0.1,3,0.1,6.1,0.1,8.7c0,1.8-0.1,3.2-0.1,4
			c0,0.3,0,0.6,0,0.7l0,0.3c0,0.3-0.1,0.5-0.3,0.7l-0.2,0.2c-0.7,0.8-1.7,1.2-2.7,1.4l-0.5,0.1c0,0-0.1,0-0.1,0l-0.4,0
			c-0.2,0-0.4,0-0.6,0l-0.1,0c-0.3,0-0.5-0.1-0.6-0.1c0,0-0.1,0-0.1,0l-0.1,0c0,0,0,0,0,0c0,0-0.2,0-0.4-0.1c-0.3-0.1-0.6-0.2-1-0.5
			c-0.6-0.3-1-0.6-1.5-1c-0.3-0.3-0.5-0.5-0.8-0.9c-0.1-0.1-0.2-0.3-0.4-0.5l-0.1-0.2c0,0,0-0.1-0.1-0.1l-0.1-0.3
			c-0.2-0.5-0.3-0.9-0.4-1.2c-0.1-0.4-0.2-0.7-0.3-1.1c-0.2-0.8-0.4-1.6-0.6-2.4c-0.3-1.5-0.7-3.2-1.1-5.3c-1.5-7.6-2.8-15.8-3.2-18
			c-0.4-2.4-0.6-4.4-0.7-6.3c-0.1-1.3-0.1-2.3-0.1-3.3l-0.7,0c-2.3-0.1-4.6-0.2-6.9-0.3c-1.2-0.1-2.5-0.1-3.7-0.2l-5.5-0.2
			c-2.2,5.6-4,9.8-7.2,16.6l-19.2,40c-0.7,1.4-1.3,2.5-1.9,3.4c-0.7,1.1-1.4,2-2.2,2.7c-0.7,0.7-1.5,1.3-2.3,1.7
			c-0.3,0.1-0.5,0.2-0.7,0.3l-0.2,0.1c0,0-0.1,0-0.1,0l-0.1,0c-0.2,0.1-0.4,0.1-0.6,0.2l-0.6,0.1c0,0-0.1,0-0.3,0l-0.1,0
			c-0.2,0-0.5,0.1-0.9,0.1c-0.4,0-1.2,0.1-2.3-0.2c-0.6-0.2-1.2-0.3-1.8-0.7c-0.8-0.4-1.4-1-1.9-1.7l-0.1-0.2
			c-0.1-0.2-0.2-0.3-0.2-0.5l0-0.2c0-0.6-0.1-1.7,0.2-3.2c0.2-1.6,0.8-3.4,1.5-5.4c0.5-1.3,1.1-2.7,1.8-4.2c0.3-0.7,0.6-1.5,0.9-2.2
			l13.4-31.5c2.8-6.7,4.8-10.8,7.5-16l-13.1-0.8c-0.3,0-0.6,0-0.9-0.1c-0.4,0-0.9-0.1-1.4-0.2c-1-0.2-1.9-0.6-2.8-1.1
			c-1.7-0.9-3.1-2.4-4-4.1c-0.4-0.8-0.8-1.7-1-2.6c-2.6-3.5-5.1-6.9-7.6-10.2l-1-1.4c-4-5.3-7.6-10.1-11.1-15
			c-4.1-5.8-7.4-10.5-10.2-15c-1.7-2.7-3.3-5.4-4.7-7.7c-1.4-2.5-3-5.2-4.4-8c-0.5-0.9-1-1.9-1.4-2.9c-0.2-0.4-0.4-0.9-0.6-1.3
			l-1.9-4.3c-1.1-2.5-2.2-5.3-3.4-8.9c-1-2.9-1.8-6.1-2.6-9.5l-0.2-0.8c-0.3-1.4-0.6-2.8-0.8-4.2c-0.1-0.8-0.3-1.7-0.4-2.5
			c-0.1-0.8-0.2-1.7-0.3-2.5c-0.4-3.9-0.6-7.3-0.5-10.6c0.1-4.1,0.7-7.7,1.6-11.1c1.1-3.9,3-7.6,5.5-10.7c0.2-0.3,0.5-0.6,0.8-0.9
			L34,245c0.1-0.1,0.3-0.3,0.4-0.4c0.2-0.3,0.5-0.5,0.8-0.8l0.5-0.4c0.6-0.5,1.2-1.1,1.9-1.6c1.4-1.1,3.1-2.2,5.3-3.4
			c1.8-1,3.9-2,6.9-3.2c1.3-0.5,2.7-1.1,4.1-1.6c1.4-0.5,2.8-1.1,4.3-1.7c1.5-0.6,3-1.3,4.5-2c0.5-0.3,1.1-0.5,1.6-0.8l0.7-0.3
			c0.8-0.4,1.5-0.9,2.1-1.3c1.5-1.1,2.5-2.3,2.9-3.4c0.1-0.1,0.1-0.2,0.1-0.3c0-0.1,0-0.1,0.1-0.2l0-0.1c0-0.1,0-0.2,0-0.3
			c0-0.4,0-0.8,0-1.2c-0.1-0.7-0.3-1.5-0.7-2.5c-0.2-0.5-0.4-1-0.6-1.4c-0.2-0.5-0.4-1-0.6-1.5l-0.8-2.3c-0.1-0.2-0.1-0.4-0.2-0.6
			l-0.5-1.9c-0.1-0.4-0.2-0.8-0.2-1.1c0-0.2-0.1-0.4-0.1-0.6l-0.3-1.7l-0.2-1.7c-0.1-0.4-0.1-0.9-0.1-1.3l0-0.5c0-0.2,0-0.4,0-0.6
			c0-0.4-0.1-0.8-0.1-1.2c0-0.4,0-0.7,0-1c0-0.8,0-1.7,0-2.6c0.1-2.5,0.4-5.1,0.7-7.3c0.6-4.3,1.6-9.1,3.2-14.9l1-3.8
			c0.4-1.4,0.7-2.6,1.1-3.9c0.5-1.6,1.1-2.8,1.7-4c0.7-1.4,1.7-2.6,2.7-3.6c1.1-1,2.3-1.9,3.7-2.7c1.2-0.7,2.6-1.2,4.1-1.7
			c1.4-0.4,2.7-0.8,4.2-1.2c1.5-0.4,3-0.6,4.3-0.8c5.8-0.9,11.7-1.5,17.2-2c12.4-1.1,25-1.9,35.7-2.5c22.2-1.2,46.2-2.2,73.6-3
			c43.8-1.3,91.1-1.9,129.8-1.5c14.7,0.1,29.3,0.4,41.2,0.7c4.9,0.1,8.8,0.3,11.4,0.4l6.7,0.2l7.6,0.3c5.9,0.3,15.8,0.7,27.9,1.7
			c6.9,0.5,13.2,1.1,19.3,1.8c1.1,0.1,2.2,0.3,3.4,0.4c0.6,0.1,1.3,0.2,1.9,0.2c1.7,0.2,3.6,0.5,5.5,0.8c4.4,0.7,8,1.5,11.4,2.3
			l0.6,0.2c0.8,0.2,1.6,0.4,2.4,0.7l1.4,0.5c0.5,0.2,1,0.4,1.5,0.6c2.2,0.9,4,1.7,5.7,2.5c2.1,1.1,3.9,2.2,5.5,3.5
			c0.8,0.6,1.7,1.4,2.5,2.2l0.6,0.6c0.2,0.2,0.3,0.3,0.4,0.4l0.7,0.8c0.1,0.2,0.3,0.3,0.4,0.5l0.2,0.2c2.7,3.4,4.6,7.7,5.7,12.4
			c0.9,4,1.3,8.4,1.2,13.7c-0.1,4.4-0.5,8.7-1,13.8l-0.7,6.9c-0.2,2.1-0.4,4.5-0.5,6.8c0,2.5,0.1,4.7,0.5,6.7c0,0.3,0.1,0.5,0.2,0.8
			l0.1,0.3c0,0.2,0.1,0.3,0.1,0.5l0.1,0.4c0.1,0.4,0.2,0.8,0.4,1.1c0.3,1,0.8,2,1.4,2.9l0.4,0.7c0.1,0.1,0.1,0.1,0.2,0.2
			c0.4,0.3,0.9,0.5,1.2,0.7c0.9,0.4,1.8,0.7,2.8,1.1l0.4,0.1c2.1,0.7,4.5,1.6,6.8,2.7c2.3,1.1,4.5,2.3,6.5,3.7
			c1.2,0.8,2.1,1.6,3,2.3l0.7,0.6c0.2,0.2,0.3,0.3,0.5,0.5l0.2,0.2c0.4,0.4,0.7,0.8,1.1,1.2l0.2,0.2c1.5,1.9,2.7,4.3,3.6,6.9
			c0.7,2.3,1.1,4.7,1.3,7.5c0,0,0,0,0,0c0.2,4.3-0.2,8.8-1.3,14.7c-0.9,4.6-2,8.8-3.4,13.9l-0.2,0.8c-0.2,0.9-0.5,1.7-0.7,2.6
			c-0.3,1-0.7,2.2-1.1,3.4c-0.7,2-1.5,4.1-2.6,6.6c-1.6,3.8-3.5,7.9-5.7,12.6c-3.7,7.7-7.9,15.6-12.3,23.5
			c-4.6,8.1-8.8,15-12.8,21.2c-2.5,3.8-4.7,6.8-6.7,9.5c-1.4,1.8-2.5,3.1-3.7,4.3c-0.7,0.7-1.4,1.4-2.1,2c-0.6,0.5-1.3,1.1-2.2,1.6
			c-0.6,0.9-1.3,1.6-2.1,2.2c-1,0.7-2.1,1.2-3.3,1.6c-1.3,0.4-2.6,0.6-3.7,0.7c2.2,4.4,4.2,8.5,6.9,14.8l13.4,31.5
			c0.3,0.8,0.6,1.5,0.9,2.2c0.6,1.5,1.2,2.9,1.8,4.3c0.8,2,1.3,3.9,1.5,5.4c0.2,1.5,0.2,2.6,0.2,3.1l0,0.3c0,0.2-0.1,0.4-0.2,0.5
			l-0.1,0.2c-0.5,0.7-1.1,1.3-1.9,1.8c-0.6,0.4-1.2,0.6-1.8,0.7C498.6,449.4,498,449.4,497.5,449.4z M495.7,445.5l0.2,0.1
			c0.1,0,0.2,0.1,0.3,0.1l0.6,0.1c0.1,0,0.3,0,0.5,0.1c0.3,0,0.8,0,1.3-0.1c0.5-0.1,1-0.4,1.3-0.7c0-0.5,0-1.1-0.1-1.8
			c-0.2-1.3-0.6-2.9-1.3-4.6c-0.5-1.3-1.1-2.6-1.7-4.1c-0.3-0.7-0.6-1.5-0.9-2.2l-13.4-31.5c0,0,0,0,0,0c-2.8-6.7-4.4-10.9-6.2-16.1
			c0,0,0,0,0,0c-1.2,0-2.4,0-3.5,0c-0.8,0-1.7,0-2.5,0c-0.5,0-1,0-1.4,0l-0.5,0c-0.3,0-0.6,0-1,0l-3.4,0.1c2.5,4.5,4.6,8.4,7.6,14.5
			l17.4,36.3c0.3,0.6,0.6,1.3,0.9,1.9c0.9,1.8,1.7,3.5,2.5,4.8c0.5,0.8,1.1,1.5,1.6,2c0.6,0.6,1.1,0.9,1.4,1.1
			c0.2,0.1,0.3,0.1,0.4,0.2C495.6,445.4,495.6,445.5,495.7,445.5z M500.8,445.4L500.8,445.4L500.8,445.4z M82.7,444.8L82.7,444.8
			L82.7,444.8z M78.3,443.3c0.3,0.3,0.8,0.6,1.3,0.7c0.5,0.1,0.9,0.1,1.3,0.1c0.2,0,0.4,0,0.5-0.1l0.2,0L82,444c0,0,0.1,0,0.2-0.1
			l0.2-0.1c0.1,0,0.1,0,0.2-0.1c0.1,0,0.2-0.1,0.4-0.2c0.4-0.2,0.9-0.5,1.5-1.1c0.5-0.5,1.1-1.2,1.6-2c0.8-1.3,1.6-3,2.5-4.7
			c0.3-0.6,0.6-1.3,0.9-1.9l17.4-36.3c0,0,0,0,0,0c3.1-6.4,5.2-10.3,7.9-15.1l-7.3-0.3l-5-0.3c-2,5.9-3.7,10.3-6.6,17.3l-13.4,31.5
			c-0.3,0.7-0.6,1.5-0.9,2.2c-0.6,1.5-1.2,2.9-1.7,4.2c-0.7,1.7-1.1,3.3-1.3,4.6C78.3,442.3,78.3,442.9,78.3,443.3z M431,422.7
			c0.1,0,0.1,0,0.2,0l0.1,0l0.1,0c0,0,0.1,0,0.1,0c0,0,0.1,0,0.1,0l0.1,0c0.1,0,0.1,0,0.1,0c0,0,0.1,0,0.1,0l0.1,0c0,0,0.1,0,0.1,0
			c0,0,0,0,0.1,0c0,0,0.2-0.1,0.5-0.2c0.3-0.1,0.5-0.3,0.7-0.5l0,0c0.1-0.1,0.2-0.2,0.3-0.3c0,0,0,0,0.1-0.1c0,0,0.1-0.1,0.1-0.2
			l0.1-0.2c0-0.1,0.1-0.3,0.2-0.8c0.1-0.3,0.2-0.7,0.3-1c0.2-0.7,0.4-1.5,0.5-2.3c0.3-1.5,0.7-3.2,1.1-5.2c1.6-8.1,3-16.9,3.2-17.9
			c0.4-2.4,0.7-4.3,1.2-6.2l0,0c0.2-0.8,0.4-1.6,0.6-2.4c0-0.1,0.1-0.2,0.1-0.4l-10.3,0.1c0.5,3,0.7,5.7,0.7,9.9c0,0.6,0,3-0.2,6.3
			l-0.3,9.2c-0.1,3-0.1,6-0.1,8.6C431,420.6,431,421.9,431,422.7z M148,421.7L148,421.7L148,421.7z M143.9,419.5L143.9,419.5
			c0.1,0.2,0.1,0.2,0.2,0.3c0,0,0,0,0.1,0.1c0.1,0.1,0.2,0.2,0.3,0.4c0.2,0.2,0.5,0.4,0.8,0.5c0.3,0.1,0.4,0.2,0.5,0.2
			c0.1,0,0.1,0.1,0.2,0.1c0.1,0,0.1,0,0.2,0c0,0,0.1,0,0.1,0l0.1,0c0,0,0.1,0,0.1,0l0.2,0l0.2,0c0.1,0,0.1,0,0.1,0
			c0-0.8,0.1-2.2,0.1-3.8c0-2.6,0-5.6-0.1-8.6l-0.3-9.1c-0.1-3.3-0.1-5.6-0.2-6.3c0,0,0,0,0,0c0-4.1,0.2-6.8,0.6-9.7l-10.3-0.3
			c0,0.1,0.1,0.2,0.1,0.4c0.2,0.8,0.4,1.6,0.6,2.4c0.4,1.9,0.8,3.8,1.2,6.2c0.2,1,1.6,9.7,3.2,17.9c0.4,2,0.7,3.7,1.1,5.2
			c0.2,0.8,0.4,1.6,0.5,2.3c0.1,0.3,0.2,0.7,0.3,1C143.8,419,143.8,419.3,143.9,419.5L143.9,419.5z M441.5,388L441.5,388L441.5,388z
			 M117.7,379l5.3,0.2c1.2,0.1,2.5,0.1,3.8,0.2c2.2,0.1,4.5,0.2,6.8,0.3l15.8,0.5c5.6,0.2,11.4,0.4,17.2,0.5l23.3,0.5l24.4,0.4
			c35,0.4,69.4,0.6,105.2,0.6c24.1,0,50.1-0.1,77.4-0.3l21.6-0.2l22.4-0.2c5.9-0.1,12.5-0.2,19.1-0.3c0.1-0.2,0.2-0.3,0.4-0.4
			c0.5-0.2,1-0.1,1.3,0.4l5.4-0.1c0.3,0,0.6,0,0.9,0l0.6,0c0.5,0,1,0,1.6,0c0.9,0,1.7,0,2.6,0c0.8,0,1.6,0,2.4,0
			c0.1-0.3,0.3-0.6,0.6-0.7c0.5-0.2,1.1,0,1.3,0.5l0.1,0.2c1.4,0,3-0.2,4.5-0.6c0.8-0.2,1.4-0.5,2.1-1c-0.6-0.3-1.3-0.6-2-1.1
			c-1.4-0.8-2.8-1.8-4.1-3c-1.2-1-2.4-2.2-3.6-3.4l-0.1-0.1c-0.3-0.3-0.6-0.6-0.9-0.9l-0.1-0.1c-0.9-1-1.6-1.8-2.2-2.6
			c-1.1-1.4-2.1-2.7-3-4c-0.3-0.4-0.5-0.8-0.8-1.2c-0.6-0.9-1.2-1.8-1.8-2.6c-0.8-0.9-1.9-1.6-3.2-2c-1.1-0.3-2.5-0.5-4.3-0.5
			c0,0,0,0,0,0c-1,0-2.1,0.1-3.2,0.1c-0.5,0-1.1,0.1-1.6,0.1c-1.6,0.1-3.3,0.1-4.9,0.2c-3.4,0.1-6.7,0.2-9.9,0.2
			c-5.8,0.1-12.1,0.1-19.9,0.1c-25-0.1-50.8-0.6-75.7-1l-20.4-0.4c-21.2-0.4-43.2-0.8-64.2-1.1c-21.1-0.3-48.7-0.7-75-0.6
			c-13.1,0-24.4,0.2-34.6,0.4c-6.2,0.2-11.5,0.3-16.4,0.6c-4.4,0.2-10.1,0.5-15.6,1.1c-2.2,0.2-4.8,0.6-7.3,1.1
			c-1.1,0.2-2.3,0.6-3.5,0.9c-1.1,0.3-2.4,0.6-3.7,0.9c-3,0.6-5.5,0.8-7.7,0.5l-1-0.1l-1-0.2c-0.3-0.1-0.5-0.2-0.7-0.2l-0.3-0.1
			c-0.3-0.1-0.5-0.2-0.7-0.3l-0.3-0.1c-1.3-0.6-2.4-1.4-3.4-2.4c-0.2-0.2-0.5-0.5-0.7-0.7c0,0.2,0,0.3,0,0.5
			c-0.1,1.7-0.7,3.5-1.8,5.2c-0.4,0.7-0.9,1.4-1.5,2.1c-0.3,0.3-0.5,0.6-0.8,1c-0.2,0.3-0.4,0.5-0.6,0.8c-0.8,1.1-1.2,2.3-1.3,3.6
			c-0.1,1.3,0.2,2.6,0.9,3.8c0.6,1.2,1.6,2.2,2.7,2.8c0.6,0.3,1.2,0.6,1.8,0.7c0.4,0.1,0.7,0.1,1,0.2c0.3,0,0.5,0,0.8,0.1l20.5,1.2
			l9.4,0.4C117.2,378.9,117.5,378.9,117.7,379C117.7,379,117.7,379,117.7,379z M484.2,380L484.2,380L484.2,380z M486.3,378.5
			c0,0.1,0.1,0.1,0.1,0.2c0,0,0,0,0,0c0,0,0,0,0,0c0,0,0-0.1,0.1-0.1C486.4,378.5,486.3,378.5,486.3,378.5
			C486.3,378.5,486.3,378.5,486.3,378.5z M480.1,374.9c0.8,0.6,1.6,1.1,2.4,1.6c0.8,0.5,1.5,0.8,2.2,1.1
			C483.1,376.8,481.6,375.9,480.1,374.9z M502.9,169.1c0.1,0.1,0.1,0.2,0.2,0.3c1.5,2.8,2.8,5.9,3.6,9.3c1.4,5.4,2.1,11.4,2,18.8
			c-0.1,6.1-0.7,12-1.3,18.2l-0.2,2.3c-0.5,5.1-1.1,10.4-1.3,15.6l-0.1,4.5l0.1,2.2l0.1,2.3c0.1,3,0.3,6.2,0.2,9.5
			c-0.1,3.8-0.4,6.9-0.9,9.9c-0.1,0.7-0.3,1.5-0.5,2.2l-0.1,0.3l-0.4,1.3c-0.1,0.2-0.1,0.5-0.2,0.7l-0.1,0.3c0,0,0,0.1,0,0.1
			l-0.1,0.3c-0.4,0.9-1.1,1.8-2,2.5c-0.7,0.6-1.5,1.1-2.4,1.6c-0.9,0.5-1.9,0.9-2.8,1.2c-0.7,0.3-1.3,0.6-2,0.9
			c-0.8,0.4-1.5,0.8-2,1.1c-0.6,0.4-1,0.9-1.4,1.4c-0.2,0.3-0.3,0.5-0.4,0.9l-0.6,1.6c-0.2,0.7-0.4,1.3-0.6,2
			c-0.2,0.7-0.3,1.3-0.5,2l-0.3,1.2c-0.1,0.6-0.3,1.3-0.3,2c-0.9,5.8-1,11.9-1.1,18.4c0,1.5,0,3.1-0.1,4.6c0,2-0.1,3.8-0.2,5.6
			c-0.1,2.5-0.3,4.6-0.6,6.7c-0.2,1.9-0.7,4.8-1.5,7.9c-0.4,1.4-0.9,2.9-1.5,4.4c-0.2,0.5-0.5,1.1-0.7,1.6c-0.1,0.2-0.2,0.4-0.3,0.6
			c-0.3,0.7-0.7,1.3-1.2,2.2c-0.7,1.3-1.5,2.7-2.4,4.1c-1,1.6-2,3.3-2.9,5c-1,1.9-1.8,3.5-2.4,5c-0.8,2-1.3,3.8-1.5,5.5
			c-0.3,2.1-0.1,4,0.4,5.8c0.5,1.8,1.5,3.6,2.9,5.3l0.1,0.1c0.3,0.3,0.5,0.6,0.8,0.8c1.3,1.3,2.8,2.6,4.6,3.7
			c1.9,1.3,3.9,2.4,5.8,3.4c0.3-0.2,0.7-0.5,1-0.8c0.6-0.5,1.2-1.1,1.8-1.7c1-1.1,2.1-2.4,3.5-4.1c2-2.6,4.1-5.5,6.6-9.2
			c4-6.1,8.2-12.9,12.7-21c4.4-7.9,8.5-15.7,12.2-23.3c2.2-4.6,4.1-8.6,5.6-12.4c1-2.4,1.8-4.4,2.5-6.4c0.4-1.2,0.8-2.3,1.1-3.2
			c0.2-0.8,0.5-1.6,0.7-2.5l0.2-0.9c1.3-4.8,2.5-9.2,3.4-13.6l0,0c1.1-5.5,1.5-9.8,1.3-13.8c-0.1-2.5-0.5-4.6-1.1-6.6
			c-0.7-2.3-1.7-4.2-3-5.8l-0.2-0.2c-0.3-0.3-0.5-0.7-0.8-1l-0.2-0.3c-0.1-0.1-0.2-0.2-0.3-0.3l-0.6-0.6c-0.8-0.7-1.7-1.4-2.7-2.1
			c-1.8-1.2-3.8-2.4-6-3.4c-2-0.9-4-1.7-6.5-2.6l-0.4-0.2c-1-0.4-2-0.7-3-1.2c-0.6-0.3-1.3-0.6-1.9-1.1c-0.4-0.3-0.7-0.6-1-1.1
			l-0.5-0.8c-0.7-1.2-1.2-2.4-1.6-3.6c-0.2-0.4-0.3-0.9-0.4-1.4l-0.1-0.4c-0.1-0.2-0.1-0.4-0.2-0.6l-0.1-0.3c-0.1-0.3-0.1-0.6-0.2-1
			c-0.4-2.2-0.6-4.6-0.5-7.4c0-2.5,0.3-5,0.5-7.2l0.7-6.9c0.5-4.4,0.9-9,1-13.5c0.1-5-0.3-9.2-1.1-12.9c-1-4.3-2.6-8-5-11l-0.2-0.2
			c-0.1-0.1-0.2-0.2-0.3-0.3L502.9,169.1z M70.1,359.7l0.6,0.8c1.9,2.7,3.9,5.4,6,8.3c0.2-1.6,0.8-3.2,1.8-4.5
			c0.3-0.4,0.6-0.8,0.9-1.1c0.3-0.3,0.5-0.6,0.8-0.9c0.5-0.6,0.9-1.2,1.3-1.8c0.8-1.3,1.2-2.5,1.3-3.7c0-0.2,0-0.5,0-0.7l0-0.5
			c0-0.3-0.1-0.5-0.1-0.7c0,0,0-0.1,0-0.1c0-0.2-0.1-0.4-0.2-0.7l-0.2-0.5c-0.1-0.2-0.2-0.5-0.3-0.7c-0.7-1.7-1.8-3.1-2.9-4.7
			c-0.7-1-1.4-2-2.1-3.1c-1.6-2.6-2.8-5.6-3.7-9c-0.7-2.7-1.3-5.7-1.7-9.4c-0.3-2.3-0.5-4.6-0.7-6.8c-0.3-3.8-0.7-7.7-1.3-11.5
			c-0.6-3.3-1.3-6.1-2.3-8.6c-1-2.6-2.3-5.2-4.1-7.9c-2.5-4-5.5-7.8-8.4-11.5c-0.8-1-1.6-2.1-2.5-3.1c-1.7-2.2-3.7-4.8-5.5-7.6
			l-1.3-2c-0.5-0.8-0.9-1.4-1.2-2.1c-0.9-1.7-1.5-3.3-1.7-4.8c-0.3-1.8-0.2-3.6,0.4-5.3c0.5-1.5,1.4-2.9,2.6-4.4
			c1.1-1.3,2.2-2.5,3.4-3.5L60,236.9c1.3-1.2,2.6-2.4,3.9-3.6c-1.4,0.7-2.9,1.3-4.4,1.9c-1.5,0.6-3,1.2-4.4,1.7
			c-1.4,0.5-2.7,1.1-4,1.6c-2.9,1.2-4.9,2.1-6.6,3c-2.1,1.1-3.6,2.1-4.8,3.1c-0.6,0.4-1.1,0.9-1.6,1.4c-0.2,0.2-0.3,0.3-0.5,0.5
			c-0.2,0.2-0.4,0.4-0.6,0.6c-0.1,0.1-0.2,0.3-0.4,0.4c-0.1,0.1-0.2,0.2-0.2,0.3c-0.2,0.2-0.4,0.5-0.6,0.7c-2.3,2.8-3.9,6-4.9,9.4
			c-0.9,3.1-1.4,6.5-1.5,10.2c-0.1,3.1,0,6.4,0.4,10.1c0.1,0.8,0.2,1.6,0.3,2.5c0.1,0.8,0.2,1.6,0.3,2.4c0.2,1.3,0.4,2.7,0.7,4
			l0.2,0.8c0.7,3.3,1.5,6.3,2.4,9.1c1.1,3.5,2.1,6.2,3.2,8.7l1.8,4.2c0.2,0.4,0.4,0.9,0.6,1.3c0.4,0.9,0.9,1.9,1.3,2.8
			c1.3,2.7,2.8,5.4,4.2,8c1.3,2.3,2.9,5,4.5,7.7c2.7,4.5,5.9,9.2,9.9,15C62.8,349.7,66.7,355,70.1,359.7L70.1,359.7z M469.6,363.6
			c0.6,0.9,1.3,1.9,2.1,2.8c-0.5-0.9-0.9-1.9-1.2-2.8c0-0.1-0.1-0.2-0.1-0.4c-0.1,0.1-0.2,0.2-0.4,0.3
			C469.9,363.6,469.8,363.6,469.6,363.6z M457.5,354.3c1.5,0,3.4,0.1,5.3,0.6c1,0.3,1.9,0.7,2.7,1.2c0.8,0.5,1.6,1.2,2.3,1.9
			c0.2,0.2,0.4,0.5,0.6,0.7c0-0.6,0.1-1.3,0.1-1.9c0.3-2,0.8-4.1,1.8-6.4c0.7-1.7,1.5-3.4,2.6-5.4c1-1.8,2-3.5,3-5.2
			c0.8-1.4,1.6-2.7,2.3-3.9c3.2-5.4,4.2-10.8,4.8-15.3c0.2-2,0.4-4,0.5-6.5c0.1-1.7,0.2-3.5,0.2-5.5c0-1.5,0.1-3,0.1-4.6
			c0.1-6.6,0.2-12.9,1.2-18.9c0.1-0.7,0.2-1.4,0.4-2.1l0.3-1.3c0.2-0.7,0.3-1.4,0.5-2.1c0.2-0.8,0.5-1.5,0.7-2.2l0.6-1.7
			c0.1-0.2,0.2-0.5,0.3-0.7c0.1-0.2,0.2-0.4,0.3-0.6l0.1-0.2c0.6-0.9,1.4-1.7,2.3-2.4c0.9-0.7,1.8-1.1,2.5-1.5
			c0.7-0.3,1.5-0.7,2.2-0.9c0.9-0.4,1.7-0.7,2.5-1.1c1.5-0.8,2.4-1.6,2.9-2.5c0.2-0.4,0.3-0.9,0.5-1.4c0.1-0.2,0.1-0.5,0.2-0.7
			l0.1-0.3c0.2-0.7,0.3-1.3,0.4-1.9c0.6-2.7,0.9-5.7,1-9.3c0.1-3.1,0-6.3-0.1-9.3l-0.1-2.3l0-2.3l0.1-3.4l0-1.2
			c0.3-5.4,0.9-10.8,1.6-16l0.2-2.1c0.8-6.3,1.4-12,1.6-17.9c0.2-7.2-0.3-12.9-1.6-18.2c-0.8-3.2-1.9-6.1-3.3-8.8
			c-1.1-2.1-2.4-4.2-4-6.1c-0.7-0.5-1.5-0.9-2.3-1.3c-1.6-0.8-3.3-1.6-5.4-2.4c-0.5-0.2-0.9-0.4-1.4-0.5l-1.4-0.4
			c-0.7-0.3-1.4-0.4-2.2-0.7l-0.6-0.2c-3.2-0.8-6.7-1.6-11-2.3c-1.9-0.3-3.7-0.6-5.4-0.8c-0.6-0.1-1.3-0.2-1.9-0.2
			c-1.1-0.1-2.2-0.3-3.3-0.4c-6-0.7-12.3-1.3-19.2-1.8c-12-0.9-21.9-1.4-27.8-1.7l-14.2-0.6c-2.6-0.1-6.5-0.2-11.4-0.4
			c-11.8-0.3-26.4-0.6-41.1-0.7c-38.7-0.3-86,0.2-129.7,1.5c-27.3,0.8-51.4,1.8-73.5,3c-10.6,0.6-23.2,1.4-35.6,2.5
			c-5.2,0.5-11.2,1.1-16.9,2c-1.2,0.2-2.6,0.4-4,0.8c-1.3,0.3-2.6,0.7-3.9,1.1c-2.8,0.9-4.9,2.1-6.4,3.5c-1.5,1.4-2.6,3.4-3.5,6.1
			c-0.4,1.2-0.7,2.4-1.1,3.7l-1,3.7c-1.5,5.7-2.5,10.2-3.1,14.4c-0.3,2.1-0.6,4.5-0.6,6.9c0,0,0,0,0,0c0,0.8,0,1.6,0,2.3
			c0,0.3,0,0.7,0,1c0,0.3,0,0.7,0.1,1c0,0.2,0,0.4,0,0.6c0,0.1,0,0.3,0,0.5c0,0.4,0,0.7,0.1,1.1l0.1,0.9c0.8,1.9,1.6,3.6,2.4,5.1
			c1.3,2.3,2.8,4.5,4.4,6.6c1.7,2.1,3.6,4.1,5.1,5.7c1,1,1.8,2,2.5,2.8c0.4,0.5,0.8,1.1,1.3,1.7c0.4-0.1,0.7-0.2,1.1-0.3l3.6-0.9
			c8.5-2.1,16.9-4.8,25.2-7.9c8.5-3.2,17-7,25.2-11.2c1.8-0.9,3.6-1.9,5.4-2.9c2.2-1.2,4.4-2.4,6.6-3.5c1.8-0.9,3.5-1.7,5.2-2.4
			c0-0.5,0.4-1,0.9-1c0.5,0,1.1,0,1.7,0.2c0.1,0,0.2,0,0.3,0c0.5,0,1,0,1.4,0.1c0.5,0.1,1,0.4,1.4,0.8c0.7,0.6,1.1,1.4,1.3,2
			c0.3,0.4,0.7,0.8,1,1.2c0.2,0.3,0.4,0.5,0.6,0.8l2.2,3.4c0,0,0,0,0,0.1l1,1.9c2,3.8,3.7,7.9,5.3,12.9c1.4,4.3,2.5,8.7,3.8,14
			l0.4,1.5c1.2,4.6,2.4,9.4,4.1,14.6c1.3,3.6,3,8,5.9,12.9c0.9,1.6,2,3.2,3.1,4.9c0.8,1.2,1.6,2.4,2.4,3.7c0.9,1.4,2,3.1,2.9,5
			l0.1,0.2c0.4,0.8,0.9,1.8,1.2,2.9c0.2,0.8,0.2,1.6,0,2.3c-0.2,0.8-0.6,1.6-1.2,2.2c0,0,0,0,0,0l65,2.4c4.1,0.1,9.7,0.2,15.1,3.3
			c1.7,1,2.9,2.2,3.7,3.5c0,0.1,0.1,0.1,0.1,0.2c0.6-0.8,1.3-1.5,2.1-2.1c1.3-1.1,2.8-1.9,4.7-2.6c-0.4-0.5-0.9-1-1.2-1.6
			c-0.7-1-1.2-2.2-1.6-3.5c-0.4-1.1-0.6-2.1-0.9-3c-1-4.3-2-8.5-2.8-13c-0.8-4.3-1.4-8.2-2-12c-1-7.1-1.7-14.2-2.1-21.7
			c-0.3-6.7-0.4-13.5-0.1-20.7c0.1-3.9,0.3-7.3,0.8-10.7c0.6-4.3,1.7-7.9,3.3-11.1c0.1-0.2,0.3-0.4,0.5-0.5c0,0,0,0,0,0
			c1-1.7,2.6-3.1,4.4-4c1.7-0.8,3.6-1.2,5.1-1.4c1.1-0.2,2.2-0.3,3.2-0.4c0.5-0.1,1-0.1,1.5-0.2l4.6-0.6c6.6-0.8,12.8-1.6,18.7-2.3
			c15.9-1.9,28.4-3.5,35.8-4.3c9.3-1,17.6-1.8,25.2-2.4c3.3-0.2,7.3-0.5,11.2-0.7c3.6-0.2,7.2-0.3,10.6-0.3c6.7,0,13.5,0.3,20.7,1
			c1.5,0.1,3,0.3,4.5,0.5c4.7,0.4,9,0.9,13.1,1.6c1.6,0.3,3.3,0.6,4.9,0.9l2.5,0.5c0.3,0.1,0.6,0.1,0.9,0.2c0.1,0,0.2,0.1,0.3,0.1
			c0.2,0.1,0.4,0.1,0.5,0.2l0.2,0.1c0.2,0.1,0.5,0.2,0.7,0.3l0.5,0.3c0,0,0.1,0,0.1,0.1l0.5,0.4c0.2,0.1,0.4,0.3,0.6,0.5l0.1,0.1
			c0.1,0.1,0.2,0.2,0.4,0.3c0.6,0.7,1.2,1.4,1.6,2.3c0.9,1.7,1.2,3.7,0.9,5.5c0,0.4-0.1,0.7-0.2,1.1l-0.1,0.3c0,0,0,0.1,0,0.1
			c-0.1,0.3-0.2,0.7-0.4,1l-1.5,3.6c-0.1,0.2-0.2,0.4-0.2,0.7c0,0.1-0.1,0.3-0.1,0.4l-0.8,2.5c0,0.1-0.1,0.2-0.1,0.3l-0.4,1.7
			c-0.1,0.3-0.1,0.6-0.2,0.8c-0.1,0.5-0.3,1-0.4,1.4l-0.7,3.5c0,0.2-0.1,0.5-0.1,0.7c0,0.1,0,0.3-0.1,0.4
			c-0.9,5.7-1.1,11.8-0.8,18.7c0.2,5.4,0.8,11.1,1.9,18.6c0.7,4.9,1.6,9.9,2.4,14.7l2.9,17.3c1.1-2.3,2.3-4.9,3.6-7.5
			c2.3-4.6,4.6-8.5,7-11.9c2.9-4.3,6-7.7,9.3-10.7c3.8-3.4,7.9-5.9,12.4-7.6l3.6-1.4c0.5-0.2,1,0,1.2,0.4c0.3,0.4,0.2,1-0.2,1.3
			l-2.9,2.5c-6.5,5.6-11.9,12.4-16,20.1c-4.4,8.1-7.2,17.1-8.2,26l-0.1,0.9c0,0.3-0.2,0.6-0.5,0.7c-0.3,0.2-0.6,0.2-0.9,0.1
			l-0.9-0.3c-5.6-1.8-12-2.8-19.4-2.8c-5.9-0.1-11.8,0.4-18.1,0.9l0.5,0c6,0.1,12.9,0.2,19.7,1.6c3.8,0.8,6.9,2,9.7,3.5
			c3.3,1.8,6,4.3,7.9,7.1c1,1.5,1.8,3.1,2.4,4.8c0.6,1.6,1,3.4,1.2,5.3c0.3,3.2,0.1,6.6-0.7,10.5c-0.6,3-1.6,6.2-2.9,9.9
			c-0.5,1.4-1.1,3-1.9,4.8c-0.7,1.6-1.3,3.3-2.4,4.8c-0.6,0.9-1.2,1.7-2,2.3c-0.8,0.7-1.8,1.3-2.7,1.6c-2.1,0.8-4.3,0.7-5.8,0.6
			c-1.2-0.1-2.3-0.3-3.4-0.5c-0.6-0.1-1.1-0.2-1.7-0.3l-5-0.8c-24.8-3.7-51.5-5.7-81.8-6c-28-0.2-56.2,0.9-82.4,2.3
			c-3.9,0.2-7.8,0.4-11.7,0.6c-9.5,0.5-19.4,1-29,1.4c-3.4,0.1-6.9,0.2-10.5,0.3c-19.8,1.9-40.5,2.3-61.5,1.3
			c-11.3-0.6-22.9-1.7-34.5-3.2c-0.5-0.1-1-0.1-1.6-0.2c-1-0.1-1.9-0.2-2.9-0.4l-8.9-1.4l-9.8-1.7c-0.9-0.2-1.5-0.9-1.6-1.8
			c0-0.9,0.5-1.7,1.4-1.9c0.1,0,0.1,0,0.2,0c0.3,0,0.6-0.1,0.8,0c0,0,0,0,0,0l12.3,1.4c25.1,2.7,50.8,4.2,76.4,4.5
			c9.8,0.1,19.7,0,29.4-0.2l5.1-0.5c1-0.1,2-0.2,3-0.3l6.9-0.8c1.1-0.1,2.3-0.3,3.4-0.5l4.7-0.7c1.8-0.3,3.5-0.5,5.1-0.8l6.4-1.1
			c2.4-0.4,4.3-0.8,6-1.3c2.1-0.5,3.8-1.2,5.3-2c0.8-0.4,1.6-0.9,2.3-1.4l0.5-0.4c0.1-0.1,0.2-0.2,0.3-0.3c0.2-0.2,0.4-0.5,0.5-0.8
			c0.3-0.5,0.3-1.2,0.2-1.8c0-0.1-0.1-0.3-0.1-0.4l-0.2-0.6c-0.1-0.2-0.1-0.3-0.2-0.5c-0.1-0.3-0.3-0.7-0.4-1
			c-0.6-1.9-0.9-3.8-1-5.9c-0.1-3.9,0.7-7.7,2.5-11l0.2-0.3c0-0.1,0-0.1,0-0.2c0.7-2.9,2.2-5.6,4.4-7.9c0-0.3,0-0.6-0.1-0.9
			c-0.1-0.5-0.3-1-0.5-1.4c-0.5-0.8-1.3-1.6-2.4-2.3c-0.9-0.6-2-1-3.3-1.5c-1-0.3-2.1-0.6-3.4-0.8c-1.1-0.2-2.2-0.3-3.3-0.4
			l-23.1-0.9l-48.9-1.8c-0.1,0-0.1,0.1-0.2,0.1c-0.9,0.4-1.9,0.4-2.7,0c-0.1,0-0.2-0.1-0.3-0.2l-9.8-0.4c-4.2-0.2-8.5-0.3-13.2-0.4
			c-4.4-0.1-10.3-0.2-16.8,0c-1.8,0.1-3.7,0.1-5.5,0.2l-0.2,0c-0.7,0.1-1.4,0.2-2.2,0.3c-4.3,0.8-8.8,1.7-13.2,2.8l-3.2,0.8
			c-0.7,0.2-1.3,0.4-2,0.6c-0.4,0.1-0.7,0.2-1.1,0.3c-0.7,0.2-1.3,0.4-2,0.6c-1.4,0.4-2.8,0.8-4.3,1.1c-1.3,0.2-2.4,0.4-3.4,0.3
			c-1.2,0-2.3-0.2-3.4-0.6c-1.4,0.5-2.8,1.1-4.1,1.7c-1.8,0.9-3.4,1.8-4.8,2.9c-1.6,1.2-2.9,2.5-3.8,3.9c-0.3,0.4-0.5,0.8-0.7,1.1
			c-0.3,0.5-0.5,1-0.7,1.6c0.7-0.1,1.5-0.1,2.3-0.2c2.4-0.2,4.8-0.3,7.2-0.3c0,0,0.1,0,0.1,0c2.8,0,5.5,0.1,8.2,0.3
			c3,0.3,6,0.7,9,1.2l2,0.4c0.4,0.1,0.7,0.4,0.8,0.8s-0.1,0.8-0.4,1.1l-2.9,1.9c0,0-0.1,0-0.1,0.1l-0.9,0.5
			c-0.3,0.1-0.5,0.3-0.9,0.4l-0.9,0.3c0,0-0.1,0-0.1,0l-1.1,0.3c-0.3,0.1-0.6,0.1-0.9,0.2c-0.1,0-0.3,0-0.4,0.1
			c-0.5,0.1-0.9,0.1-1.4,0.2c-1.8,0.2-3.8,0.1-6.1-0.1c-1.7-0.2-3.6-0.5-5.5-0.8l-1.5-0.2c-0.6-0.1-1.3-0.2-1.9-0.3
			c-0.7-0.1-1.3-0.1-1.9-0.2c-1.3-0.1-2.6,0-3.9,0.1c-1.4,0.2-2.8,0.5-4,0.9c-1.4,0.5-2.7,1.2-3.7,2c-1.1,0.9-1.9,2-2.2,3.2
			c-0.2,0.6-0.3,1.3-0.3,2c0,0.7,0.2,1.4,0.4,2.2c0.5,1.7,1.5,3.3,2.2,4.6c0.4,0.6,0.8,1.3,1.2,1.9c0.6,1,1.3,2,1.9,3.1
			c0.6,1.1,1.1,2,1.4,3c0.5,1.3,0.7,2.5,0.7,3.6c0,1.3-0.3,2.7-1,3.9c-0.6,1.2-1.5,2.1-2.3,2.9l-0.3,0.3c-0.7,0.6-1.3,1.2-1.7,1.9
			c-0.4,0.7-0.7,1.4-0.7,2.1c-0.1,1.5,0.8,3.3,2.2,4.7c0.7,0.7,1.5,1.2,2.3,1.6c0.1,0,0.1,0.1,0.2,0.1c0.1,0.1,0.3,0.1,0.4,0.2
			l0.7,0.2l0.7,0.2l0.8,0.1c1.8,0.2,3.9,0.1,6.5-0.5c1.2-0.2,2.4-0.6,3.5-0.8l0.1,0c1.2-0.3,2.3-0.6,3.6-0.9
			c2.7-0.5,5.4-0.9,7.7-1.1c5.6-0.6,11.1-0.9,15.8-1.1c4.9-0.2,10.2-0.4,16.5-0.6c10.2-0.2,21.5-0.4,34.7-0.4
			c26.3,0,54,0.3,75.1,0.6c21,0.3,43,0.7,64.3,1.1l20.4,0.4c24.9,0.5,50.6,0.9,75.5,1c7.7,0,14,0,19.8-0.1c3.1,0,6.4-0.1,9.8-0.2
			c1.6,0,3.3-0.1,4.9-0.2c0.5,0,1-0.1,1.6-0.1C455.2,354.4,456.3,354.3,457.5,354.3z M78.7,229.2C78.7,229.2,78.7,229.2,78.7,229.2
			c-0.8,0-1.6,0.1-2.3,0.2c-0.8,0.2-1.6,0.3-2.2,0.6c-0.7,0.2-1.5,0.5-2.2,0.8c-0.7,0.3-1.4,0.7-2,1.1c-0.8,0.5-1.4,0.9-1.9,1.3
			c-2.3,1.7-4.3,3.7-6.3,5.6l-11,10.7c-1,1-2.1,2.1-3.1,3.3c-1,1.3-1.7,2.5-2.1,3.7c-0.4,1.2-0.5,2.6-0.2,3.9c0.2,1.2,0.7,2.5,1.5,4
			c0.3,0.6,0.7,1.2,1.1,1.9l1.2,1.9c1.8,2.7,3.8,5.2,5.4,7.4c0.8,1,1.6,2.1,2.5,3.1c3,3.7,6.1,7.6,8.7,11.8c1.8,2.9,3.3,5.7,4.3,8.4
			c1.1,2.6,1.9,5.6,2.6,9.1c0.7,3.9,1.1,7.9,1.4,11.8c0.2,2.2,0.4,4.5,0.7,6.7c0.4,3.6,1,6.4,1.6,8.9c0.9,3.2,2,5.9,3.4,8.2
			c0.6,1,1.2,1.9,1.9,2.9c0.6,0.9,1.2,1.7,1.8,2.7c0,0,0,0,0,0c0-0.3,0.1-0.6,0.2-0.8c0-0.1,0.1-0.2,0.1-0.3l0.1-0.3
			c0,0,0-0.1,0-0.1l0.3-0.7c0.2-0.4,0.4-0.7,0.5-0.9c0.6-1,1.4-1.7,2.1-2.4l0.3-0.3c0.6-0.6,1.3-1.3,1.6-2c0.4-0.7,0.6-1.4,0.5-2.2
			c0-1.6-0.9-3.4-1.7-4.8c-0.6-1-1.2-2-1.8-2.9c-0.4-0.7-0.9-1.3-1.3-2c-0.9-1.5-2-3.4-2.6-5.5c-0.3-1.1-0.5-2.1-0.5-3.1
			c0-1.1,0.1-2.2,0.4-3.2c0.5-1.9,1.8-3.7,3.4-5c1.3-1.1,2.9-2,4.7-2.6c0.8-0.3,1.6-0.5,2.4-0.7c-0.3-0.4-0.1-0.8,0-1
			c0-0.3,0.1-0.5,0.1-0.9l0-0.2c0,0,0-0.1,0-0.1c0,0,0,0,0-0.1c0,0,0,0,0,0l0,0c0,0,0,0,0,0c0.1-0.3,0.2-0.7,0.3-1c0,0,0,0,0,0
			c0,0,0,0,0,0c0.1-0.4,0.3-0.9,0.5-1.3c0,0,0,0,0,0c0-0.1,0.1-0.2,0.1-0.3l0-0.1c0-0.1,0.1-0.1,0.1-0.2c0-0.1,0.1-0.2,0.1-0.3
			l0.1-0.2c0,0,0,0,0,0c0,0,0,0,0,0c0,0,0,0,0,0h0l0,0c0-0.1,0.1-0.1,0.1-0.2l0.3-0.5c0-0.1,0.1-0.1,0.1-0.2
			c0.1-0.2,0.2-0.4,0.4-0.6c1.2-1.7,2.7-3.3,4.6-4.8c1.6-1.2,3.3-2.2,5.4-3.2c0.5-0.3,1.1-0.5,1.7-0.8c-0.7-0.6-1.2-1.2-1.6-1.8
			c-1.1-1.4-2-3.1-2.8-5.3c-0.7-1.9-1.2-3.7-1.5-5.1l-1.1-4.5l-1.1-4c-0.8-2.6-1.4-4.6-2-6.3l-1-2.7c-0.2-0.5-0.3-0.9-0.5-1.2
			l-0.8-1.7l-0.5-1c-0.5-1-1.2-2.3-1.9-3.7c-0.1-0.2-0.2-0.4-0.4-0.6c-0.4-0.6-0.7-1.3-1.2-1.9c-0.1-0.2-0.2-0.3-0.3-0.5
			c-0.2-0.3-0.4-0.6-0.6-0.9l-1.2-1.6c-0.8-1-1.6-2-2.5-2.9c-0.1-0.1-0.2-0.2-0.3-0.3c-0.1-0.2-0.3-0.3-0.4-0.5l-2.5-2.4
			c-1.1-1.1-2.5-2.5-3.6-4.3c-0.6-1.1-1-2.2-1.1-3.3c-0.1-1.3,0.2-2.6,0.9-3.7c0.6-1,1.5-1.9,2.7-2.6c0.4-0.2,0.7-0.4,1.1-0.6
			c-0.4-0.2-0.9-0.4-1.4-0.5C80.2,229.3,79.4,229.2,78.7,229.2z M192.3,342.3c0.1,0.2,0.2,0.4,0.2,0.6c0,0.2-0.1,0.4-0.2,0.6
			c8.6-0.2,17.1-0.6,25.4-1.2c-7.8,0.1-15.6,0.2-23.4,0.1C193.6,342.3,193,342.3,192.3,342.3z M350.3,335.5c2.4,0,4.9,0,7.3,0
			c30.5,0.3,57.4,2.2,82.3,6l5,0.8c0.6,0.1,1.2,0.2,1.7,0.3c1.1,0.2,2.1,0.3,3.2,0.4c1.7,0.2,3.1,0,4.2-0.4c1.1-0.4,2.1-1.3,2.9-2.5
			c0.8-1.2,1.4-2.6,2-4.2c0.7-1.7,1.3-3.2,1.8-4.6c1.3-3.5,2.2-6.5,2.8-9.4c0.7-3.5,0.9-6.6,0.6-9.4c-0.2-1.6-0.5-3.1-1-4.4
			c-0.5-1.4-1.2-2.8-2-4c-1.6-2.3-3.9-4.4-6.7-5.9c-2.4-1.3-5.3-2.4-8.7-3.1c-2.7-0.6-5.8-1-9.4-1.2c-2.9-0.2-5.8-0.2-8.6-0.3
			l-20-0.3c-14.4-0.2-26.2-0.3-37.1-0.2c-26.1,0.1-48.6,1-68.8,2.8c-3,0.2-5.5,0.5-7.9,0.9c-2.8,0.5-5.1,1.1-7.2,2
			c-1.1,0.4-2.1,1-3.1,1.7c-0.3,0.2-0.6,0.4-0.9,0.7c-0.1,0.2-0.1,0.3-0.2,0.5c-0.4,1.3-0.6,2.7-0.9,4.2c-0.2,0.9-0.3,1.9-0.6,2.8
			c0,0.2-0.1,0.4-0.1,0.6l-0.3,0.9c0,0.1-0.1,0.3-0.2,0.5c-0.2,0.6-0.7,1.2-1.3,1.6c-0.6,0.4-1.2,0.6-1.9,0.5
			c-0.4,0-0.8-0.1-1.1-0.2c-0.7,2.1-1,4.3-1,6.5c0.1,1.7,0.3,3.3,0.8,4.9c0.1,0.3,0.2,0.5,0.3,0.8c0.1,0.2,0.1,0.3,0.2,0.5l0.3,0.7
			c0.1,0.4,0.2,0.7,0.2,1v0c0.2,1.3,0,2.7-0.5,3.9c-0.3,0.6-0.6,1.2-1.1,1.7c-0.2,0.2-0.4,0.5-0.7,0.7l-0.6,0.5
			c-0.9,0.6-1.8,1.2-2.8,1.8c-1.8,0.9-3.8,1.7-6.1,2.3c-1.1,0.3-2.3,0.6-3.7,0.8c0.5,0,1.1-0.1,1.6-0.1c3.9-0.2,7.8-0.4,11.7-0.6
			C298.9,336.6,324.6,335.5,350.3,335.5z M242.9,339.9l-0.4,0.1c-1.1,0.2-2.3,0.3-3.4,0.5l-6.9,0.8c-0.8,0.1-1.6,0.2-2.4,0.3
			c1.6-0.1,3.1-0.1,4.6-0.2c2.9-0.1,5.8-0.2,8.7-0.4c-0.1-0.2-0.2-0.3-0.2-0.5C242.7,340.2,242.8,340,242.9,339.9z M108.4,336.7
			l6.6,1.2l8.8,1.4c0.9,0.1,1.9,0.3,2.8,0.4c0.5,0.1,1,0.1,1.6,0.2c1.7,0.2,3.5,0.5,5.2,0.7c-0.1-0.2-0.2-0.4-0.1-0.6
			c0-0.2,0.1-0.4,0.3-0.6c-5.3-0.5-10.6-1-15.9-1.5L108.4,336.7z M109,310c0.4,0.1,0.9,0.1,1.3,0.2c1.6,0.2,3,0.2,4.2,0.2
			C112.7,310.2,110.8,310,109,310z M121.4,309.6c0,0.1,0.1,0.2,0.1,0.3c0,0.1,0,0.2,0,0.3l0.3-0.2l0.5-0.3
			C122,309.7,121.7,309.6,121.4,309.6z M275.8,309.5c-0.1,0.2-0.2,0.3-0.3,0.5c0,0,0,0,0.1,0c0.1,0,0.2,0,0.3,0c0,0,0,0,0,0
			c0,0,0-0.1,0-0.1C275.8,309.7,275.8,309.6,275.8,309.5z M276.8,309.4L276.8,309.4L276.8,309.4z M280.8,298.9
			c0.1,0.5,0.1,0.9,0,1.4c0,0.2-0.1,0.5-0.3,0.6c-1.9,1.9-3.2,4.1-3.9,6.4l0.3-0.5c0.2-0.2,0.3-0.4,0.5-0.6l0.3-0.3
			c0.1-0.1,0.2-0.2,0.3-0.3l0.3-0.4c0.3-0.4,0.8-0.5,1.2-0.3c0.1,0.1,0.2,0.1,0.3,0.2c0.3-1.4,0.5-2.8,0.9-4.2
			c0.1-0.3,0.2-0.6,0.3-0.9c0.1-0.2,0.2-0.3,0.3-0.4c0.5-0.4,0.9-0.7,1.3-1c0.2-0.1,0.4-0.2,0.6-0.4c-0.1-0.1-0.3-0.1-0.4-0.3
			c-0.1-0.1-0.2-0.2-0.2-0.4c0,0-0.1,0.1-0.1,0.1c-0.1,0.2-0.2,0.4-0.3,0.6c-0.2,0.4-0.6,0.6-1,0.5
			C281,298.9,280.9,298.9,280.8,298.9z M111,293.7c0.5,0.2,1.1,0.3,1.6,0.4c-0.1-0.1-0.1-0.3-0.2-0.4c0-0.2,0-0.3,0-0.5
			C112,293.4,111.5,293.5,111,293.7z M109.4,293.5c0,0.1,0,0.2,0,0.2c0,0.1,0,0.1,0,0.2c0.2-0.1,0.3-0.1,0.5-0.2
			c-0.1,0-0.1-0.1-0.2-0.1L109.4,293.5z M303.9,291.4c-0.6,0.2-1.2,0.4-1.7,0.6c15.1-1.3,31.4-2.1,49.6-2.5
			c-3.9-0.1-7.7-0.2-11.5-0.2c-8.1-0.1-15.7,0.2-23.2,0.7l-6.3,0.5l-6.4,0.8C304.3,291.4,304.1,291.4,303.9,291.4z M110.3,291.7
			l0.2,0.1c6.6-2.2,13.5-3.8,21-4.9c4.2-0.6,8.6-1,13.3-1.3c3.9-0.6,7.7-1.1,11.5-1.5c4.4-0.4,8.9-0.7,14-0.8
			c4.2-0.1,8.6,0,13.6,0.3l1.2,0.1c0.7,0,1.4,0.1,2.1,0.1l4,0.4c0.2,0,0.5,0,0.7,0.1c0.5,0,0.9,0,1.3,0c0.1,0,0.2,0,0.3,0
			c-0.4-0.8-1-1.5-1.5-2.1c-0.4-0.4-0.9-0.9-1.3-1.3c-0.4-0.4-0.8-0.7-1.1-1.1c-3.3-3.2-6.3-6.7-9.1-10.5c-2.9-4-5.4-8.1-7.6-12.6
			c-2.5-5.2-4.5-10.4-6-16.1l-0.7-2.8c-0.2-0.7-0.3-1.4-0.4-2.2l-0.2-1.2c-0.4-2.4-0.8-5.2-1.2-8.5l-1-10.2
			c-0.2-1.6-0.4-3.5-0.7-5.5c-0.3-2.2-0.7-4.1-1-5.8l0-0.2c-0.1-0.4-0.2-0.8-0.3-1.1c-0.1-0.3-0.2-0.5-0.3-0.5c0,0,0,0-0.1,0
			c-0.2,0-0.5,0.1-1,0.3c-1.8,0.7-3.7,1.6-5.8,2.6c-2.1,1.1-4.2,2.2-6.5,3.4c-1.8,1-3.6,1.9-5.5,2.9c-8.3,4.3-17,8.2-25.6,11.4
			c-8.3,3.1-16.9,5.8-25.6,8l-3.7,0.9c-0.3,0.1-0.7,0.2-1,0.3c0,0-0.1,0.1-0.1,0.1c-0.2,0.1-0.4,0.2-0.7,0.1c-0.1,0-0.2,0.1-0.3,0.1
			c-0.9,0.3-1.7,0.6-2.3,1c-0.6,0.4-1.1,0.8-1.4,1.3c-0.3,0.5-0.4,1-0.4,1.6c0,0.5,0.2,1.1,0.6,1.8c0.7,1.3,1.9,2.4,3,3.5l2.6,2.5
			c0.2,0.2,0.4,0.4,0.5,0.6c0.1,0.1,0.2,0.2,0.3,0.3c1,1.1,1.9,2.2,2.7,3.2l0.1,0.1L92,250c0.2,0.3,0.5,0.7,0.7,1
			c0.1,0.2,0.2,0.3,0.3,0.5c0.5,0.7,0.9,1.5,1.3,2.1c0.1,0.2,0.2,0.4,0.4,0.6c1.1,1.9,1.7,3.2,2.1,4l0.7,1.4l0.6,1.4
			c0.2,0.4,0.3,0.8,0.6,1.3l1.1,2.8c0.6,1.7,1.3,3.9,2.1,6.5l1.1,4.1l1.1,4.5c0.3,1.3,0.8,2.9,1.4,4.7c0.7,1.8,1.4,3.2,2.3,4.4
			c0.5,0.7,1.1,1.3,1.7,1.7l0.6,0.4c0,0,0.1,0,0.1,0.1L110.3,291.7z M291.3,291.3c0,0.1,0,0.2,0,0.2c0,0.1,0,0.1-0.1,0.2
			c0.2-0.1,0.4-0.1,0.7-0.2C291.6,291.4,291.4,291.4,291.3,291.3z M293.5,291.6c0.6,0.1,1.3,0.1,1.9,0.1c1.3-0.1,2.7-0.3,4.5-0.9
			c0.5-0.2,1.1-0.4,1.7-0.6l-3.9,0.6c-0.4,0.1-0.7,0.1-1.1,0.2c-0.7,0.1-1.5,0.2-2.2,0.4C294,291.4,293.8,291.5,293.5,291.6z
			 M129.4,289.2c0.1,0.1,0.2,0.3,0.3,0.5c0,0.2,0,0.4-0.1,0.6c3.8-0.9,7.6-1.8,11.4-2.5c-3.2,0.3-6.3,0.6-9.2,1
			C131,289,130.2,289.1,129.4,289.2z M280.8,203.9c-0.1,0.4-0.1,0.8-0.2,1.3c-0.4,3.7-0.5,7.3-0.5,10.4c0,7.1,0.2,13.8,0.6,20.4
			c0.5,7.4,1.3,14.5,2.3,21.4c0.6,3.7,1.2,7.6,2,11.8c0.9,4.4,1.8,8.6,2.8,12.8c0.2,0.8,0.4,1.7,0.8,2.7c0.4,1,0.8,1.9,1.3,2.7
			c0.3,0.4,0.6,0.8,0.9,1.1c0.3,0.3,0.7,0.6,1.2,0.8c0.2,0.1,0.3,0.2,0.5,0.2c0.4-0.1,0.8-0.2,1.3-0.3c0.8-0.2,1.6-0.3,2.3-0.4
			c0.4-0.1,0.7-0.1,1.1-0.2l5-0.8c0.2,0,0.5-0.1,0.7-0.1l0.9-0.3c1.9-0.8,4-1.6,6.1-2.5c-1.5-0.5-2.8-1.2-3.9-2.2
			c-1.4-1.2-2.6-3-3.1-5c-0.5-1.8-0.7-3.6-0.7-5.4c0-1.1-0.1-2.2-0.2-3.3c0-0.6-0.1-1.2-0.1-1.8l-0.3-3.7l-0.4-3.8l-0.4-2.5
			c-0.1-0.9-0.3-1.7-0.4-2.5c-0.1-0.3-0.1-0.6-0.2-0.9c-0.1-0.5-0.2-1.1-0.3-1.6c-2.6-13.3-7.6-26.6-14.4-38.4l-0.4-0.7
			c-1.6-2.8-3.3-5.7-4.2-9C280.9,204.3,280.9,204.1,280.8,203.9z M308.5,287.9c-1.2,0.5-2.3,0.9-3.4,1.4l3.7-0.4
			c-0.1-0.1-0.2-0.3-0.2-0.4C308.5,288.2,308.5,288,308.5,287.9z M456.7,286.5c2.2,0.4,4.3,0.8,6.4,1.4c1.2-8.8,4.1-17.2,8.4-25.2
			c2.3-4.1,4.9-8.1,7.8-11.7c-0.2,0.2-0.4,0.3-0.6,0.5c-3.1,2.7-6,6-8.8,10c-2.3,3.3-4.5,7-6.8,11.5c-2.2,4.2-4.1,8.4-5.7,12
			L456.7,286.5z M338.2,285.7c0.7,0,1.4,0,2.1,0c6.5,0.1,13.1,0.2,20.2,0.5l16.7,0.6c13.9,0.5,30.2,0.9,45.8-0.3l2.9-0.2
			c6.4-0.5,12.5-0.9,18.6-0.8c3.5,0,6.8,0.3,9.9,0.7l-3.9-23.7c-0.8-4.9-1.6-9.9-2.3-14.9c-1-7.5-1.6-13.3-1.8-18.9
			c-0.2-7.1,0.1-13.3,1-19.2l0.1-0.4c0-0.3,0.1-0.5,0.1-0.8l0.7-3.5c0.1-0.5,0.3-1.1,0.4-1.6c0.1-0.3,0.1-0.5,0.2-0.8l0.5-1.8
			c0-0.2,0.1-0.3,0.1-0.4l0.8-2.5c0-0.1,0.1-0.3,0.1-0.4c0.1-0.3,0.2-0.5,0.3-0.8l1.5-3.6c0.1-0.3,0.2-0.5,0.3-0.8
			c0-0.1,0-0.2,0.1-0.3c0.1-0.2,0.1-0.5,0.1-0.7c0,0,0,0,0-0.1c0.2-1.3,0-2.7-0.6-4c-0.3-0.6-0.7-1.2-1.2-1.7
			c-0.1-0.1-0.1-0.1-0.2-0.2c-0.1-0.1-0.1-0.1-0.2-0.2c-0.1-0.1-0.2-0.2-0.3-0.3l-0.5-0.3l-0.5-0.3c-0.1-0.1-0.3-0.1-0.4-0.2
			l-0.2-0.1c-0.1,0-0.2-0.1-0.3-0.1c-0.1,0-0.2-0.1-0.4-0.1c-0.2-0.1-0.4-0.1-0.7-0.2l-2.4-0.5c-1.3-0.3-2.8-0.6-4.3-0.8
			c-6.1-0.8-12-1.4-17.9-1.8c-7.1-0.5-13.8-0.6-20.4-0.5c-3.5,0.1-7,0.3-10.5,0.5c-3.4,0.2-6.9,0.5-11.1,0.8
			c-7.5,0.6-15.8,1.5-25.1,2.5c-7.2,0.8-19.4,2.3-34.9,4.2c-6,0.7-12.6,1.5-19.4,2.4l-4.6,0.6c-0.5,0.1-1,0.1-1.5,0.2
			c-1.1,0.1-2.1,0.3-3.1,0.4c-1.3,0.2-2.8,0.5-4.1,1.1c-1.2,0.6-2.2,1.4-2.8,2.5c-0.7,1.1-1.1,2.5-1.2,3.9c-0.1,0.7,0,1.5,0,2.2
			c0.1,0.7,0.2,1.4,0.4,2.2c0.8,2.8,2.3,5.5,3.9,8.3l0.3,0.5c7,12.2,12.2,25.8,14.8,39.5c0.1,0.6,0.2,1.1,0.3,1.7l0.2,0.9
			c0.2,0.8,0.3,1.7,0.4,2.6l0.5,3.4l0.4,3l0.3,3.9c0,0.6,0.1,1.2,0.1,1.7c0.1,1.1,0.1,2.3,0.2,3.4c0.1,1.7,0.2,3.2,0.6,4.5
			c0.4,1.3,1.1,2.5,2,3.2c0.9,0.8,2.2,1.4,3.6,1.8c1.2,0.3,2.5,0.5,4.1,0.6c1-0.4,2.1-0.9,3.1-1.3c0.9-0.4,1.9-0.8,2.8-1.1l2.9-1.1
			c0.4-0.2,0.9-0.3,1.3-0.5c1.5-0.6,3.1-1.1,4.7-1.6l4.6-1.4l1.6-0.4c8.1-2.2,17-3.8,26.3-4.8c8.2-0.9,17.2-1.4,26.8-1.4
			c7.5,0,15.2,0.1,25,0.6c3,0.1,5.9,0.3,8.7,0.4l7.7,0.4c1.4,0.1,3.2,0.2,5,0.4c3.5,0.4,6.5,1.3,8.9,2.5c1.3,0.7,2.4,1.5,3.4,2.5
			l0.7,0.7c0,0,0,0,0.1,0.1c0.1,0.2,0.3,0.4,0.4,0.5l0.2,0.3c0.1,0.1,0.1,0.2,0.2,0.3l1,2c0.1,0.3,0.2,0.6,0,0.8
			c-0.1,0.3-0.3,0.5-0.6,0.6l-0.9,0.3c-3,1-6.2,1.8-9.3,2.3c-2.6,0.4-5.4,0.7-8.7,0.7c-2.8,0.1-5.4,0-7.8,0l-6.9-0.1
			c-8.4-0.1-14.9-0.2-20.8-0.2l-14.3,0l-8.7,0.1c-8.1,0.1-15.7,0.3-23.4,0.5c-4.6,0.1-9.7,0.3-15.8,0.5L321,286
			c-1.3,0.1-2.7,0.1-4.2,0.1l-1.1,0.5l1.1-0.1C323.8,286,330.8,285.7,338.2,285.7z M162.3,285.7c-2,0.1-3.9,0.3-5.8,0.5
			c-2.4,0.2-4.8,0.5-7.3,0.9c0.5,0,1.1,0,1.6-0.1c4.2-0.1,8.1-0.1,11.5-0.1c-0.1-0.2-0.2-0.4-0.2-0.6
			C162.2,286,162.2,285.8,162.3,285.7z M314.1,284.3c0.1,0.1,0.1,0.2,0.1,0.4c0,0.1,0,0.2,0,0.4c0.1,0,0.2-0.1,0.3-0.1l1.1-0.5
			C315.1,284.4,314.6,284.3,314.1,284.3z M317.4,284.1c0.8,0,1.6,0,2.4,0c-0.1-0.1-0.2-0.3-0.2-0.4c0-0.2,0-0.3,0-0.5
			C318.9,283.4,318.1,283.7,317.4,284.1z M392.2,272.5c-9.2,0-18.8,0.4-28.3,1.4c-9.2,1-17.9,2.6-25.8,4.7l-1.9,0.5l-4.2,1.3
			c-1.5,0.4-3.1,1-4.5,1.5c-0.2,0.1-0.4,0.1-0.6,0.2l7.2-0.3c6.1-0.2,11.3-0.4,15.9-0.5c7.7-0.2,15.4-0.4,23.4-0.5l12-0.1l11.1,0
			c5.9,0,12.4,0,20.8,0.2l6.9,0.1c2.3,0,4.9,0.1,7.6,0c3.1-0.1,5.7-0.3,8.2-0.7c2.2-0.3,4.4-0.8,6.5-1.5l-0.4-0.4
			c-0.7-0.7-1.5-1.3-2.5-1.8c-2-1-4.6-1.7-7.6-2.1c-1.7-0.2-3.4-0.3-4.7-0.4l-7.7-0.4c-2.8-0.1-5.7-0.3-8.7-0.4
			C407.9,272.8,400.2,272.5,392.2,272.5z M166.1,208.3c0.1,0.4,0.1,0.9,0.2,1.3c0.3,2.1,0.5,4.1,0.7,5.7l1,10.2
			c0.3,3.1,0.7,5.9,1.1,8.2l0.2,1.2c0.1,0.7,0.3,1.4,0.4,2l0.6,2.7c1.4,5.4,3.2,10.4,5.6,15.5c2.1,4.3,4.4,8.3,7.1,12.3
			c2.6,3.8,5.4,7.2,8.4,10.4c0.3,0.4,0.7,0.7,1,1.1c0.5,0.5,0.9,1,1.4,1.5c0.3,0.3,0.6,0.7,0.9,1.1c-0.2-0.4-0.4-0.8-0.6-1.2
			c-0.9-1.8-1.9-3.4-2.8-4.8c-0.8-1.2-1.6-2.4-2.3-3.6c-1.2-1.8-2.2-3.4-3.2-5c-0.4-0.7-0.8-1.4-1.2-2l-1-2
			c-0.1-0.2-0.2-0.4-0.3-0.7c-0.2-0.4-0.4-0.8-0.6-1.2l-1.5-3.4l-0.6-1.6c-0.1-0.4-0.3-0.7-0.4-1c-0.2-0.6-0.4-1.2-0.6-1.7
			c-1.9-5.7-3.2-11.1-4.3-15.8l-0.5-1.9c-1-4.4-2-8.6-3.2-12.6c-1.4-4.9-2.9-8.9-4.7-12.6L166.1,208.3z M539,277.5L539,277.5
			L539,277.5z M486.4,244.7c0,0,0.1,0.1,0.1,0.1c0,0.1,0.1,0.1,0.1,0.2c0.3-0.3,0.7-0.6,1-0.9C487.3,244.3,486.8,244.5,486.4,244.7z
			 M72.1,215.9c0.1,0.2,0.1,0.3,0.2,0.5c0.2,0.5,0.4,1,0.6,1.6c0.3,0.9,0.7,2.1,0.9,3.4c0.1,0.7,0.1,1.3,0,1.9c0,0.2,0,0.5-0.1,0.7
			l0,0.2c0,0,0,0.1,0,0.1c0,0.1,0,0.2-0.1,0.2c0,0.2-0.1,0.4-0.2,0.7c-0.4,1.1-1,2.1-1.8,3.1c-0.1,0.1-0.1,0.1-0.2,0.2
			c0.7-0.3,1.4-0.5,2-0.7c0.8-0.2,1.6-0.4,2.5-0.6c0.8-0.1,1.7-0.2,2.6-0.2c0.9,0,1.8,0.1,2.7,0.3c-0.4-0.4-0.8-0.9-1.2-1.3
			c-1.6-1.8-3.5-3.7-5.2-5.9C73.9,218.6,73,217.3,72.1,215.9z M68.5,199.3L68.5,199.3L68.5,199.3z"/>
	</g>
	<g>
		<path class="st4" d="M95.3,306.8C95.3,306.8,95.3,306.7,95.3,306.8C95.3,306.7,95.3,306.8,95.3,306.8z"/>
		<path class="st5" d="M95.3,307.8c-0.1,0-0.2,0-0.3,0c-0.5-0.1-0.8-0.6-0.7-1.2c0,0,0,0,0,0c0,0,0,0,0,0v0c0,0,0,0,0,0l0,0
			c0,0,0,0,0,0l0-0.1c0.1-0.5,0.7-0.9,1.2-0.7c0.5,0.1,0.8,0.6,0.7,1.2c0,0,0,0,0,0.1c0,0,0,0,0,0l0,0c0,0,0,0,0,0l0,0c0,0,0,0,0,0
			l0,0C96.2,307.5,95.8,307.8,95.3,307.8z"/>
	</g>
	<g>
		<path class="st4" d="M95.1,307.9c0,0,0,0.1,0,0.1c0,0,0,0,0,0C95.1,307.9,95.1,307.9,95.1,307.9C95.1,307.8,95.1,307.8,95.1,307.9
			z"/>
		<path class="st5" d="M95,308.9c0,0-0.1,0-0.1,0c-0.5-0.1-0.9-0.5-0.9-1.1c0,0,0,0,0,0l0,0c0,0,0-0.1,0-0.1c0,0,0,0,0,0
			c0,0,0-0.1,0-0.1c0.1-0.5,0.7-0.8,1.2-0.7c0.5,0.1,0.9,0.6,0.8,1.1l0,0.1c0,0,0,0,0,0l0,0C96,308.6,95.5,308.9,95,308.9z"/>
	</g>
	<g>
		<path class="st4" d="M93.9,305.8c0,0.1,0,0.1,0,0.2c0-0.1,0.1-0.3,0.1-0.4C94,305.6,94,305.7,93.9,305.8z"/>
		<path class="st5" d="M93.9,306.9c-0.1,0-0.2,0-0.3,0c-0.5-0.2-0.8-0.7-0.7-1.3c0-0.1,0-0.1,0.1-0.2c0,0,0,0,0,0l0.1-0.2
			c0,0,0,0,0,0c0,0,0,0,0,0l0,0c0.2-0.5,0.8-0.7,1.3-0.5c0.5,0.2,0.8,0.8,0.6,1.3c0,0.1-0.1,0.2-0.1,0.3
			C94.7,306.7,94.3,306.9,93.9,306.9z"/>
	</g>
	<g>
		<path class="st4" d="M93.9,306c0,0.1,0,0.1,0,0.2c0-0.1,0.1-0.2,0.1-0.3C93.9,306,93.9,306,93.9,306z"/>
		<path class="st5" d="M93.8,307.2c-0.1,0-0.2,0-0.3,0c-0.5-0.1-0.9-0.7-0.7-1.2l0-0.2c0,0,0,0,0,0c0,0,0-0.1,0-0.1
			c0.2-0.5,0.8-0.8,1.3-0.6c0.5,0.2,0.8,0.7,0.6,1.2c0,0.1-0.1,0.2-0.1,0.2C94.7,306.9,94.3,307.2,93.8,307.2z"/>
	</g>
	<g>
		<path class="st4" d="M93.3,308.8C93.3,308.8,93.3,308.8,93.3,308.8C93.3,308.8,93.3,308.8,93.3,308.8
			C93.2,308.7,93.2,308.7,93.3,308.8z"/>
		<path class="st5" d="M93.3,309.8c-0.3,0-0.5-0.1-0.7-0.3c0,0,0,0-0.1,0c-0.4-0.4-0.4-1.1-0.1-1.5c0,0,0.7-0.7,1.5,0
			c0.3,0.2,0.4,0.6,0.3,0.9c-0.1,0.3-0.3,0.6-0.6,0.8C93.6,309.8,93.4,309.8,93.3,309.8z"/>
	</g>
	<g>
		<path class="st4" d="M93.5,307.3c0,0,0-0.1,0-0.1c0,0,0,0,0,0C93.5,307.2,93.5,307.2,93.5,307.3C93.5,307.3,93.5,307.3,93.5,307.3
			z"/>
		<path class="st5" d="M93.5,308.3c-0.1,0-0.1,0-0.2,0c-0.5-0.1-0.9-0.6-0.8-1.1c0,0,0-0.1,0-0.1l0-0.2c0.1-0.5,0.7-0.8,1.2-0.7
			c0.5,0.1,0.9,0.7,0.7,1.2l0,0.1C94.4,308,94,308.3,93.5,308.3z"/>
	</g>
	<g>
		<path class="st4" d="M94,305.5c0.1-0.2,0.1-0.4,0.2-0.5c0,0,0,0,0,0C94.2,305.2,94.1,305.4,94,305.5z"/>
		<path class="st5" d="M94,306.6c-0.1,0-0.3,0-0.4-0.1c-0.5-0.2-0.8-0.8-0.6-1.3l0.2-0.5c0.2-0.5,0.8-0.8,1.3-0.6
			c0.5,0.2,0.8,0.8,0.6,1.3c-0.1,0.1-0.1,0.3-0.2,0.4l-0.1,0.2C94.8,306.3,94.4,306.6,94,306.6z"/>
	</g>
	<g>
		<path class="st4" d="M95.2,303.2c0.1-0.1,0.1-0.1,0.1-0.2C95.3,303,95.2,303.1,95.2,303.2z"/>
		<path class="st5" d="M95.2,304.2c-0.2,0-0.4-0.1-0.5-0.2c-0.5-0.3-0.6-0.9-0.3-1.4c0.1-0.1,0.1-0.2,0.1-0.2
			c0.3-0.5,0.9-0.6,1.4-0.3c0.5,0.3,0.6,0.9,0.3,1.4l-0.1,0.1C95.8,304,95.5,304.2,95.2,304.2z"/>
	</g>
	<g>
		<path class="st4" d="M95.1,303.2C95.1,303.3,95.1,303.3,95.1,303.2C95.1,303.2,95.1,303.2,95.1,303.2
			C95.2,303.2,95.1,303.2,95.1,303.2z"/>
		<path class="st5" d="M95.1,304.3c-0.2,0-0.3,0-0.5-0.1c-0.5-0.3-0.7-0.9-0.4-1.3c0,0,0.1-0.1,0.1-0.2l0.1-0.1
			c0.3-0.5,0.9-0.6,1.4-0.3c0.5,0.3,0.6,0.9,0.3,1.4l-0.1,0.1C95.8,304.1,95.4,304.3,95.1,304.3z"/>
	</g>
	<g>
		<path class="st4" d="M95.3,303C95.3,303,95.3,303,95.3,303C95.3,303,95.3,303,95.3,303z"/>
		<path class="st5" d="M95.3,304c-0.2,0-0.4-0.1-0.6-0.2c-0.5-0.3-0.6-0.9-0.3-1.4l0,0c0,0,0,0,0,0l0,0c0,0,0,0,0,0c0,0,0,0,0,0
			c0,0,0,0,0,0c0,0,0,0,0,0c0,0,0,0,0,0c0,0,0,0,0,0c0,0,0,0,0,0c0,0,0,0,0,0c0,0,0,0,0,0l0,0c0,0,0,0,0,0l0,0c0,0,0,0,0,0s0,0,0,0
			l0,0c0,0,0,0,0,0l0,0c0,0,0,0,0,0h0c0,0,0,0,0,0l0,0c0,0,0,0,0,0l0,0c0,0,0,0,0,0c0,0,0,0,0,0l0,0c0,0,0,0,0,0c0,0,0,0,0,0
			c0,0,0,0,0,0c0,0,0,0,0,0c0,0,0,0,0,0c0,0,0,0,0,0h0c0.3-0.4,0.8-0.6,1.3-0.4c0.5,0.2,0.7,0.7,0.5,1.2c0,0.1-0.1,0.2-0.1,0.3
			C95.9,303.9,95.6,304,95.3,304z"/>
	</g>
</g>
</svg>
