<?xml version="1.0" encoding="utf-8"?>
<!-- Generator: Adobe Illustrator 27.5.0, SVG Export Plug-In . SVG Version: 6.00 Build 0)  -->
<svg version="1.1" id="Capa_1" xmlns="http://www.w3.org/2000/svg" xmlns:xlink="http://www.w3.org/1999/xlink" x="0px" y="0px"
	 viewBox="0 0 566.9 566.9" style="enable-background:new 0 0 566.9 566.9;" xml:space="preserve">
<style type="text/css">
	.st0{fill:#F5C298;}
	.st1{fill:#FDFCFB;}
	.st2{fill:#EEECEB;}
</style>
<path class="st0" d="M358.3,328.6c9.9,6.4,18.1,14.9,27.1,22.4c15.6,13.1,33.6,23.1,49.3,36c18.5,15.2,34,34.3,54.4,46.9
	c4.9,3.1,10.5,5.8,16.3,5.1c1.5-0.2,3.1-0.7,4-1.9c1-1.2,1-2.9,1-4.5c-0.4-22.4-14.4-42.8-31.7-57c-17.4-14.2-38.1-23.6-57.9-34.1
	c-16.3-8.7-32.3-18.2-49.4-25.2c-7.6-3.1-15.4-5.6-23.4-7.3c-4.5-0.9-21.6-5.3-25.3-2c-4.4,3.9,10.9,9,13.9,10.4
	C344,320.9,351.5,324.2,358.3,328.6z"/>
<path class="st0" d="M248.5,343.9c-5.7,7.1-10.9,14.7-14.3,23.1c-6.6,16.3-5.9,34.5-4.1,52c0.3,3.4,0.8,6.9,2.6,9.7
	c1.6,2.3,4,3.9,6.4,5.3c4.4,2.5,10.1,4.3,14.2,1.4c4.2-3,4.3-9,4.2-14.2c-0.7-28.3,5.4-56.8,17.8-82.4c2.2-4.5,16.4-30.9,1.2-23.3
	C265.7,320.9,255.8,334.8,248.5,343.9z"/>
<path class="st0" d="M135.6,354.6c-10.4,6.4-20.6,13.6-27.5,23.6c-8.8,12.8-11.2,28.8-11.5,44.3c0,2,0,4.2,1.4,5.6
	c1.1,1.3,3,1.7,4.6,1.9c8.2,1,16.8-0.7,24-4.9c8.7-5.1,15-13.3,22.4-20.2c5.1-4.8,10.7-9,16.2-13.3c28-21.9,53.7-46.7,82.9-67.2
	c3.2-2.2,20.9-11.8,18.3-14.8c-2.8-3.3-21.1,2.4-25.1,3.2c-17.4,3.6-34.5,8.6-51.1,14.9C171.2,334.9,152.9,344,135.6,354.6z"/>
<ellipse class="st1" cx="286.4" cy="259.4" rx="248.6" ry="52.2"/>
<ellipse class="st2" cx="258.9" cy="259.4" rx="221.2" ry="48.4"/>
<g>
	<g>
		<path d="M538.7,256.5c-0.5,1.8-1.3,3.1-2.2,4.3c-0.9,1.2-1.9,2.4-3.4,3.8c-0.4,0.4-1,1-1.8,1.6c-0.4,0.3-0.9,0.7-1.4,1.1l0,0
			l-1,0.7c-0.7,0.5-1.5,1-2.2,1.5c-1.5,0.9-3.1,1.8-4.7,2.6c-3.3,1.6-6.7,3.1-10.2,4.5c-7.1,2.7-14.5,4.9-22.3,6.9
			c-15.5,4-32,7-49,9.5c-17,2.5-34.7,4.4-52.6,5.9c-35.8,3-72.9,4.2-109.1,4c-36.2-0.2-71.6-1.9-104.1-5c-32.5-3.1-62.3-7.6-87-13.7
			c-12.3-3.1-23.4-6.5-32.6-10.8c-2.3-1-4.5-2.2-6.5-3.3c-2-1.2-3.9-2.4-5.5-3.8c-1.6-1.3-3.1-2.8-4.1-4.3c-1.1-1.5-1.8-3.1-1.9-4.6
			c-0.4-3.1,1.2-5.8,2.9-7.8c1.7-2,3.6-3.4,5.1-4.5c1.5-1.1,2.8-1.8,3.6-2.3c0.8-0.5,1.3-0.7,1.3-0.7s0.4-0.2,1.3-0.7
			c0.9-0.4,2.2-1.1,3.9-1.9c3.5-1.6,8.7-3.7,15.6-6c13.8-4.5,34.3-9.2,59.4-13c25.2-3.8,55.1-6.9,87.7-8.6
			c32.6-1.8,68-2.3,104.2-1.4c36.2,1,73.2,3.4,108.8,8.2c17.8,2.4,35.3,5.3,52,9.3c8.4,2,16.5,4.2,24.4,6.9
			c3.9,1.4,7.7,2.8,11.4,4.5c1.8,0.8,3.6,1.7,5.4,2.7c0.9,0.5,1.7,1,2.6,1.5c0.5,0.3,1.1,0.7,1.6,1c2.3,1.5,4,3,4.8,3.8
			c1.5,1.4,2.5,2.6,3.4,3.8C537.5,253.4,538.3,254.7,538.7,256.5c0.4-1.8,0.3-3.6-0.3-5.2c-0.6-1.7-1.6-3.2-3.2-4.9
			c-0.9-0.9-2.7-2.6-5.2-4.2c-0.6-0.4-1.1-0.7-1.7-1.1c-0.9-0.5-1.8-1.1-2.7-1.6c-1.8-1-3.7-1.9-5.6-2.8c-3.8-1.7-7.7-3.2-11.7-4.6
			c-8-2.8-16.2-5-24.7-7c-16.9-4-34.4-6.9-52.3-9.3c-35.8-4.7-72.8-7.2-109.1-8.2c-36.3-1-71.7-0.4-104.4,1.4
			c-32.7,1.8-62.7,4.8-88,8.7c-25.3,3.8-45.9,8.6-59.9,13.2c-7,2.3-12.4,4.4-15.9,6.1c-1.8,0.8-3.1,1.5-4,2
			c-0.9,0.5-1.4,0.7-1.4,0.7s-0.5,0.2-1.3,0.8c-0.9,0.5-2.2,1.3-3.8,2.5c-1.6,1.2-3.6,2.7-5.6,5c-1,1.2-2,2.5-2.7,4.2
			c-0.7,1.7-1.1,3.7-0.9,5.8c0.3,2.1,1.2,4.1,2.4,5.9c1.3,1.8,2.9,3.4,4.7,4.8c1.8,1.5,3.8,2.8,5.9,4c2.1,1.2,4.4,2.4,6.7,3.5
			c9.5,4.3,20.7,7.8,33.1,10.9c24.9,6.2,54.8,10.6,87.4,13.8c32.6,3.1,68.1,4.8,104.3,5c36.3,0.2,73.4-1,109.3-4
			c18-1.5,35.7-3.4,52.8-6c17.1-2.5,33.7-5.6,49.3-9.6c7.8-2,15.4-4.3,22.6-7c3.6-1.4,7.1-2.9,10.5-4.6c1.7-0.8,3.3-1.8,4.9-2.7
			c0.8-0.5,1.6-1,2.3-1.5l1-0.7l0,0c0.5-0.4,1-0.8,1.5-1.1c0.9-0.8,1.6-1.4,2-1.8c1.6-1.6,2.6-3.2,3.2-4.9
			C539,260.1,539.2,258.3,538.7,256.5z"/>
	</g>
	<g>
		<path d="M289.2,305.1c-1.8-0.3-3.4-0.5-5-0.6c-1.6-0.1-3.4-0.1-5.5,0.1c-0.6,0.1-1.5,0.2-2.6,0.3c-0.5,0.1-1.1,0.1-1.8,0.2l-0.1,0
			l-0.7,0.1l-0.8,0.1c-1.1,0.1-2.2,0.3-3.4,0.4c-1.1,0.1-2.3,0.3-3.4,0.4c-1.1,0.2-2.3,0.3-3.4,0.5c-4.6,0.7-9.2,1.5-13.8,2.4
			c-9.3,1.8-18.8,4.1-28.4,6.9c-19.2,5.6-38.7,13.1-57.8,22.9c-4.8,2.5-9.5,5.2-14.1,8.1c-4.6,2.9-9.1,6.1-13.5,9.6
			c-1.1,0.9-2.1,1.8-3.2,2.7c-1,0.9-2.1,1.9-3.1,2.8c-1.1,0.9-2,2-3,2.9l-1.5,1.5l-1.4,1.6l-1.4,1.6c-0.5,0.5-0.9,1-1.4,1.6
			l-2.6,3.3l-2.4,3.5l-0.6,0.9l-0.5,0.9l-1.1,1.8l-1.1,1.8l-1,1.9l-1,1.9c-0.2,0.3-0.3,0.6-0.5,1l-0.4,1l-1.6,4
			c-0.5,1.4-0.9,2.7-1.3,4.1c-0.8,2.8-1.3,5.6-1.5,8.6c-0.2,2.9-0.1,5.9,0.6,8.8c0.3,1.5,0.8,2.9,1.3,4.3c0.6,1.4,1.3,2.8,2.2,4
			c1.7,2.5,3.9,4.6,6.5,6.3c1.3,0.8,2.7,1.5,4.1,2c0.7,0.3,1.5,0.4,2.2,0.6c0.4,0.1,0.8,0.1,1.1,0.2l0.6,0.1l0.6,0
			c1.6,0.1,3.1-0.1,4.6-0.4c1.5-0.4,2.9-1,4.3-1.7c2.7-1.5,4.9-3.4,7-5.4l6.1-5.9c4.1-3.9,8.2-7.8,12.3-11.7
			c8.3-7.7,16.6-15.3,24.9-22.8c16.7-15,33.5-29.4,50.2-43.1c4.2-3.4,8.3-6.8,12.5-10.2c4.1-3.3,8.3-6.6,12.5-9.7
			c4.2-3.1,8.5-5.9,13-8.5c2.2-1.3,4.5-2.5,6.7-3.5c2.3-1.1,4.6-2.1,6.9-2.9c2.3-0.8,4.7-1.3,7.1-1.6c2.4-0.2,4.7-0.1,7.1,0.3
			c4.7,0.8,9.2,2.7,13.8,4.3c9.3,3.4,18.7,5.1,27.5,7.1c17.8,4.1,34,9.6,48.5,15.8c14.5,6.2,27.1,13,37.8,19.7
			c10.7,6.7,19.6,13.2,26.7,18.8c1.7,1.4,3.4,2.8,4.9,4.1c1.5,1.3,3,2.4,4.3,3.6c2.6,2.3,4.8,4.3,6.6,5.9c3.5,3.3,5.3,5.1,5.3,5.1
			s0.5,0.4,1.3,1.3c0.9,0.8,2.1,2.2,3.8,3.9c0.8,0.9,1.8,1.8,2.8,2.9c1,1.1,2.1,2.2,3.3,3.5c2.3,2.6,4.9,5.6,7.2,9.3
			c1.2,1.9,2.2,3.9,3.1,6.1c0.8,2.2,1.5,4.7,1.6,7.2c0.1,2.5-0.3,5.2-1.3,7.8c-0.9,2.6-2.5,5.1-4.7,7c-0.3,0.2-0.6,0.4-0.8,0.7
			c-0.3,0.2-0.6,0.4-0.9,0.6c-0.3,0.2-0.6,0.4-0.9,0.6c-0.3,0.1-0.7,0.3-1,0.4c-1.4,0.5-2.8,0.8-4.3,0.8c-3.1,0-6.2-1.2-9.2-2.9
			c-1.5-0.8-3.1-1.8-4.6-2.7c-1.6-1-3.1-2-4.6-3c-3.1-2.1-6.2-4.4-9.3-6.8c-12.4-9.6-24.8-21.5-38.2-34.1
			c-13.3-12.6-27.5-25.9-42.3-39.8c-7.4-6.9-14.9-14-22.6-21.2c-3.8-3.6-7.6-7.3-11.6-10.9c-4-3.6-8.2-7.1-12.8-10.1
			c-2.3-1.5-4.7-2.9-7.3-4.1c-2.6-1.1-5.2-2.1-8-2.8c-0.7-0.2-1.4-0.3-2.1-0.4c-0.7-0.2-1.4-0.2-2.1-0.3c-1.4-0.2-2.9-0.3-4.3-0.2
			c-2.9,0-5.7,0.4-8.5,1.1c-5.6,1.4-10.7,4.1-15.4,7.3c-4.7,3.2-8.9,7.1-12.9,11.1c-4,4.1-7.7,8.3-11.3,12.7
			c-3.6,4.4-7.2,8.7-10.6,13.2c-3.4,4.5-6.8,9.2-9.7,14.1c-3,4.9-5.6,10.1-7.6,15.5c-1,2.7-1.8,5.5-2.5,8.3l-0.4,2.1l-0.2,1.1
			l-0.2,1.1l-0.3,2.1l-0.2,2.2c-0.5,5.8-0.1,11.6,1.2,17.3c0.1,0.7,0.3,1.4,0.6,2.1c0.2,0.7,0.4,1.4,0.6,2.1l0.8,2
			c0.1,0.3,0.3,0.7,0.4,1l0.5,1l0.9,2l1.1,1.9l0.5,0.9l0.6,0.9l1.2,1.8c0.4,0.6,0.9,1.1,1.4,1.7c0.5,0.6,0.9,1.1,1.4,1.7
			c1,1.1,2.2,2.1,3.6,2.9c1.4,0.8,3.1,1.2,4.7,1.2c1.7,0,3.3-0.6,4.7-1.4c1.4-0.8,2.5-1.9,3.5-3c1-1.1,1.8-2.4,2.6-3.6
			c1.5-2.5,2.6-5.2,3.4-7.9c1.7-5.3,3.3-10.5,4.9-15.8c3.2-10.5,6.1-21,8.8-31.3c2.7-10.4,5.2-20.6,7.5-30.7c1.1-5,2.4-10,4-14.7
			c0.4-1.2,0.8-2.4,1.3-3.5c0.2-0.6,0.5-1.1,0.7-1.7l0.8-1.7c0.2-0.6,0.5-1.1,0.8-1.6c0.3-0.5,0.6-1.1,0.9-1.6
			c0.4-0.7,0.8-1.3,1.2-2c1.6-2.3,3.1-4,3.9-4.7c0.8-0.7,1.4-1.4,2-1.9c0.3-0.3,0.6-0.6,0.9-0.8c0.1-0.1,0.3-0.3,0.4-0.4
			c0.2-0.1,0.3-0.2,0.5-0.4c0.6-0.5,1.2-1,1.8-1.5c0.6-0.5,1.3-1,2.1-1.6c-0.9,0.2-1.8,0.3-2.6,0.5c-0.8,0.2-1.6,0.5-2.4,0.9
			c-0.2,0.1-0.4,0.2-0.6,0.3c-0.2,0.1-0.4,0.2-0.6,0.3c-0.4,0.2-0.8,0.5-1.2,0.7c-0.8,0.5-1.5,1.2-2.4,2c-0.9,0.8-2.6,2.7-4.2,5.2
			c-0.4,0.7-0.9,1.4-1.3,2.1c-0.3,0.6-0.6,1.1-0.9,1.7c-0.3,0.6-0.6,1.1-0.9,1.7l-0.8,1.8c-0.3,0.6-0.5,1.2-0.7,1.8
			c-0.5,1.2-0.9,2.4-1.4,3.6c-1.7,4.9-2.9,9.9-4.1,15c-2.3,10.1-4.7,20.3-7.5,30.6c-2.7,10.3-5.6,20.8-8.8,31.2
			c-1.6,5.2-3.2,10.5-4.9,15.8c-0.8,2.6-1.8,5-3.1,7.3c-0.7,1.1-1.4,2.2-2.2,3.2c-0.8,1-1.8,1.8-2.8,2.4c-1,0.6-2.1,0.9-3.3,1
			c-0.3,0-0.6,0-0.8,0l-0.8-0.2c-0.6-0.1-1.1-0.4-1.6-0.6c-1-0.6-2-1.4-2.9-2.4c-0.5-0.5-0.9-1-1.3-1.5c-0.4-0.5-0.9-1-1.3-1.6
			L234,424l-0.6-0.8l-0.5-0.9l-1-1.8l-0.9-1.8l-0.4-0.9c-0.1-0.3-0.2-0.6-0.4-1l-0.7-1.9c-0.2-0.6-0.4-1.3-0.6-2
			c-0.2-0.7-0.4-1.3-0.5-2c-1.2-5.3-1.6-10.9-1.1-16.4l0.2-2.1l0.3-2.1l0.1-1l0.2-1l0.4-2c0.7-2.7,1.4-5.4,2.4-7.9
			c3.8-10.5,10.1-19.9,16.9-28.9c3.4-4.5,7-8.8,10.6-13.2c3.6-4.3,7.2-8.6,11.1-12.5c3.9-4,8-7.7,12.5-10.8
			c4.5-3.1,9.3-5.6,14.5-6.9c2.6-0.7,5.2-1,7.8-1c1.3,0,2.6,0,3.9,0.2c0.7,0.1,1.3,0.1,2,0.3c0.6,0.1,1.3,0.2,1.9,0.4
			c2.6,0.6,5,1.5,7.5,2.6c2.4,1.1,4.7,2.4,6.9,3.9c4.4,2.9,8.5,6.3,12.5,9.9c3.9,3.5,7.8,7.2,11.6,10.8c7.7,7.2,15.2,14.3,22.6,21.2
			c14.8,13.9,28.9,27.2,42.3,39.8c13.3,12.5,25.8,24.5,38.4,34.3c3.2,2.4,6.3,4.7,9.4,6.9c1.6,1,3.1,2.1,4.7,3.1
			c1.6,1,3.1,2,4.8,2.8c3.2,1.7,6.8,3.2,10.6,3.2c1.9,0,3.7-0.4,5.4-1c0.4-0.2,0.8-0.4,1.2-0.5c0.4-0.2,0.8-0.5,1.2-0.7
			c0.4-0.2,0.7-0.5,1.1-0.8c0.3-0.3,0.7-0.5,1-0.8c2.6-2.3,4.4-5.2,5.5-8.2c1.1-3,1.6-6,1.4-9c-0.4-5.9-2.7-10.8-5.1-14.7
			c-2.5-4-5.2-7.1-7.5-9.7c-1.2-1.3-2.3-2.5-3.3-3.6c-1-1.1-2-2-2.8-2.9c-1.7-1.7-2.9-3.1-3.9-3.9c-0.9-0.9-1.4-1.3-1.4-1.3
			s-1.9-1.8-5.3-5.1c-1.8-1.6-4-3.6-6.7-5.9c-1.3-1.2-2.8-2.4-4.3-3.7c-1.6-1.3-3.2-2.7-5-4.1c-7.2-5.6-16.1-12.2-26.9-19
			c-10.8-6.8-23.6-13.7-38.2-19.9c-14.6-6.2-31-11.9-49-16c-9-2-18.2-3.7-27.2-7c-4.5-1.6-9.1-3.5-14.2-4.4
			c-2.5-0.5-5.2-0.6-7.8-0.3c-2.6,0.3-5.2,0.9-7.7,1.7c-2.5,0.8-4.9,1.9-7.2,3c-2.4,1.1-4.6,2.3-6.9,3.6c-4.5,2.6-8.9,5.5-13.2,8.6
			c-4.3,3.1-8.5,6.4-12.6,9.8c-4.2,3.4-8.3,6.8-12.5,10.2c-16.7,13.8-33.6,28.2-50.3,43.2c-8.4,7.5-16.7,15.1-25,22.8
			c-4.1,3.9-8.3,7.8-12.4,11.7l-6.1,5.9c-2,1.9-4.1,3.7-6.4,5c-1.1,0.6-2.3,1.1-3.6,1.5c-1.2,0.3-2.5,0.5-3.8,0.4l-0.5,0l-0.5-0.1
			c-0.3,0-0.6-0.1-1-0.1c-0.6-0.2-1.3-0.3-1.9-0.5c-1.2-0.4-2.4-1-3.5-1.7c-2.2-1.4-4.2-3.3-5.6-5.4c-0.8-1.1-1.3-2.3-1.9-3.4
			c-0.5-1.2-0.9-2.5-1.2-3.8c-1.1-5.2-0.5-10.8,0.9-16c0.4-1.3,0.8-2.6,1.2-3.9l1.6-3.8l0.4-1c0.1-0.3,0.3-0.6,0.5-0.9l0.9-1.8
			l0.9-1.8l1-1.8l1-1.8l0.5-0.9l0.6-0.8l2.3-3.4l2.5-3.2c0.4-0.5,0.9-1.1,1.3-1.6l1.4-1.5l1.4-1.5l1.4-1.4c1-0.9,1.9-2,2.9-2.8
			c1-0.9,2-1.8,3-2.7c1-0.9,2.1-1.7,3.1-2.6c4.2-3.4,8.6-6.5,13.2-9.4c4.6-2.8,9.2-5.5,13.9-7.9c18.9-9.7,38.3-17.2,57.3-22.7
			c9.5-2.8,18.9-5,28.2-6.8c4.6-0.9,9.2-1.7,13.7-2.4c1.1-0.2,2.3-0.4,3.4-0.5c1.1-0.1,2.2-0.3,3.4-0.4c1.1-0.1,2.2-0.3,3.3-0.4
			l0.8-0.1l0.7-0.1l0.1,0c0.6-0.1,1.2-0.1,1.8-0.2c1.1-0.1,2-0.2,2.5-0.3c2.2-0.3,3.8-0.5,5.4-0.9
			C286,306.2,287.5,305.7,289.2,305.1z"/>
	</g>
	<g>
		<path d="M270.1,308c-1.9-0.2-3.4-0.3-5.1-0.3c-0.8,0-1.7,0-2.6,0.1c-0.5,0-0.9,0.1-1.4,0.1c-0.5,0.1-1,0.2-1.5,0.3
			c-0.6,0.1-1.5,0.3-2.5,0.5c-0.5,0.1-1.1,0.2-1.8,0.3c-0.6,0.1-1.1,0.2-1.7,0.3c-0.7,0.1-1.3,0.2-2,0.4c-1.3,0.3-2.7,0.6-4.1,1
			c-1.4,0.3-2.8,0.6-4.3,1c-1.4,0.4-2.9,0.8-4.4,1.3c-1.5,0.4-3,0.8-4.5,1.3c-1.5,0.5-3,1-4.5,1.5c-6.1,2-12.2,4.5-18.2,7
			c-11.9,5.1-22.8,10.9-30.7,15.4c-2,1.1-3.8,2.2-5.3,3.1c-1.6,0.9-2.9,1.7-4.1,2.4c-1.1,0.7-2,1.2-2.6,1.6
			c-0.6,0.4-0.9,0.6-0.9,0.6s-1.2,0.8-3.5,2.1c-2.2,1.4-5.3,3.4-9.1,5.9c-1.9,1.3-3.9,2.6-6.1,4.1c-2.2,1.5-4.5,3.1-6.9,4.7
			c-4.8,3.3-10,6.9-14.9,11.3c-4.8,4.4-9.4,9.6-12,15.8c-1.4,3.1-2.1,6.3-2.4,9.5c-0.1,0.8-0.1,1.6-0.1,2.4c0,0.8,0,1.6,0.1,2.4
			c0.1,0.8,0.1,1.5,0.2,2.3c0.1,0.4,0.1,0.8,0.2,1.1c0,0.2,0.1,0.4,0.1,0.6l0.1,0.4c0.2,0.7,0.3,1.4,0.6,2.1
			c0.2,0.6,0.4,1.2,0.6,1.8c0.5,1.1,0.9,1.9,1.2,2.5c0.3,0.5,0.6,1,0.9,1.4c0.3,0.4,0.6,0.8,0.9,1.2c0.6,0.8,1.3,1.3,2,1.9l0.5,0.4
			l0.6,0.3c0.4,0.2,0.7,0.4,1.1,0.6c0.4,0.2,0.8,0.3,1.2,0.5c0.4,0.1,0.8,0.3,1.3,0.4c-0.3-0.3-0.6-0.7-0.9-1
			c-0.3-0.3-0.6-0.6-0.8-0.9c-0.2-0.3-0.5-0.6-0.7-0.9l-0.4-0.4l-0.3-0.5c-0.4-0.6-0.9-1.2-1.4-2c-0.2-0.4-0.5-0.7-0.7-1.1
			c-0.2-0.4-0.5-0.8-0.7-1.3c-0.3-0.5-0.6-1.2-1-2.2c-0.2-0.5-0.4-1-0.6-1.6c-0.2-0.6-0.3-1.2-0.5-1.9l-0.1-0.4
			c0-0.2-0.1-0.3-0.1-0.5c-0.1-0.3-0.1-0.7-0.2-1c-0.1-0.7-0.2-1.4-0.2-2.1c-0.1-0.7-0.1-1.4-0.1-2.1c0-0.7,0.1-1.4,0.1-2.2
			c0.2-2.9,1-5.9,2.2-8.6c2.5-5.6,6.7-10.6,11.3-14.8c4.7-4.2,9.8-7.8,14.6-11.1c2.4-1.6,4.7-3.2,6.8-4.7c2.2-1.5,4.2-2.8,6.1-4.1
			c3.8-2.4,6.9-4.5,9.1-5.8c2.2-1.4,3.4-2.1,3.4-2.1s0.3-0.2,0.9-0.6c0.6-0.4,1.4-0.9,2.5-1.6c1.1-0.7,2.5-1.5,4-2.4
			c1.6-0.9,3.3-2,5.3-3.1c7.8-4.5,18.6-10.2,30.4-15.2c5.9-2.5,12-4.9,18-6.9c1.5-0.5,3-1,4.5-1.5c1.5-0.5,3-0.9,4.4-1.3
			c1.5-0.4,2.9-0.8,4.3-1.2c1.4-0.4,2.8-0.7,4.2-1c1.4-0.3,2.7-0.6,4-1c0.7-0.2,1.3-0.3,1.9-0.4c0.6-0.1,1.1-0.2,1.7-0.3
			c0.6-0.1,1.2-0.2,1.7-0.3c1.1-0.2,1.9-0.4,2.5-0.5c0.5-0.1,1-0.2,1.5-0.3c0.5-0.1,0.9-0.2,1.4-0.3c0.9-0.2,1.7-0.4,2.5-0.6
			C266.9,309.3,268.3,308.7,270.1,308z"/>
	</g>
	<g>
		<path d="M271.7,321.2c-3.3,1.8-5.5,3.1-8.5,6.3c-0.4,0.4-1,1.1-1.8,1.9c-0.4,0.4-0.8,0.9-1.2,1.3c-0.5,0.5-1,1.1-1.5,1.6
			c-0.6,0.6-1.1,1.3-1.6,1.9c-0.5,0.7-1.1,1.3-1.7,2c-0.5,0.7-1.1,1.4-1.6,2.1c-4.4,5.6-8.8,12.1-12.7,19c-3.9,7-7.3,14.5-9.9,22.1
			c-2.6,7.6-4.5,15.4-4.5,22.9c-0.1,3.7,0.4,7.3,1.1,10.6c0.8,3.3,2,6.4,3.9,8.8c0.9,1.2,1.9,2.3,3,3.2c1.1,0.9,2.3,1.5,3.5,2
			c2.4,0.9,4.6,1,6.4,0.7c1.8-0.3,3.2-0.9,4-1.5c0.4-0.3,0.7-0.5,0.9-0.7c0.2-0.2,0.3-0.2,0.3-0.2s0.4-0.3,1.1-1.1
			c0.6-0.8,1.4-2,2.1-3.6c0.7-1.6,1.2-3.6,1.7-5.7c0.6-2.2,1.2-4.7,1.9-7.4c2.8-10.9,6.7-25.6,10.7-41c1-3.9,2-7.8,3-11.6
			c1-3.9,2-7.8,3.2-11.5c1.1-3.8,2.4-7.4,3.7-10.9c0.7-1.7,1.4-3.4,2.2-5.1c0.4-0.8,0.8-1.6,1.2-2.4c0.4-0.7,0.8-1.4,1.2-2.1
			c0.7-1.2,1.4-2.3,1.9-3.2c0.6-0.9,1.1-1.6,1.4-2.1c0.6-0.9,1.2-1.6,1.6-2.4c0.5-0.7,0.9-1.4,1.4-2.1c0.8-1.4,1.7-2.7,2.6-4.3
			c-1.6,1-3,1.8-4.2,2.9c-0.6,0.5-1.3,1.1-1.9,1.8c-0.6,0.7-1.3,1.4-1.9,2.4c-0.3,0.5-0.9,1.2-1.5,2.2c-0.6,1-1.3,2.1-2,3.4
			c-0.4,0.7-0.8,1.5-1.2,2.2c-0.4,0.8-0.8,1.7-1.2,2.5c-0.8,1.7-1.5,3.4-2.2,5.2c-1.4,3.6-2.7,7.3-3.8,11.1
			c-1.1,3.8-2.2,7.7-3.2,11.6c-1,3.9-2,7.8-3,11.6c-4,15.4-7.8,30.1-10.7,41c-0.7,2.7-1.4,5.2-1.9,7.4c-0.6,2.2-1,4-1.6,5.4
			c-0.6,1.4-1.2,2.3-1.6,2.8c-0.5,0.6-0.8,0.8-0.8,0.8s-0.1,0.1-0.2,0.2c-0.1,0.1-0.3,0.3-0.6,0.5c-0.6,0.4-1.5,0.9-2.9,1.1
			c-1.4,0.2-3.1,0.1-5-0.6c-0.9-0.4-1.9-0.9-2.8-1.5c-0.9-0.7-1.7-1.6-2.5-2.6c-3.1-4.2-4.5-10.7-4.4-17.7c0.1-7,1.8-14.5,4.4-22
			c2.6-7.4,5.9-14.8,9.7-21.7c3.8-6.8,8.1-13.2,12.4-18.7c0.5-0.7,1.1-1.4,1.6-2c0.5-0.7,1.1-1.3,1.6-1.9c0.5-0.6,1.1-1.3,1.6-1.9
			c0.5-0.5,1-1.1,1.4-1.6c0.4-0.5,0.8-0.9,1.2-1.3c0.7-0.8,1.4-1.4,1.8-1.8C268.2,326.3,269.6,324.3,271.7,321.2z"/>
	</g>
	<g>
		<path d="M330.2,315.2c2.5,2.8,4.2,4.6,7.8,7.1c3.1,2.2,9.4,6.6,17,12c9.7,6.9,20.2,14.6,30.6,22.9c10.5,8.3,21,17.2,30.7,26.4
			c2.4,2.3,4.8,4.6,7.2,7c2.3,2.4,4.6,4.7,6.8,7c4.5,4.7,8.6,9.5,12.7,14c4.1,4.5,8.2,8.8,12.4,12.4c4.2,3.7,8.6,6.7,12.9,8.9
			c4.3,2.2,8.6,3.7,12.4,4.5c1,0.2,1.9,0.3,2.8,0.5c0.9,0.1,1.8,0.2,2.7,0.2c0.4,0,0.8,0,1.3,0.1c0.2,0,0.4,0,0.6,0
			c0.2,0,0.5,0,0.7,0c0.8,0,1.5,0,2.2,0c0.2,0,0.4,0,0.5,0l0-0.5c0-0.3,0-0.7,0-1c0-0.9-0.1-1.8-0.1-2.6c0-0.6-0.1-1.2-0.1-1.7
			c-0.1-1.1-0.2-2-0.2-2.7c-0.2-1.5-0.3-2.2-0.3-2.2s0-0.2-0.1-0.6c0-0.4-0.1-0.9-0.3-1.7c-0.1-0.7-0.3-1.6-0.5-2.7
			c-0.3-1-0.5-2.2-0.9-3.6c-0.8-2.7-1.8-5.9-3.3-9.5c-1.6-3.6-3.6-7.5-6.3-11.5c-2.7-4-6-8.1-10.1-12c-4.1-3.8-8.9-7.4-13.9-10.8
			c-10.1-6.8-21.3-13.9-33-20.6c-11.7-6.8-23.9-13.3-35.9-19.1c-3-1.5-6-2.9-9-4.3c-3-1.4-6-2.7-8.9-4.1c-2.9-1.3-5.9-2.6-8.7-3.8
			c-1.4-0.6-2.9-1.2-4.3-1.8c-1.3-0.5-2.6-1.1-3.9-1.6c-2.7-1.1-4.9-1.9-6-2.4c-4.1-1.6-6.6-2-10.3-2.5c3.1,2.2,5.2,3.5,9.2,5.1
			c1.1,0.4,3.3,1.3,5.9,2.4c1.3,0.5,2.5,1.1,3.8,1.6c1.4,0.6,2.8,1.2,4.2,1.8c2.8,1.2,5.8,2.5,8.7,3.8c2.9,1.3,5.9,2.6,8.8,4
			c3,1.4,6,2.8,9,4.3c12,5.8,24.1,12.3,35.8,19c11.6,6.7,22.7,13.7,32.8,20.5c5,3.4,9.6,6.8,13.6,10.5c3.9,3.7,7.1,7.6,9.7,11.5
			c2.6,3.9,4.5,7.6,6,11.1c1.5,3.4,2.5,6.5,3.2,9.1c0.3,1.3,0.6,2.4,0.9,3.4c0.2,1,0.4,1.9,0.5,2.6c0.1,0.7,0.2,1.2,0.3,1.6
			c0.1,0.4,0.1,0.5,0.1,0.5s0.1,0.7,0.3,2.1c0.1,0.7,0.1,1.6,0.2,2.6c0,0.5,0.1,1.1,0.1,1.7c0,0.4,0,0.8,0,1.3c0,0,0,0,0,0
			c-0.2,0-0.3,0-0.5,0c-0.2,0-0.4,0-0.6,0c-0.4,0-0.8,0-1.2-0.1c-0.8,0-1.6-0.2-2.5-0.2c-0.8-0.1-1.7-0.2-2.6-0.5
			c-3.6-0.7-7.6-2.1-11.7-4.2c-4.1-2.1-8.3-5-12.4-8.5c-4.1-3.5-8.1-7.7-12.2-12.2c-4.1-4.5-8.2-9.3-12.7-14
			c-2.2-2.4-4.6-4.7-6.9-7.1c-2.3-2.4-4.8-4.7-7.2-7c-9.8-9.3-20.4-18.2-30.9-26.5c-10.5-8.3-21-16-30.8-23
			c-2.4-1.7-4.8-3.4-7.1-5.1c-2.2-1.5-4.3-3-6.4-4.5c-0.5-0.4-1-0.7-1.5-1c-0.9-0.6-1.6-1.1-2.1-1.5
			C336,317.5,333.7,316.5,330.2,315.2z"/>
	</g>
	<g>
		<path d="M65.5,242.5c-1.6,1-2.8,2.2-3.7,3.6c-0.9,1.4-1.7,3.2-2,5.5c-0.1,0.8-0.3,2.1,0.1,4.8c0.1,0.5,0.2,1.4,0.4,2.1
			c0.1,0.4,0.2,0.7,0.3,0.9c0.1,0.2,0.1,0.4,0.1,0.4s0,0.1,0.1,0.3c0.1,0.2,0.2,0.5,0.3,0.8c0.1,0.3,0.3,0.6,0.5,0.9
			c0.2,0.3,0.3,0.6,0.5,0.8c2,3.1,3.9,4.4,4.8,5.1c1.9,1.3,3.7,2,5.4,2.2c1.7,0.2,3.4,0.1,5.2-0.4c-1.8-0.4-3.2-1-4.6-1.6
			c-1.4-0.7-2.8-1.4-4.4-2.5c-0.8-0.6-2.4-1.7-4-4.3c-0.1-0.2-0.3-0.4-0.4-0.7c-0.1-0.3-0.3-0.5-0.4-0.8c-0.1-0.2-0.2-0.5-0.3-0.6
			c-0.1-0.2-0.1-0.3-0.1-0.3s-0.1-0.1-0.1-0.3c-0.1-0.2-0.1-0.5-0.2-0.8c-0.2-0.6-0.3-1.3-0.4-1.7c-0.3-2.3-0.1-3.4-0.1-4
			c0.2-2,0.6-3.5,1-5C64.1,245.5,64.6,244.1,65.5,242.5z"/>
	</g>
	<g>
		<path d="M337.9,292.6c3.7,0.7,6.2,1.1,10.5,0.9c0.6,0,1.5-0.1,2.6-0.2c0.5,0,1.2-0.1,1.8-0.1c1-0.1,2.1-0.1,3.1-0.2
			c1.1-0.1,2.3-0.2,3.5-0.3c9.5-0.8,20.7-2.2,31.3-4c5.3-0.8,10.5-1.9,15.2-2.8c4.7-1.1,9.1-2,12.8-2.9c1.8-0.5,3.5-0.9,5-1.2
			c1.5-0.4,2.7-0.7,3.8-1c2.1-0.6,3.3-0.9,3.3-0.9s1.2-0.3,3.3-0.9c2.1-0.6,5.1-1.5,8.7-2.6c7.2-2.3,17-5.5,27-9.5
			c5-2,10.1-4.1,15-6.3c1.2-0.5,2.4-1.1,3.6-1.6c1.2-0.6,2.4-1.1,3.6-1.8c1.2-0.7,2.3-1.4,3.3-2.2c0.5-0.4,1-0.9,1.5-1.4
			c0.2-0.2,0.5-0.5,0.7-0.8l0.3-0.4l0.2-0.3c0.2-0.3,0.4-0.7,0.6-1c0.2-0.3,0.3-0.7,0.5-1c0.3-0.7,0.5-1.4,0.6-2.1
			c0.1-1.4-0.2-2.5-0.4-3.2c-0.5-1.2-1.2-2.2-1.9-2.9c-0.8-0.7-1.6-1.2-2.5-1.6c-0.9-0.3-1.9-0.4-2.8-0.1c-0.9,0.2-1.7,0.9-2.2,1.7
			c0.8-0.5,1.6-0.6,2.3-0.5c0.7,0.1,1.3,0.4,1.8,0.8c1.1,0.8,2.1,1.9,2.7,3.6c0.2,0.4,0.3,1.1,0.2,1.9c0,0.4-0.2,0.9-0.4,1.4
			c-0.1,0.2-0.2,0.5-0.4,0.8c-0.1,0.3-0.3,0.5-0.5,0.8l-0.2,0.2l-0.2,0.3c-0.2,0.2-0.3,0.4-0.5,0.6c-0.4,0.4-0.8,0.8-1.2,1.1
			c-0.9,0.7-1.9,1.4-2.9,2c-1.1,0.6-2.2,1.1-3.4,1.7c-1.2,0.5-2.4,1.1-3.6,1.6c-4.8,2.2-9.9,4.2-14.9,6.2
			c-9.9,3.9-19.6,7.1-26.8,9.4c-3.6,1.1-6.6,2-8.6,2.6c-2.1,0.6-3.2,0.9-3.2,0.9s-1.2,0.3-3.3,0.9c-1,0.3-2.3,0.6-3.8,1
			c-1.5,0.4-3.1,0.8-5,1.2c-3.6,0.9-8,1.8-12.7,2.9c-4.7,0.9-9.8,2-15.1,2.8c-10.5,1.8-21.6,3.2-31,3.9c-1.2,0.1-2.3,0.2-3.5,0.3
			c-1.1,0.1-2.1,0.1-3.1,0.2c-0.6,0-1.2,0.1-1.8,0.1c-1.1,0.1-2,0.1-2.6,0.2C343.9,290.9,341.5,291.5,337.9,292.6z"/>
	</g>
</g>
</svg>
